<svg width="24" height="24" viewBox="0 0 24 24" fill="none" xmlns="http://www.w3.org/2000/svg">
<path d="M2 6.48725C2.05917 6.30973 2.11835 6.15194 2.1578 5.99414C4.18942 8.00604 6.20131 9.99823 8.21321 11.9904C6.18159 14.0023 4.18942 15.9944 2.1578 18.0063C2.11835 17.888 2.05917 17.7105 2 17.533C2 13.8445 2 10.1757 2 6.48725Z" fill="white"/>
<path d="M3.04492 5.06741C3.30134 5.02796 3.55776 4.96875 3.8339 4.96875C5.45131 4.96875 7.06872 4.96875 8.70585 4.96875C12.5127 4.96875 16.3195 4.96875 20.146 4.96875C20.4222 4.96875 20.6983 5.02796 20.9745 5.06741C20.9745 5.08713 20.9745 5.10687 20.9745 5.14632C20.935 5.18577 20.8956 5.2449 20.8561 5.28435C18.0947 8.0655 15.3135 10.8467 12.5521 13.6278C12.2168 13.9631 11.8223 13.9631 11.487 13.6278C8.72557 10.8467 5.94442 8.0655 3.18299 5.28435C3.14354 5.2449 3.1041 5.20546 3.06465 5.16601C3.06465 5.14628 3.06465 5.10688 3.06465 5.08715L3.04492 5.06741Z" fill="white"/>
<path d="M14.9388 12.8793C16.9507 14.8714 18.9626 16.8637 21.0139 18.8953C20.7772 18.9544 20.58 18.9939 20.3827 19.0333C20.3236 19.0333 20.2447 19.0333 20.1855 19.0333C14.7415 19.0333 9.29758 19.0333 3.85363 19.0333C3.57748 19.0333 3.32106 18.9939 3.04492 18.8558C5.05682 16.8439 7.06872 14.8714 9.10034 12.8595C9.10034 12.8595 9.15951 12.9187 9.21868 12.9582C9.69207 13.4316 10.1655 13.9246 10.6586 14.398C11.4673 15.2067 12.5916 15.2067 13.4003 14.398C13.9328 13.8655 14.4457 13.3527 14.9585 12.8398L14.9388 12.8793Z" fill="white"/>
<path d="M21.8622 18.0456C19.8109 16.014 17.8187 14.0218 15.7871 12.0297C17.8187 10.0178 19.8306 8.02557 21.8622 6.01367C21.9017 6.21092 22.0003 6.46735 22.0003 6.70404C22.0003 10.2544 22.0003 13.8048 22.0003 17.3552C22.0003 17.5919 21.9214 17.8287 21.8622 18.0654V18.0456Z" fill="white"/>
</svg>
