<svg width="25" height="25" viewBox="0 0 25 25" fill="none" xmlns="http://www.w3.org/2000/svg">
<path d="M13.0896 22.1925H12.7917C12.6614 22.0978 12.5124 22.0032 12.3821 21.8895C10.9856 20.5635 9.73813 19.1238 8.6582 17.5515C7.67137 16.1118 6.81487 14.5774 6.33076 12.8915C5.80942 11.1487 5.77218 9.40592 6.4611 7.70103C7.37345 5.48468 8.97473 4.045 11.2649 3.43882C11.6559 3.32516 12.0656 3.2873 12.4566 3.23047C12.7731 3.23047 13.0896 3.23047 13.4062 3.23047C13.7413 3.2873 14.0765 3.32518 14.4116 3.40095C18.1541 4.25339 20.5374 7.98516 19.8113 11.8306C19.5506 13.1756 19.0665 14.4258 18.4148 15.6193C17.1301 17.9682 15.4543 20.0141 13.5365 21.8705C13.4062 22.0031 13.2386 22.1168 13.071 22.2305L13.0896 22.1925ZM16.8322 10.2205C16.7391 8.0231 14.9516 6.29927 12.8476 6.37504C10.6877 6.46976 8.97473 8.28829 9.06783 10.4478C9.16093 12.6452 10.967 14.369 13.0524 14.2933C15.2309 14.1986 16.9253 12.3611 16.8322 10.2205Z" fill="white"/>
</svg>
