<svg width="24" height="24" viewBox="0 0 24 24" fill="none" xmlns="http://www.w3.org/2000/svg">
<path d="M6.71371 2.5C7.06778 2.58773 7.42185 2.69737 7.69261 2.96056C7.73427 3.00442 7.77592 3.02639 7.81758 3.07026C8.62986 3.92561 9.44214 4.78093 10.2544 5.63629C10.8584 6.27232 10.9626 7.14958 10.5252 7.87335C10.3377 8.20233 10.067 8.44364 9.73373 8.55331C9.23386 8.7507 8.85896 9.05768 8.62986 9.58405C8.48407 9.93497 8.46324 10.2859 8.56738 10.6588C8.81731 11.6238 9.29635 12.4134 9.92118 13.1371C10.6501 14.0144 11.4833 14.7601 12.483 15.2864C12.8995 15.5058 13.3369 15.6812 13.816 15.6154C14.4616 15.5277 14.9407 15.1987 15.1906 14.5627C15.3572 14.146 15.5447 13.7731 15.9404 13.5319C16.5652 13.1371 17.3567 13.2029 17.8982 13.7073C18.3981 14.1898 18.8563 14.6943 19.3353 15.1988C19.7727 15.6593 20.2101 16.0979 20.6058 16.5804C21.1057 17.1945 21.1265 18.1376 20.6891 18.7956C20.6058 18.9272 20.5017 19.0588 20.3767 19.1685C19.8976 19.6729 19.4186 20.1554 18.9396 20.6818C18.4397 21.2301 17.8357 21.4714 17.1276 21.4933C16.3778 21.5371 15.6488 21.3616 14.9615 21.0985C13.5869 20.6159 12.3372 19.8484 11.15 18.9491C9.19221 17.4797 7.46351 15.7251 5.98474 13.7293C4.88087 12.2598 3.96445 10.6807 3.38128 8.88228C3.13135 8.11465 2.96472 7.32505 3.00638 6.51356C3.04803 5.7898 3.25631 5.15375 3.777 4.64931C4.21439 4.21067 4.63094 3.77208 5.02667 3.33343C5.38074 2.93865 5.77646 2.60968 6.31798 2.52195H6.71371V2.5Z" fill="white"/>
</svg>
