<svg width="379" height="550" viewBox="0 0 379 550" fill="none" xmlns="http://www.w3.org/2000/svg">
<path d="M7.14148 76.7909V472.781C7.14148 473.101 6.89148 473.361 6.58148 473.361C6.27148 473.361 6.02148 473.101 6.02148 472.781V76.7909C6.02148 76.4709 6.27148 76.2109 6.58148 76.2109C6.89148 76.2109 7.14148 76.4709 7.14148 76.7909Z" fill="white"/>
<path d="M6.57977 474.881C7.30977 474.881 7.89977 475.491 7.89977 476.251C7.89977 477.011 7.30977 477.621 6.57977 477.621C5.84977 477.621 5.25977 477.011 5.25977 476.251C5.25977 475.491 5.84977 474.881 6.57977 474.881Z" fill="white"/>
<path d="M6.5807 478.551C7.6107 478.551 8.4407 479.421 8.4407 480.481C8.4407 481.541 7.6107 482.411 6.5807 482.411C5.5507 482.411 4.7207 481.541 4.7207 480.481C4.7207 479.421 5.5507 478.551 6.5807 478.551Z" fill="white"/>
<path d="M6.57977 71.9609C7.30977 71.9609 7.89977 72.5709 7.89977 73.3309C7.89977 74.0909 7.30977 74.7009 6.57977 74.7009C5.84977 74.7009 5.25977 74.0909 5.25977 73.3309C5.25977 72.5709 5.84977 71.9609 6.57977 71.9609Z" fill="white"/>
<path d="M6.5807 67.2207C7.6107 67.2207 8.4407 68.0807 8.4407 69.1507C8.4407 70.2207 7.6107 71.0807 6.5807 71.0807C5.5507 71.0807 4.7207 70.2207 4.7207 69.1507C4.7207 68.0807 5.5507 67.2207 6.5807 67.2207Z" fill="white"/>
<path d="M372.302 76.2206L371.552 472.121C371.552 472.441 371.302 472.701 370.992 472.701C370.682 472.701 370.432 472.441 370.432 472.121L371.182 76.2206C371.182 75.9006 371.432 75.6406 371.742 75.6406C372.052 75.6406 372.302 75.9006 372.302 76.2206Z" fill="white"/>
<path d="M370.99 474.211C371.72 474.211 372.31 474.821 372.31 475.581C372.31 476.341 371.72 476.951 370.99 476.951C370.26 476.951 369.67 476.341 369.67 475.581C369.67 474.821 370.26 474.211 370.99 474.211Z" fill="white"/>
<path d="M370.991 477.881C372.021 477.881 372.851 478.751 372.851 479.811C372.851 480.871 372.021 481.741 370.991 481.741C369.961 481.741 369.131 480.871 369.131 479.811C369.131 478.751 369.971 477.881 370.991 477.881Z" fill="white"/>
<path d="M371.74 71.3906C372.47 71.3906 373.06 72.0006 373.06 72.7606C373.06 73.5206 372.47 74.1306 371.74 74.1306C371.01 74.1306 370.42 73.5206 370.42 72.7606C370.42 72.0006 371.01 71.3906 371.74 71.3906Z" fill="white"/>
<path d="M371.741 66.6504C372.771 66.6504 373.601 67.5104 373.601 68.5804C373.601 69.6504 372.771 70.5104 371.741 70.5104C370.711 70.5104 369.881 69.6504 369.881 68.5804C369.881 67.5104 370.721 66.6504 371.741 66.6504Z" fill="white"/>
<path d="M305.32 7.87875H73.9604C73.6504 7.87875 73.4004 7.61875 73.4004 7.29875C73.4004 6.97875 73.6504 6.71875 73.9604 6.71875H305.32C305.63 6.71875 305.88 6.97875 305.88 7.29875C305.88 7.61875 305.63 7.87875 305.32 7.87875Z" fill="white"/>
<path d="M71.9291 7.29945C71.9291 8.05945 71.3391 8.66945 70.6091 8.66945C69.8791 8.66945 69.2891 8.05945 69.2891 7.29945C69.2891 6.53945 69.8791 5.93945 70.6091 5.93945C71.3391 5.93945 71.9291 6.54945 71.9291 7.29945Z" fill="white"/>
<path d="M68.3899 7.29914C68.3899 8.36914 67.5499 9.22914 66.5299 9.22914C65.5099 9.22914 64.6699 8.36914 64.6699 7.29914C64.6699 6.22914 65.4999 5.36914 66.5299 5.36914C67.5599 5.36914 68.3899 6.22914 68.3899 7.29914Z" fill="white"/>
<path d="M309.98 7.29945C309.98 8.05945 309.39 8.66945 308.66 8.66945C307.93 8.66945 307.34 8.05945 307.34 7.29945C307.34 6.53945 307.93 5.93945 308.66 5.93945C309.39 5.93945 309.98 6.54945 309.98 7.29945Z" fill="white"/>
<path d="M314.56 7.29914C314.56 8.36914 313.73 9.22914 312.7 9.22914C311.67 9.22914 310.84 8.36914 310.84 7.29914C310.84 6.22914 311.67 5.36914 312.7 5.36914C313.73 5.36914 314.56 6.22914 314.56 7.29914Z" fill="white"/>
<path d="M304.081 541.48L73.2006 542.84C72.8906 542.84 72.6406 542.58 72.6406 542.26C72.6406 541.94 72.8906 541.68 73.2006 541.68L304.081 540.32C304.391 540.32 304.641 540.58 304.641 540.9C304.641 541.22 304.391 541.48 304.081 541.48Z" fill="white"/>
<path d="M71.1791 542.27C71.1791 543.03 70.5891 543.63 69.8591 543.63C69.1291 543.63 68.5391 543.02 68.5391 542.27C68.5391 541.52 69.1291 540.9 69.8591 540.9C70.5891 540.9 71.1791 541.51 71.1791 542.27Z" fill="white"/>
<path d="M67.6399 542.27C67.6399 543.34 66.7999 544.2 65.7799 544.2C64.7599 544.2 63.9199 543.34 63.9199 542.27C63.9199 541.2 64.7499 540.34 65.7799 540.34C66.8099 540.34 67.6399 541.2 67.6399 542.27Z" fill="white"/>
<path d="M308.74 540.901C308.74 541.661 308.15 542.261 307.42 542.261C306.69 542.261 306.1 541.651 306.1 540.901C306.1 540.151 306.69 539.531 307.42 539.531C308.15 539.531 308.74 540.141 308.74 540.901Z" fill="white"/>
<path d="M313.32 540.901C313.32 541.971 312.49 542.831 311.46 542.831C310.43 542.831 309.6 541.971 309.6 540.901C309.6 539.831 310.43 538.971 311.46 538.971C312.49 538.971 313.32 539.831 313.32 540.901Z" fill="white"/>
<path d="M61.8794 8.03945C62.3046 8.03945 62.6494 7.68128 62.6494 7.23945C62.6494 6.79763 62.3046 6.43945 61.8794 6.43945C61.4541 6.43945 61.1094 6.79763 61.1094 7.23945C61.1094 7.68128 61.4541 8.03945 61.8794 8.03945Z" fill="white"/>
<path d="M58.4199 7.23937C58.4199 6.61937 58.9099 6.10938 59.5099 6.10938C60.1099 6.10938 60.5999 6.61937 60.5999 7.23937C60.5999 7.85937 60.1099 8.36937 59.5099 8.36937C58.9099 8.36937 58.4199 7.85937 58.4199 7.23937Z" fill="white"/>
<path d="M5.82031 7.23945C5.82031 6.79945 6.17031 6.43945 6.59031 6.43945C7.01031 6.43945 7.36031 6.79945 7.36031 7.23945C7.36031 7.67945 7.02031 8.03945 6.59031 8.03945C6.16031 8.03945 5.82031 7.67945 5.82031 7.23945Z" fill="white"/>
<path d="M7.90039 7.23937C7.90039 6.61937 8.39039 6.10938 8.99039 6.10938C9.59039 6.10938 10.0804 6.61937 10.0804 7.23937C10.0804 7.85937 9.59039 8.36937 8.99039 8.36937C8.39039 8.36937 7.90039 7.85937 7.90039 7.23937Z" fill="white"/>
<path d="M33.4199 1.97992C32.9299 2.85992 32.3599 3.75992 31.8199 4.71992C30.8999 5.28992 30.0199 5.86992 29.1699 6.37992C28.6699 6.68992 28.1699 6.97992 27.6699 7.22992C28.1699 7.48992 28.6699 7.76992 29.1699 8.07992C30.0199 8.58992 30.8899 9.16992 31.8199 9.73992C32.3699 10.6999 32.9299 11.5999 33.4199 12.4799C33.7199 12.9999 33.9999 13.5199 34.2399 14.0299C34.4899 13.5199 34.7599 12.9899 35.0699 12.4799C35.5599 11.5999 36.1199 10.6899 36.6699 9.73992C37.5899 9.16992 38.4599 8.58992 39.3199 8.07992C39.8199 7.76992 40.3199 7.47992 40.8199 7.22992C40.3199 6.97992 39.8199 6.68992 39.3199 6.37992C38.4699 5.86992 37.5899 5.28992 36.6699 4.71992C36.1199 3.75992 35.5599 2.85992 35.0699 1.97992C34.7699 1.45992 34.4899 0.939922 34.2399 0.419922C33.9999 0.939922 33.7199 1.45992 33.4199 1.97992ZM38.1299 7.23992C37.2999 7.69992 36.4699 8.18992 35.6199 8.65992C35.1699 9.52992 34.6899 10.3899 34.2499 11.2499C33.8099 10.3899 33.3299 9.52992 32.8799 8.65992C32.0399 8.18992 31.2099 7.69992 30.3799 7.23992C31.2099 6.77992 32.0399 6.28992 32.8799 5.81992C33.3299 4.94992 33.8099 4.08992 34.2499 3.21992C34.6999 4.07992 35.1699 4.93992 35.6199 5.81992C36.4599 6.28992 37.2899 6.77992 38.1299 7.23992Z" fill="white"/>
<path d="M11.6203 7.23907C11.3103 6.93907 11.1003 6.57907 11.0203 6.20907C10.8703 5.62907 10.9803 5.10907 11.1403 4.74907C11.5103 3.99907 12.0303 3.94907 11.9903 3.92907C12.0203 3.92907 11.5403 4.11907 11.3603 4.82907C11.2803 5.16907 11.2803 5.61907 11.4703 6.04907C11.6503 6.46907 12.0503 6.81907 12.5703 6.96907C13.0903 7.12907 13.7203 7.08907 14.3003 6.85907C14.8903 6.61907 15.4603 6.18907 16.0003 5.64907C16.5503 5.10907 17.0903 4.45907 17.7503 3.81907C18.4003 3.18907 19.2203 2.53907 20.2503 2.23907C21.2503 1.94907 22.3703 2.02907 23.2203 2.65907C24.0303 3.27907 24.4303 4.19907 24.3803 5.09907C24.3503 5.54907 24.1803 5.96907 23.9403 6.28907C23.7003 6.59907 23.4103 6.81907 23.1103 6.95907C22.5203 7.22907 21.9303 7.21907 21.4803 7.05907C20.5803 6.71907 20.2703 6.07907 20.1203 5.72907C19.9703 5.35907 19.9803 5.16907 19.9803 5.16907C19.9803 5.16907 20.0703 5.32907 20.3203 5.59907C20.5603 5.84907 21.0103 6.23907 21.6503 6.28907C21.9603 6.31907 22.3103 6.23907 22.6203 6.00907C22.9203 5.78907 23.1203 5.45907 23.0903 5.05907C23.0803 4.66907 22.8103 4.16907 22.3903 3.89907C21.9903 3.63907 21.3403 3.55907 20.6603 3.75907C19.2703 4.14907 18.1703 5.55907 16.8403 6.65907C16.5903 6.86907 16.3203 7.05907 16.0503 7.23907C16.3203 7.41907 16.5903 7.60907 16.8403 7.81907C18.1703 8.91907 19.2703 10.3291 20.6603 10.7191C21.3403 10.9191 21.9903 10.8391 22.3903 10.5791C22.8103 10.3091 23.0803 9.80907 23.0903 9.41907C23.1203 9.02907 22.9203 8.69907 22.6203 8.46907C22.3203 8.24907 21.9603 8.16907 21.6503 8.18907C21.0103 8.24907 20.5603 8.62907 20.3203 8.88907C20.0703 9.14907 19.9803 9.31907 19.9803 9.31907C19.9803 9.31907 19.9803 9.12907 20.1203 8.75907C20.2703 8.40907 20.5803 7.77907 21.4803 7.42907C21.9303 7.26907 22.5203 7.24907 23.1103 7.52907C23.4003 7.65907 23.7003 7.87907 23.9403 8.19907C24.1803 8.51907 24.3503 8.93907 24.3803 9.38907C24.4403 10.2891 24.0303 11.2091 23.2203 11.8391C22.3703 12.4691 21.2503 12.5491 20.2503 12.2591C19.2303 11.9691 18.4003 11.3191 17.7503 10.6891C17.0903 10.0491 16.5503 9.38907 16.0003 8.85907C15.4503 8.31907 14.8903 7.88907 14.3003 7.64907C13.7203 7.41907 13.0903 7.38907 12.5703 7.53907C12.0503 7.68907 11.6503 8.03907 11.4703 8.45907C11.2803 8.88907 11.2803 9.33907 11.3603 9.67907C11.5403 10.3891 12.0203 10.5791 11.9903 10.5791C12.0203 10.5591 11.5003 10.5191 11.1403 9.75907C10.9803 9.38907 10.8703 8.87907 11.0203 8.28907C11.1003 7.92907 11.3103 7.55907 11.6203 7.25907V7.23907Z" fill="white"/>
<path d="M56.8909 7.23954C57.2009 7.53954 57.4109 7.90954 57.4909 8.26954C57.6309 8.85954 57.5309 9.36954 57.3709 9.73954C57.0009 10.4895 56.4809 10.5395 56.5109 10.5595C56.4809 10.5595 56.9609 10.3695 57.1409 9.65954C57.2209 9.31954 57.2209 8.86954 57.0309 8.43954C56.8509 8.01954 56.4509 7.66954 55.9309 7.51954C55.4109 7.35954 54.7809 7.39954 54.2009 7.62954C53.6109 7.86954 53.0509 8.29954 52.5009 8.83954C51.9509 9.37954 51.4109 10.0295 50.7509 10.6695C50.1009 11.2995 49.2809 11.9495 48.2509 12.2395C47.2509 12.5295 46.1309 12.4495 45.2809 11.8195C44.4709 11.1995 44.0709 10.2795 44.1309 9.36954C44.1509 8.91954 44.3209 8.49954 44.5609 8.17954C44.8009 7.86954 45.0909 7.64954 45.3909 7.50954C45.9709 7.23954 46.5609 7.24954 47.0109 7.40954C47.9109 7.74954 48.2209 8.38954 48.3709 8.73954C48.5209 9.11954 48.5109 9.29954 48.5109 9.29954C48.5109 9.29954 48.4209 9.13954 48.1709 8.86954C47.9309 8.61954 47.4809 8.22954 46.8409 8.16954C46.5309 8.14954 46.1809 8.22954 45.8709 8.44954C45.5709 8.66954 45.3709 9.00954 45.4009 9.39954C45.4109 9.78954 45.6809 10.2895 46.1009 10.5595C46.5009 10.8195 47.1509 10.8995 47.8309 10.6995C49.2209 10.3195 50.3209 8.89954 51.6509 7.79954C51.9009 7.58954 52.1709 7.39954 52.4409 7.21954C52.1609 7.04954 51.9009 6.84954 51.6509 6.63954C50.3209 5.53954 49.2209 4.12954 47.8309 3.73954C47.1509 3.53954 46.5009 3.61954 46.1009 3.87954C45.6809 4.14954 45.4109 4.64954 45.4009 5.03954C45.3709 5.42954 45.5709 5.76954 45.8709 5.98954C46.1709 6.20954 46.5309 6.28954 46.8409 6.26954C47.4809 6.21954 47.9309 5.82954 48.1709 5.57954C48.4109 5.31954 48.5109 5.14954 48.5109 5.14954C48.5109 5.14954 48.5109 5.33954 48.3709 5.70954C48.2209 6.05954 47.9109 6.69954 47.0109 7.03954C46.5609 7.19954 45.9709 7.20954 45.3909 6.93954C45.0909 6.79954 44.8009 6.58954 44.5609 6.26954C44.3209 5.94954 44.1509 5.52954 44.1309 5.07954C44.0709 4.17954 44.4809 3.25954 45.2809 2.63954C46.1309 2.00954 47.2409 1.92954 48.2509 2.21954C49.2709 2.51954 50.1009 3.15954 50.7509 3.79954C51.4109 4.43954 51.9509 5.08954 52.5009 5.62954C53.0509 6.16954 53.6209 6.59954 54.2009 6.83954C54.7809 7.06954 55.4109 7.09954 55.9309 6.94954C56.4509 6.79954 56.8509 6.44954 57.0309 6.02954C57.2209 5.59954 57.2209 5.14954 57.1409 4.80954C56.9609 4.09954 56.4809 3.91954 56.5109 3.90954C56.4809 3.92954 57.0009 3.96954 57.3709 4.72954C57.5309 5.09954 57.6409 5.60954 57.4909 6.18954C57.4109 6.55954 57.1909 6.91954 56.8909 7.21954V7.23954Z" fill="white"/>
<path d="M24.5098 7.23956C24.8598 7.03956 25.1998 6.78956 25.4898 6.50956C26.2498 5.79956 26.7798 4.96956 27.0998 4.66956C27.7298 4.05956 28.7698 3.54956 29.1598 3.92956C29.5398 4.30956 29.1198 5.42956 28.3998 6.11956C28.0998 6.39956 27.3398 6.88956 26.4098 7.24956C27.3298 7.60956 28.0998 8.09956 28.3998 8.37956C29.1198 9.06956 29.5298 10.1896 29.1598 10.5696C28.7698 10.9496 27.7298 10.4396 27.0998 9.83956C26.7798 9.53956 26.2498 8.70956 25.4898 7.98956C25.1998 7.70956 24.8598 7.45956 24.5098 7.24956V7.23956Z" fill="white"/>
<path d="M43.99 7.24003C43.64 7.44003 43.3 7.69003 43.02 7.97003C42.26 8.68003 41.73 9.51003 41.41 9.82003C40.78 10.42 39.74 10.93 39.35 10.55C38.97 10.18 39.39 9.05003 40.11 8.36003C40.41 8.08003 41.17 7.59003 42.1 7.23003C41.18 6.87003 40.41 6.38003 40.11 6.10003C39.39 5.41003 38.97 4.29003 39.35 3.91003C39.74 3.53003 40.78 4.04003 41.41 4.65003C41.73 4.95003 42.25 5.79003 43.02 6.49003C43.31 6.77003 43.65 7.02003 43.99 7.23003V7.24003Z" fill="white"/>
<path d="M36.9807 4.40937C36.6807 3.79937 36.2507 2.75938 35.9707 2.35938C36.2807 2.78938 36.9907 3.44938 37.4507 3.91938C37.9007 4.38938 38.5407 5.12937 38.9607 5.44937C38.5807 5.16937 37.5707 4.71937 36.9807 4.40937Z" fill="white"/>
<path d="M31.521 4.40937C30.931 4.71937 29.921 5.16937 29.541 5.44937C29.961 5.12937 30.601 4.38938 31.051 3.91938C31.501 3.44938 32.221 2.78938 32.531 2.35938C32.251 2.75938 31.821 3.79937 31.521 4.40937Z" fill="white"/>
<path d="M31.521 10.0693C31.821 10.6793 32.251 11.7193 32.531 12.1193C32.221 11.6893 31.511 11.0193 31.051 10.5593C30.601 10.0893 29.961 9.3493 29.541 9.0293C29.921 9.3193 30.931 9.7593 31.521 10.0693Z" fill="white"/>
<path d="M36.9807 10.0693C37.5707 9.7593 38.5807 9.3093 38.9607 9.0293C38.5407 9.3493 37.9007 10.0893 37.4507 10.5593C36.9907 11.0293 36.2807 11.6893 35.9707 12.1193C36.2507 11.7193 36.6807 10.6793 36.9807 10.0693Z" fill="white"/>
<path d="M42.6996 10.5905C42.4896 10.5705 42.3896 10.0105 42.5496 9.57047C42.6196 9.35047 42.9096 8.90047 43.2896 8.54047C43.6596 8.17047 44.0996 7.90047 44.3296 7.73047C44.0696 7.93047 43.7696 8.37047 43.5896 8.80047C43.3996 9.23047 43.3396 9.66047 43.2696 9.84047C43.1396 10.1905 42.9096 10.6105 42.6996 10.5905Z" fill="white"/>
<path d="M25.7999 3.8908C26.0099 3.9108 26.1099 4.4708 25.9499 4.9108C25.8799 5.1308 25.5899 5.5808 25.2099 5.9408C24.8399 6.3108 24.3999 6.5808 24.1699 6.7508C24.4299 6.5508 24.7399 6.1208 24.9099 5.6808C25.0999 5.2508 25.1599 4.8208 25.2199 4.6408C25.3499 4.2908 25.5799 3.8808 25.7899 3.8908H25.7999Z" fill="white"/>
<path d="M42.6996 3.8908C42.4896 3.9108 42.3896 4.4708 42.5496 4.9108C42.6196 5.1308 42.9096 5.5808 43.2896 5.9408C43.6596 6.3108 44.0996 6.5808 44.3296 6.7508C44.0696 6.5508 43.7696 6.1208 43.5896 5.6808C43.3996 5.2508 43.3396 4.8208 43.2696 4.6408C43.1396 4.2908 42.9096 3.8808 42.6996 3.8908Z" fill="white"/>
<path d="M25.7999 10.5905C26.0099 10.5705 26.1099 10.0105 25.9499 9.57047C25.8799 9.35047 25.5899 8.90047 25.2099 8.54047C24.8399 8.17047 24.3999 7.90047 24.1699 7.73047C24.4299 7.93047 24.7399 8.37047 24.9099 8.80047C25.0999 9.23047 25.1599 9.66047 25.2199 9.84047C25.3499 10.1905 25.5799 10.6105 25.7899 10.5905H25.7999Z" fill="white"/>
<path d="M6.58055 63.7285C7.01055 63.7285 7.35055 64.0885 7.35055 64.5285C7.35055 64.9685 7.01055 65.3285 6.58055 65.3285C6.15055 65.3285 5.81055 64.9685 5.81055 64.5285C5.81055 64.0885 6.16055 63.7285 6.58055 63.7285Z" fill="white"/>
<path d="M6.58023 60.9492C7.18023 60.9492 7.67023 61.4592 7.67023 62.0792C7.67023 62.6992 7.18023 63.2092 6.58023 63.2092C5.98023 63.2092 5.49023 62.6992 5.49023 62.0792C5.49023 61.4592 5.98023 60.9492 6.58023 60.9492Z" fill="white"/>
<path d="M6.58055 6.44922C7.01055 6.44922 7.35055 6.80922 7.35055 7.24922C7.35055 7.68922 7.01055 8.04922 6.58055 8.04922C6.15055 8.04922 5.81055 7.68922 5.81055 7.24922C5.81055 6.80922 6.16055 6.44922 6.58055 6.44922Z" fill="white"/>
<path d="M6.58023 8.59961C7.18023 8.59961 7.67023 9.09961 7.67023 9.72961C7.67023 10.3596 7.18023 10.8596 6.58023 10.8596C5.98023 10.8596 5.49023 10.3496 5.49023 9.72961C5.49023 9.10961 5.98023 8.59961 6.58023 8.59961Z" fill="white"/>
<path d="M11.66 35.0496C10.81 34.5396 9.94 33.9596 9.01 33.3896C8.46 32.4296 7.9 31.5296 7.4 30.6496C7.1 30.1296 6.82 29.6096 6.58 29.0996C6.33 29.6196 6.06 30.1396 5.75 30.6496C5.26 31.5296 4.7 32.4396 4.15 33.3896C3.22 33.9596 2.35 34.5396 1.5 35.0496C1 35.3596 0.5 35.6496 0 35.8996C0.5 36.1596 1 36.4396 1.5 36.7596C2.35 37.2696 3.22 37.8496 4.15 38.4196C4.7 39.3796 5.26 40.2796 5.75 41.1596C6.05 41.6796 6.33 42.1996 6.58 42.7096C6.83 42.1896 7.1 41.6696 7.4 41.1596C7.89 40.2796 8.46 39.3696 9.01 38.4196C9.93 37.8496 10.81 37.2696 11.66 36.7596C12.16 36.4496 12.66 36.1596 13.16 35.8996C12.66 35.6496 12.16 35.3596 11.66 35.0496ZM6.58 39.9196C6.14 39.0596 5.66 38.1996 5.21 37.3196C4.37 36.8496 3.54 36.3596 2.7 35.8996C3.53 35.4396 4.36 34.9496 5.21 34.4796C5.66 33.6096 6.14 32.7396 6.58 31.8796C7.02 32.7396 7.5 33.5996 7.95 34.4796C8.79 34.9496 9.62 35.4396 10.46 35.8996C9.63 36.3596 8.8 36.8496 7.95 37.3196C7.5 38.1896 7.02 39.0496 6.58 39.9196Z" fill="white"/>
<path d="M6.58044 12.4492C6.87044 12.1292 7.22044 11.9092 7.57044 11.8292C8.13044 11.6792 8.63044 11.7892 8.98044 11.9492C9.71044 12.3292 9.75044 12.8692 9.77044 12.8392C9.77044 12.8692 9.58044 12.3692 8.90044 12.1892C8.57044 12.1092 8.14044 12.1092 7.72044 12.3092C7.31044 12.4992 6.98044 12.9092 6.84044 13.4492C6.69044 13.9892 6.72044 14.6392 6.94044 15.2392C7.17044 15.8492 7.59044 16.4392 8.11044 17.0092C8.63044 17.5792 9.26044 18.1392 9.88044 18.8192C10.4904 19.4992 11.1204 20.3392 11.4004 21.4092C11.6804 22.4492 11.6004 23.6092 10.9904 24.4792C10.3904 25.3192 9.50044 25.7392 8.63044 25.6792C8.20044 25.6492 7.79044 25.4792 7.48044 25.2292C7.18044 24.9792 6.97044 24.6792 6.84044 24.3692C6.58044 23.7592 6.59044 23.1492 6.74044 22.6792C7.07044 21.7492 7.69044 21.4292 8.02044 21.2692C8.38044 21.1192 8.56044 21.1292 8.56044 21.1292C8.56044 21.1292 8.40044 21.2192 8.15044 21.4792C7.91044 21.7292 7.54044 22.1892 7.48044 22.8592C7.46044 23.1792 7.54044 23.5492 7.75044 23.8592C7.96044 24.1692 8.28044 24.3792 8.66044 24.3492C9.04044 24.3392 9.52044 24.0492 9.78044 23.6192C10.0304 23.2092 10.1104 22.5292 9.92044 21.8292C9.55044 20.3892 8.18044 19.2492 7.13044 17.8692C6.93044 17.6092 6.74044 17.3392 6.57044 17.0492C6.40044 17.3392 6.21044 17.6092 6.01044 17.8692C4.95044 19.2492 3.58044 20.3892 3.21044 21.8292C3.02044 22.5292 3.09044 23.2092 3.35044 23.6192C3.61044 24.0492 4.10044 24.3292 4.47044 24.3492C4.85044 24.3792 5.17044 24.1792 5.38044 23.8592C5.59044 23.5492 5.67044 23.1792 5.65044 22.8592C5.59044 22.1892 5.22044 21.7292 4.98044 21.4792C4.73044 21.2192 4.57044 21.1292 4.57044 21.1292C4.57044 21.1292 4.75044 21.1292 5.11044 21.2692C5.45044 21.4292 6.06044 21.7492 6.39044 22.6792C6.54044 23.1492 6.56044 23.7592 6.30044 24.3692C6.17044 24.6692 5.96044 24.9792 5.66044 25.2292C5.35044 25.4792 4.94044 25.6592 4.51044 25.6792C3.64044 25.7392 2.75044 25.3192 2.15044 24.4792C1.54044 23.6092 1.46044 22.4492 1.74044 21.4092C2.02044 20.3492 2.65044 19.4992 3.26044 18.8192C3.88044 18.1392 4.51044 17.5792 5.03044 17.0092C5.55044 16.4392 5.97044 15.8592 6.20044 15.2392C6.42044 14.6392 6.45044 13.9892 6.30044 13.4492C6.15044 12.9092 5.82044 12.4892 5.41044 12.3092C5.00044 12.1092 4.56044 12.1092 4.23044 12.1892C3.55044 12.3792 3.37044 12.8692 3.36044 12.8392C3.38044 12.8692 3.42044 12.3392 4.15044 11.9492C4.50044 11.7792 5.00044 11.6792 5.57044 11.8292C5.92044 11.9092 6.27044 12.1292 6.56044 12.4492H6.58044Z" fill="white"/>
<path d="M6.57997 59.3585C6.28997 59.6785 5.93997 59.8985 5.58997 59.9885C5.02997 60.1385 4.52997 60.0285 4.16997 59.8585C3.43997 59.4785 3.39997 58.9385 3.37997 58.9685C3.37997 58.9385 3.56997 59.4385 4.24997 59.6185C4.57997 59.6985 5.01997 59.6985 5.42997 59.5085C5.83997 59.3185 6.16997 58.9085 6.31997 58.3685C6.46997 57.8285 6.43997 57.1685 6.21997 56.5785C5.98997 55.9685 5.56997 55.3785 5.04997 54.8085C4.52997 54.2385 3.89997 53.6785 3.27997 52.9985C2.66997 52.3285 2.03997 51.4785 1.75997 50.4085C1.47997 49.3685 1.55997 48.2085 2.16997 47.3385C2.76997 46.5085 3.65997 46.0785 4.52997 46.1385C4.95997 46.1585 5.36997 46.3385 5.67997 46.5885C5.97997 46.8385 6.18997 47.1385 6.31997 47.4485C6.57997 48.0585 6.56997 48.6685 6.40997 49.1285C6.07997 50.0585 5.46997 50.3785 5.12997 50.5385C4.76997 50.6885 4.58997 50.6785 4.58997 50.6785C4.58997 50.6785 4.74997 50.5885 4.99997 50.3285C5.23997 50.0785 5.60997 49.6185 5.66997 48.9485C5.68997 48.6285 5.60997 48.2585 5.39997 47.9485C5.17997 47.6285 4.85997 47.4285 4.48997 47.4585C4.11997 47.4685 3.62997 47.7585 3.36997 48.1785C3.11997 48.5885 3.03997 49.2685 3.22997 49.9685C3.59997 51.4085 4.96997 52.5485 6.02997 53.9185C6.22997 54.1785 6.41997 54.4585 6.58997 54.7385C6.75997 54.4485 6.94997 54.1785 7.14997 53.9185C8.20997 52.5485 9.57997 51.3985 9.93997 49.9685C10.13 49.2585 10.06 48.5885 9.79997 48.1785C9.53997 47.7485 9.05997 47.4685 8.67997 47.4585C8.29997 47.4285 7.97997 47.6285 7.76997 47.9485C7.55997 48.2585 7.47997 48.6285 7.49997 48.9485C7.55997 49.6085 7.92997 50.0785 8.16997 50.3285C8.41997 50.5785 8.57997 50.6785 8.57997 50.6785C8.57997 50.6785 8.39997 50.6785 8.03997 50.5385C7.69997 50.3785 7.08997 50.0585 6.75997 49.1285C6.60997 48.6585 6.58997 48.0485 6.85997 47.4485C6.98997 47.1385 7.19997 46.8385 7.49997 46.5885C7.79997 46.3385 8.20997 46.1585 8.64997 46.1385C9.51997 46.0785 10.41 46.4985 11.01 47.3385C11.61 48.2085 11.7 49.3685 11.42 50.4085C11.14 51.4685 10.51 52.3185 9.89997 52.9985C9.27997 53.6785 8.64997 54.2385 8.12997 54.8085C7.60997 55.3785 7.18997 55.9685 6.95997 56.5785C6.72997 57.1685 6.70997 57.8285 6.85997 58.3685C6.99997 58.9085 7.33997 59.3185 7.73997 59.5085C8.14997 59.7085 8.58997 59.7085 8.91997 59.6185C9.59997 59.4285 9.78997 58.9385 9.78997 58.9685C9.76997 58.9385 9.72997 59.4685 8.99997 59.8585C8.64997 60.0285 8.14997 60.1385 7.58997 59.9885C7.23997 59.8985 6.88997 59.6785 6.59997 59.3585H6.57997Z" fill="white"/>
<path d="M6.59002 25.8086C6.78002 26.1686 7.03002 26.5186 7.30002 26.8186C7.98002 27.6086 8.79002 28.1486 9.08002 28.4786C9.66002 29.1286 10.16 30.2086 9.79002 30.6086C9.43002 30.9986 8.34002 30.5686 7.68002 29.8186C7.41002 29.5086 6.94002 28.7186 6.59002 27.7586C6.25002 28.7186 5.77002 29.5086 5.50002 29.8186C4.83002 30.5586 3.75002 30.9986 3.39002 30.6086C3.02002 30.2086 3.51002 29.1286 4.10002 28.4786C4.39002 28.1486 5.20002 27.5986 5.88002 26.8186C6.15002 26.5186 6.39002 26.1686 6.59002 25.8086Z" fill="white"/>
<path d="M6.5809 46C6.3909 45.64 6.1509 45.29 5.8709 44.99C5.1809 44.2 4.3809 43.66 4.0909 43.33C3.5109 42.68 3.0109 41.6 3.3809 41.2C3.7409 40.81 4.8209 41.24 5.4909 41.98C5.7609 42.28 6.2409 43.08 6.5809 44.04C6.9209 43.08 7.3909 42.29 7.6709 41.98C8.3409 41.24 9.4209 40.8 9.7809 41.2C10.1509 41.6 9.6509 42.68 9.0709 43.33C8.7809 43.66 7.9709 44.2 7.2909 44.99C7.0209 45.29 6.7809 45.64 6.5809 46Z" fill="white"/>
<path d="M9.31078 38.7295C9.90078 38.4195 10.9108 37.9695 11.2908 37.6895C10.8708 38.0095 10.2308 38.7495 9.78078 39.2195C9.33078 39.6895 8.61078 40.3495 8.30078 40.7795C8.57078 40.3795 9.01078 39.3395 9.30078 38.7295H9.31078Z" fill="white"/>
<path d="M9.31055 33.0793C9.01055 32.4693 8.58055 31.4293 8.31055 31.0293C8.62055 31.4593 9.33055 32.1293 9.79055 32.5893C10.2405 33.0593 10.8805 33.7993 11.3005 34.1193C10.9205 33.8393 9.91055 33.3893 9.32055 33.0793H9.31055Z" fill="white"/>
<path d="M3.86086 33.0793C3.27086 33.3893 2.26086 33.8393 1.88086 34.1193C2.30086 33.7993 2.94086 33.0593 3.39086 32.5893C3.84086 32.1193 4.55086 31.4593 4.86086 31.0293C4.59086 31.4293 4.15086 32.4693 3.86086 33.0793Z" fill="white"/>
<path d="M3.86086 38.7295C4.16086 39.3395 4.59086 40.3795 4.86086 40.7795C4.55086 40.3495 3.84086 39.6795 3.39086 39.2195C2.94086 38.7495 2.30086 38.0095 1.88086 37.6895C2.26086 37.9695 3.27086 38.4195 3.86086 38.7295Z" fill="white"/>
<path d="M3.35056 44.659C3.37056 44.439 3.91056 44.329 4.33056 44.499C4.54056 44.579 4.97056 44.869 5.32056 45.259C5.68056 45.649 5.94056 46.109 6.10056 46.329C5.90056 46.059 5.49056 45.739 5.06056 45.559C4.64056 45.369 4.23056 45.299 4.06056 45.229C3.72056 45.089 3.32056 44.859 3.34056 44.639L3.35056 44.659Z" fill="white"/>
<path d="M9.82031 27.1488C9.80031 27.3688 9.26031 27.4788 8.84031 27.3088C8.63031 27.2288 8.20031 26.9288 7.85031 26.5388C7.49031 26.1588 7.23031 25.6988 7.07031 25.4688C7.26031 25.7388 7.68031 26.0588 8.11031 26.2388C8.53031 26.4288 8.94031 26.4988 9.11031 26.5588C9.45031 26.6988 9.85031 26.9288 9.83031 27.1488H9.82031Z" fill="white"/>
<path d="M9.82031 44.659C9.80031 44.439 9.26031 44.329 8.84031 44.499C8.63031 44.579 8.20031 44.869 7.85031 45.259C7.49031 45.649 7.23031 46.109 7.07031 46.329C7.26031 46.059 7.68031 45.739 8.11031 45.559C8.53031 45.369 8.94031 45.299 9.11031 45.229C9.45031 45.089 9.85031 44.859 9.83031 44.639L9.82031 44.659Z" fill="white"/>
<path d="M3.35056 27.1488C3.37056 27.3688 3.91056 27.4788 4.33056 27.3088C4.54056 27.2288 4.97056 26.9288 5.32056 26.5388C5.68056 26.1588 5.94056 25.6988 6.10056 25.4688C5.90056 25.7388 5.49056 26.0588 5.06056 26.2388C4.64056 26.4288 4.23056 26.4988 4.06056 26.5588C3.72056 26.6988 3.32056 26.9288 3.34056 27.1488H3.35056Z" fill="white"/>
<path d="M317.13 6.80977C317.13 6.36977 316.78 6.00977 316.35 6.00977C315.92 6.00977 315.58 6.36977 315.58 6.80977C315.58 7.24977 315.93 7.60977 316.35 7.60977C316.77 7.60977 317.13 7.24977 317.13 6.80977Z" fill="white"/>
<path d="M319.811 6.80969C319.811 6.18969 319.321 5.67969 318.721 5.67969C318.121 5.67969 317.631 6.18969 317.631 6.80969C317.631 7.42969 318.121 7.93969 318.721 7.93969C319.321 7.93969 319.811 7.42969 319.811 6.80969Z" fill="white"/>
<path d="M372.411 6.80977C372.411 6.36977 372.061 6.00977 371.641 6.00977C371.221 6.00977 370.871 6.36977 370.871 6.80977C370.871 7.24977 371.221 7.60977 371.641 7.60977C372.061 7.60977 372.411 7.24977 372.411 6.80977Z" fill="white"/>
<path d="M370.33 6.80969C370.33 6.18969 369.84 5.67969 369.24 5.67969C368.64 5.67969 368.15 6.18969 368.15 6.80969C368.15 7.42969 368.64 7.93969 369.24 7.93969C369.84 7.93969 370.33 7.42969 370.33 6.80969Z" fill="white"/>
<path d="M343.98 0C343.73 0.52 343.46 1.04 343.15 1.56C342.66 2.44 342.09 3.34 341.55 4.3C340.63 4.87 339.75 5.45 338.9 5.96C338.4 6.27 337.9 6.56 337.4 6.81C337.9 7.07 338.4 7.35 338.9 7.66C339.75 8.17 340.62 8.75 341.55 9.32C342.1 10.28 342.66 11.18 343.15 12.06C343.45 12.58 343.73 13.1 343.98 13.61C344.23 13.1 344.5 12.57 344.81 12.06C345.3 11.18 345.86 10.27 346.41 9.32C347.33 8.75 348.21 8.17 349.06 7.66C349.56 7.35 350.06 7.06 350.56 6.81C350.06 6.56 349.56 6.27 349.06 5.96C348.21 5.45 347.34 4.87 346.41 4.3C345.86 3.34 345.3 2.44 344.81 1.56C344.51 1.04 344.23 0.52 343.98 0ZM342.61 5.39C343.06 4.52 343.54 3.66 343.98 2.79C344.42 3.65 344.9 4.51 345.35 5.39C346.19 5.86 347.02 6.35 347.86 6.81C347.03 7.27 346.2 7.76 345.35 8.23C344.9 9.1 344.42 9.96 343.98 10.82C343.54 9.96 343.06 9.1 342.61 8.23C341.77 7.76 340.94 7.27 340.1 6.81C340.93 6.35 341.76 5.86 342.61 5.39Z" fill="white"/>
<path d="M366.611 6.80938C366.921 6.50938 367.131 6.14938 367.211 5.77938C367.361 5.19938 367.251 4.67938 367.091 4.31938C366.721 3.56938 366.201 3.51938 366.241 3.49938C366.211 3.49938 366.691 3.68938 366.871 4.39938C366.951 4.73938 366.951 5.18938 366.761 5.61938C366.581 6.03938 366.181 6.38938 365.661 6.53938C365.141 6.69938 364.511 6.65938 363.931 6.42938C363.341 6.18938 362.771 5.75938 362.231 5.21938C361.681 4.67938 361.141 4.02938 360.481 3.38938C359.831 2.75938 359.011 2.10938 357.981 1.80938C356.981 1.51938 355.861 1.59938 355.011 2.22938C354.211 2.84938 353.801 3.76938 353.851 4.66938C353.881 5.11938 354.051 5.53938 354.291 5.85938C354.531 6.16938 354.821 6.38938 355.121 6.52938C355.711 6.79938 356.301 6.78938 356.751 6.62938C357.651 6.28938 357.961 5.64938 358.111 5.29938C358.261 4.92938 358.251 4.73938 358.251 4.73938C358.251 4.73938 358.161 4.89938 357.911 5.16938C357.671 5.41938 357.221 5.80938 356.581 5.85938C356.281 5.88938 355.921 5.80938 355.621 5.57938C355.311 5.35938 355.121 5.02938 355.151 4.62938C355.161 4.23938 355.441 3.73938 355.851 3.46938C356.251 3.20938 356.901 3.12938 357.581 3.32938C358.971 3.71938 360.071 5.12938 361.401 6.22938C361.651 6.43938 361.921 6.62938 362.191 6.80938C361.911 6.98938 361.651 7.17938 361.401 7.38938C360.071 8.48938 358.971 9.89938 357.581 10.2894C356.901 10.4894 356.251 10.4094 355.851 10.1494C355.431 9.87938 355.161 9.37938 355.151 8.98938C355.121 8.59938 355.321 8.26938 355.621 8.03938C355.921 7.81938 356.281 7.73938 356.581 7.75938C357.221 7.81938 357.671 8.19938 357.911 8.45938C358.161 8.71938 358.251 8.88938 358.251 8.88938C358.251 8.88938 358.251 8.69938 358.111 8.32938C357.961 7.97938 357.651 7.34938 356.751 6.99938C356.301 6.83938 355.711 6.81938 355.121 7.09938C354.831 7.22938 354.531 7.44938 354.291 7.76938C354.051 8.08938 353.881 8.50938 353.851 8.95938C353.791 9.85938 354.201 10.7794 355.011 11.4094C355.861 12.0394 356.971 12.1194 357.981 11.8294C359.001 11.5394 359.831 10.8894 360.481 10.2594C361.141 9.61938 361.681 8.95938 362.231 8.42938C362.781 7.88938 363.341 7.45938 363.931 7.21938C364.511 6.98938 365.141 6.95938 365.661 7.10938C366.181 7.25938 366.581 7.60938 366.761 8.02938C366.951 8.45938 366.951 8.90938 366.871 9.24938C366.691 9.95938 366.211 10.1494 366.241 10.1494C366.211 10.1294 366.731 10.0894 367.091 9.32938C367.251 8.95938 367.361 8.44938 367.211 7.85938C367.131 7.49938 366.921 7.12938 366.611 6.82938V6.80938Z" fill="white"/>
<path d="M321.341 6.80985C321.031 7.10985 320.821 7.47985 320.741 7.83985C320.591 8.42985 320.701 8.93985 320.861 9.30985C321.231 10.0599 321.751 10.1099 321.721 10.1299C321.751 10.1299 321.271 9.93985 321.091 9.22985C321.011 8.88985 321.011 8.43985 321.201 8.00985C321.381 7.58985 321.781 7.23985 322.301 7.08985C322.821 6.92985 323.451 6.96985 324.031 7.19985C324.621 7.43985 325.191 7.86985 325.731 8.40985C326.281 8.94985 326.821 9.59985 327.481 10.2399C328.131 10.8699 328.951 11.5199 329.981 11.8099C330.981 12.0999 332.101 12.0199 332.951 11.3899C333.761 10.7699 334.161 9.84985 334.111 8.93985C334.091 8.48985 333.921 8.06985 333.671 7.74985C333.431 7.43985 333.141 7.21985 332.841 7.07985C332.251 6.80985 331.661 6.81985 331.211 6.97985C330.311 7.31985 330.001 7.95985 329.851 8.30985C329.711 8.68985 329.711 8.86985 329.711 8.86985C329.711 8.86985 329.801 8.70985 330.051 8.43985C330.291 8.18985 330.741 7.79985 331.381 7.73985C331.691 7.71985 332.041 7.79985 332.351 8.01985C332.661 8.23985 332.861 8.57985 332.821 8.96985C332.811 9.35985 332.531 9.85985 332.121 10.1299C331.721 10.3899 331.071 10.4699 330.391 10.2699C329.001 9.88985 327.901 8.46985 326.571 7.36985C326.321 7.15985 326.061 6.96985 325.781 6.78985C326.061 6.61985 326.321 6.41985 326.571 6.20985C327.901 5.10985 329.001 3.69985 330.391 3.30985C331.071 3.10985 331.721 3.18985 332.121 3.44985C332.531 3.71985 332.811 4.21985 332.821 4.60985C332.851 4.99985 332.651 5.33985 332.351 5.55985C332.051 5.77985 331.691 5.85985 331.381 5.83985C330.741 5.78985 330.291 5.39985 330.051 5.14985C329.801 4.88985 329.711 4.71985 329.711 4.71985C329.711 4.71985 329.711 4.90985 329.851 5.27985C330.001 5.62985 330.311 6.26985 331.211 6.60985C331.661 6.76985 332.251 6.77985 332.841 6.50985C333.141 6.36985 333.431 6.15985 333.671 5.83985C333.911 5.51985 334.081 5.09985 334.111 4.64985C334.171 3.74985 333.761 2.82985 332.951 2.20985C332.111 1.57985 330.991 1.49985 329.981 1.78985C328.951 2.08985 328.141 2.72985 327.481 3.36985C326.821 4.00985 326.281 4.65985 325.731 5.19985C325.181 5.73985 324.611 6.16985 324.031 6.40985C323.451 6.63985 322.821 6.66985 322.301 6.51985C321.781 6.36985 321.381 6.01985 321.201 5.59985C321.011 5.16985 321.011 4.71985 321.091 4.37985C321.271 3.66985 321.751 3.48985 321.721 3.47985C321.751 3.49985 321.231 3.53985 320.861 4.29985C320.701 4.66985 320.591 5.17985 320.741 5.75985C320.821 6.12985 321.041 6.48985 321.341 6.78985V6.80985Z" fill="white"/>
<path d="M353.72 6.80987C353.37 6.60987 353.03 6.35987 352.75 6.07987C351.99 5.36987 351.46 4.53987 351.14 4.23987C350.51 3.62987 349.47 3.11987 349.08 3.49987C348.7 3.87987 349.12 4.99987 349.84 5.68987C350.14 5.96987 350.9 6.45987 351.83 6.81987C350.91 7.17987 350.14 7.66987 349.84 7.94987C349.12 8.63987 348.71 9.75987 349.08 10.1399C349.47 10.5199 350.51 10.0099 351.14 9.40987C351.46 9.10987 351.98 8.27987 352.75 7.55987C353.03 7.27987 353.37 7.02987 353.72 6.81987V6.80987Z" fill="white"/>
<path d="M334.24 6.82011C334.59 7.02011 334.93 7.27011 335.22 7.55011C335.98 8.26011 336.5 9.09011 336.83 9.40011C337.46 10.0001 338.5 10.5101 338.89 10.1301C339.27 9.76011 338.85 8.63011 338.14 7.94011C337.85 7.66011 337.08 7.17011 336.15 6.81011C337.07 6.45011 337.84 5.96011 338.14 5.68011C338.86 4.99011 339.27 3.87011 338.89 3.49011C338.51 3.11011 337.46 3.62011 336.83 4.23011C336.51 4.53011 335.98 5.37011 335.22 6.07011C334.93 6.35011 334.59 6.60011 334.24 6.81011V6.82011Z" fill="white"/>
<path d="M341.251 3.98945C341.551 3.37945 341.981 2.33945 342.251 1.93945C341.941 2.36945 341.231 3.02945 340.781 3.49945C340.331 3.96945 339.691 4.70945 339.271 5.02945C339.651 4.74945 340.661 4.29945 341.251 3.98945Z" fill="white"/>
<path d="M346.711 3.98945C347.301 4.29945 348.311 4.74945 348.691 5.02945C348.271 4.70945 347.631 3.96945 347.181 3.49945C346.721 3.02945 346.011 2.36945 345.701 1.93945C345.971 2.33945 346.411 3.37945 346.701 3.98945H346.711Z" fill="white"/>
<path d="M346.711 9.63961C346.411 10.2496 345.981 11.2896 345.711 11.6896C346.021 11.2596 346.731 10.5896 347.191 10.1296C347.641 9.65961 348.281 8.91961 348.701 8.59961C348.321 8.88961 347.311 9.32961 346.721 9.63961H346.711Z" fill="white"/>
<path d="M341.251 9.63961C340.661 9.32961 339.661 8.87961 339.271 8.59961C339.691 8.91961 340.331 9.65961 340.781 10.1296C341.231 10.5996 341.951 11.2596 342.251 11.6896C341.981 11.2896 341.541 10.2496 341.251 9.63961Z" fill="white"/>
<path d="M335.53 10.1608C335.74 10.1408 335.85 9.58078 335.68 9.14078C335.61 8.92078 335.32 8.47078 334.94 8.11078C334.57 7.74078 334.13 7.47078 333.9 7.30078C334.16 7.50078 334.46 7.94078 334.64 8.37078C334.83 8.80078 334.89 9.23078 334.95 9.41078C335.08 9.76078 335.31 10.1808 335.52 10.1608H335.53Z" fill="white"/>
<path d="M352.42 3.45916C352.21 3.47916 352.11 4.03916 352.27 4.47916C352.34 4.69916 352.64 5.14916 353.01 5.50916C353.38 5.87916 353.82 6.14916 354.05 6.31916C353.79 6.11916 353.48 5.68916 353.31 5.24916C353.12 4.81916 353.06 4.38916 353 4.20916C352.87 3.85916 352.64 3.44916 352.43 3.45916H352.42Z" fill="white"/>
<path d="M335.53 3.45916C335.74 3.47916 335.85 4.03916 335.68 4.47916C335.61 4.69916 335.32 5.14916 334.94 5.50916C334.57 5.87916 334.13 6.14916 333.9 6.31916C334.16 6.11916 334.46 5.68916 334.64 5.24916C334.83 4.81916 334.89 4.38916 334.95 4.20916C335.08 3.85916 335.31 3.44916 335.52 3.45916H335.53Z" fill="white"/>
<path d="M352.42 10.1608C352.21 10.1408 352.11 9.58078 352.27 9.14078C352.34 8.92078 352.64 8.47078 353.01 8.11078C353.38 7.74078 353.82 7.47078 354.05 7.30078C353.79 7.50078 353.48 7.94078 353.31 8.37078C353.12 8.80078 353.06 9.23078 353 9.41078C352.87 9.76078 352.64 10.1808 352.43 10.1608H352.42Z" fill="white"/>
<path d="M371.641 63.2988C371.211 63.2988 370.871 63.6588 370.871 64.0988C370.871 64.5388 371.221 64.8988 371.641 64.8988C372.061 64.8988 372.411 64.5388 372.411 64.0988C372.411 63.6588 372.061 63.2988 371.641 63.2988Z" fill="white"/>
<path d="M371.641 60.5195C371.041 60.5195 370.551 61.0295 370.551 61.6495C370.551 62.2695 371.041 62.7795 371.641 62.7795C372.241 62.7795 372.731 62.2695 372.731 61.6495C372.731 61.0295 372.241 60.5195 371.641 60.5195Z" fill="white"/>
<path d="M371.641 6.01953C371.211 6.01953 370.871 6.37953 370.871 6.81953C370.871 7.25953 371.221 7.61953 371.641 7.61953C372.061 7.61953 372.411 7.25953 372.411 6.81953C372.411 6.37953 372.061 6.01953 371.641 6.01953Z" fill="white"/>
<path d="M371.641 8.16992C371.041 8.16992 370.551 8.66992 370.551 9.29992C370.551 9.92992 371.041 10.4299 371.641 10.4299C372.241 10.4299 372.731 9.91992 372.731 9.29992C372.731 8.67992 372.241 8.16992 371.641 8.16992Z" fill="white"/>
<path d="M365.07 35.4797C365.57 35.7397 366.07 36.0197 366.57 36.3397C367.42 36.8497 368.29 37.4297 369.21 37.9997C369.76 38.9597 370.32 39.8597 370.81 40.7397C371.11 41.2597 371.39 41.7797 371.63 42.2897C371.88 41.7697 372.16 41.2497 372.46 40.7397C372.95 39.8597 373.52 38.9497 374.06 37.9997C374.98 37.4297 375.86 36.8497 376.71 36.3397C377.21 36.0297 377.71 35.7397 378.21 35.4797C377.71 35.2297 377.21 34.9397 376.71 34.6297C375.86 34.1197 374.99 33.5397 374.06 32.9697C373.51 32.0097 372.95 31.1097 372.46 30.2297C372.16 29.7097 371.88 29.1897 371.63 28.6797C371.38 29.1997 371.11 29.7197 370.81 30.2297C370.32 31.1097 369.75 32.0197 369.21 32.9697C368.29 33.5397 367.42 34.1197 366.57 34.6297C366.07 34.9397 365.57 35.2297 365.07 35.4797ZM370.27 36.8997C369.43 36.4297 368.6 35.9397 367.76 35.4797C368.59 35.0197 369.42 34.5297 370.27 34.0597C370.72 33.1897 371.2 32.3197 371.64 31.4597C372.08 32.3197 372.56 33.1797 373.01 34.0597C373.85 34.5297 374.68 35.0197 375.51 35.4797C374.68 35.9397 373.85 36.4297 373.01 36.8997C372.56 37.7697 372.08 38.6297 371.64 39.4997C371.2 38.6397 370.72 37.7797 370.27 36.8997Z" fill="white"/>
<path d="M371.64 12.0293C371.35 11.7093 371 11.4893 370.65 11.4093C370.09 11.2593 369.59 11.3693 369.24 11.5293C368.51 11.9093 368.47 12.4493 368.45 12.4193C368.45 12.4493 368.63 11.9493 369.32 11.7693C369.65 11.6893 370.09 11.6893 370.5 11.8893C370.91 12.0793 371.24 12.4893 371.39 13.0293C371.54 13.5693 371.51 14.2193 371.28 14.8193C371.05 15.4293 370.64 16.0193 370.12 16.5893C369.6 17.1593 368.97 17.7193 368.35 18.3993C367.74 19.0793 367.12 19.9193 366.83 20.9893C366.55 22.0293 366.63 23.1893 367.24 24.0593C367.84 24.8993 368.73 25.3193 369.6 25.2593C370.03 25.2293 370.44 25.0593 370.75 24.8093C371.05 24.5593 371.26 24.2593 371.4 23.9493C371.66 23.3393 371.64 22.7293 371.49 22.2593C371.16 21.3293 370.55 21.0093 370.21 20.8493C369.85 20.6993 369.67 20.7093 369.67 20.7093C369.67 20.7093 369.83 20.7993 370.08 21.0593C370.32 21.3093 370.69 21.7693 370.75 22.4393C370.78 22.7593 370.7 23.1293 370.48 23.4393C370.27 23.7493 369.94 23.9593 369.57 23.9293C369.19 23.9193 368.71 23.6293 368.45 23.1993C368.2 22.7893 368.12 22.1093 368.31 21.4093C368.68 19.9693 370.05 18.8293 371.11 17.4493C371.31 17.1893 371.5 16.9193 371.67 16.6293C371.84 16.9193 372.03 17.1893 372.23 17.4493C373.29 18.8293 374.65 19.9693 375.02 21.4093C375.21 22.1093 375.14 22.7893 374.88 23.1993C374.62 23.6293 374.13 23.9093 373.76 23.9293C373.38 23.9593 373.06 23.7593 372.85 23.4393C372.64 23.1293 372.56 22.7593 372.58 22.4393C372.64 21.7693 373.01 21.3093 373.25 21.0593C373.5 20.7993 373.66 20.7093 373.66 20.7093C373.66 20.7093 373.48 20.7093 373.12 20.8493C372.78 21.0093 372.17 21.3293 371.84 22.2593C371.69 22.7293 371.67 23.3393 371.93 23.9493C372.06 24.2493 372.27 24.5593 372.57 24.8093C372.88 25.0593 373.28 25.2393 373.72 25.2593C374.59 25.3193 375.48 24.8993 376.08 24.0593C376.69 23.1893 376.77 22.0293 376.49 20.9893C376.21 19.9293 375.58 19.0793 374.97 18.3993C374.35 17.7193 373.72 17.1593 373.2 16.5893C372.68 16.0193 372.26 15.4393 372.03 14.8193C371.8 14.2193 371.78 13.5693 371.92 13.0293C372.07 12.4893 372.4 12.0693 372.81 11.8893C373.22 11.6893 373.66 11.6893 373.99 11.7693C374.67 11.9593 374.85 12.4493 374.86 12.4193C374.85 12.4493 374.8 11.9193 374.07 11.5293C373.72 11.3593 373.22 11.2593 372.65 11.4093C372.3 11.4893 371.95 11.7093 371.66 12.0293H371.64Z" fill="white"/>
<path d="M371.641 58.9288C371.931 59.2488 372.281 59.4688 372.631 59.5588C373.191 59.7088 373.691 59.5988 374.051 59.4288C374.781 59.0488 374.821 58.5088 374.841 58.5388C374.841 58.5088 374.651 59.0088 373.971 59.1888C373.641 59.2688 373.201 59.2688 372.791 59.0788C372.381 58.8888 372.051 58.4788 371.901 57.9388C371.751 57.3988 371.781 56.7388 372.011 56.1488C372.241 55.5388 372.661 54.9488 373.181 54.3788C373.701 53.8088 374.331 53.2488 374.951 52.5688C375.561 51.8988 376.181 51.0488 376.471 49.9788C376.751 48.9388 376.671 47.7788 376.061 46.9088C375.461 46.0788 374.571 45.6488 373.701 45.7088C373.271 45.7288 372.861 45.9088 372.551 46.1588C372.251 46.4088 372.041 46.7088 371.911 47.0188C371.651 47.6288 371.661 48.2388 371.821 48.6988C372.151 49.6288 372.771 49.9488 373.101 50.1088C373.461 50.2588 373.641 50.2488 373.641 50.2488C373.641 50.2488 373.481 50.1588 373.231 49.8988C372.991 49.6488 372.621 49.1888 372.561 48.5188C372.541 48.1988 372.621 47.8288 372.831 47.5188C373.051 47.1988 373.371 46.9988 373.741 47.0288C374.111 47.0388 374.601 47.3288 374.861 47.7488C375.111 48.1588 375.191 48.8388 375.001 49.5388C374.631 50.9788 373.261 52.1188 372.211 53.4888C372.011 53.7488 371.821 54.0288 371.651 54.3088C371.481 54.0188 371.291 53.7488 371.091 53.4888C370.031 52.1188 368.671 50.9688 368.291 49.5388C368.101 48.8288 368.171 48.1588 368.431 47.7488C368.691 47.3188 369.171 47.0388 369.551 47.0288C369.931 46.9988 370.251 47.1988 370.461 47.5188C370.671 47.8288 370.751 48.1988 370.731 48.5188C370.681 49.1788 370.301 49.6488 370.061 49.8988C369.811 50.1488 369.651 50.2488 369.651 50.2488C369.651 50.2488 369.831 50.2488 370.191 50.1088C370.531 49.9488 371.141 49.6288 371.471 48.6988C371.621 48.2288 371.641 47.6188 371.381 47.0188C371.251 46.7088 371.041 46.4088 370.731 46.1588C370.431 45.9088 370.021 45.7288 369.581 45.7088C368.711 45.6488 367.821 46.0688 367.221 46.9088C366.611 47.7788 366.531 48.9388 366.811 49.9788C367.091 51.0388 367.721 51.8888 368.331 52.5688C368.951 53.2488 369.581 53.8088 370.101 54.3788C370.621 54.9488 371.041 55.5388 371.261 56.1488C371.491 56.7388 371.511 57.3988 371.371 57.9388C371.221 58.4788 370.891 58.8888 370.481 59.0788C370.071 59.2788 369.631 59.2788 369.301 59.1888C368.621 58.9988 368.441 58.5088 368.431 58.5388C368.441 58.5088 368.491 59.0388 369.221 59.4288C369.571 59.5988 370.071 59.7088 370.631 59.5588C370.981 59.4688 371.331 59.2488 371.621 58.9288H371.641Z" fill="white"/>
<path d="M371.639 25.3887C371.439 25.7487 371.2 26.0987 370.93 26.3987C370.25 27.1887 369.44 27.7287 369.15 28.0587C368.57 28.7087 368.069 29.7887 368.439 30.1887C368.799 30.5787 369.88 30.1487 370.55 29.3987C370.82 29.0887 371.289 28.2987 371.639 27.3387C371.979 28.2987 372.459 29.0887 372.729 29.3987C373.399 30.1387 374.479 30.5787 374.839 30.1887C375.209 29.7887 374.709 28.7087 374.129 28.0587C373.839 27.7287 373.029 27.1787 372.349 26.3987C372.079 26.0987 371.839 25.7487 371.639 25.3887Z" fill="white"/>
<path d="M371.651 45.5703C371.841 45.2103 372.091 44.8603 372.361 44.5603C373.041 43.7703 373.851 43.2303 374.141 42.9003C374.721 42.2503 375.211 41.1703 374.851 40.7703C374.491 40.3803 373.411 40.8103 372.741 41.5503C372.471 41.8503 372.001 42.6503 371.651 43.6103C371.311 42.6503 370.831 41.8603 370.561 41.5503C369.891 40.8103 368.811 40.3703 368.451 40.7703C368.081 41.1703 368.581 42.2503 369.161 42.9003C369.451 43.2303 370.261 43.7703 370.941 44.5603C371.211 44.8603 371.451 45.2103 371.661 45.5703H371.651Z" fill="white"/>
<path d="M368.919 38.3095C368.329 37.9995 367.319 37.5495 366.939 37.2695C367.359 37.5895 367.999 38.3295 368.449 38.7995C368.899 39.2695 369.619 39.9295 369.929 40.3595C369.649 39.9595 369.219 38.9195 368.929 38.3095H368.919Z" fill="white"/>
<path d="M368.92 32.6496C369.22 32.0396 369.65 30.9996 369.92 30.5996C369.61 31.0296 368.9 31.6996 368.44 32.1596C367.99 32.6296 367.35 33.3696 366.93 33.6896C367.31 33.4096 368.32 32.9596 368.91 32.6496H368.92Z" fill="white"/>
<path d="M374.371 32.6496C374.961 32.9596 375.961 33.4096 376.351 33.6896C375.931 33.3696 375.291 32.6296 374.841 32.1596C374.391 31.6896 373.671 31.0296 373.371 30.5996C373.651 30.9996 374.081 32.0396 374.381 32.6496H374.371Z" fill="white"/>
<path d="M374.369 38.3095C374.069 38.9195 373.639 39.9595 373.359 40.3595C373.669 39.9295 374.379 39.2595 374.829 38.7995C375.279 38.3295 375.919 37.5895 376.339 37.2695C375.949 37.5495 374.949 37.9995 374.359 38.3095H374.369Z" fill="white"/>
<path d="M374.881 44.2293C374.861 44.0093 374.321 43.8993 373.901 44.0693C373.691 44.1493 373.261 44.4393 372.911 44.8293C372.551 45.2193 372.291 45.6793 372.131 45.8993C372.321 45.6293 372.741 45.3093 373.171 45.1293C373.591 44.9393 374.001 44.8693 374.171 44.7993C374.511 44.6593 374.911 44.4293 374.891 44.2093L374.881 44.2293Z" fill="white"/>
<path d="M368.411 26.7288C368.431 26.9488 368.971 27.0588 369.391 26.8888C369.601 26.8088 370.041 26.5088 370.391 26.1188C370.751 25.7388 371.011 25.2788 371.171 25.0488C370.971 25.3188 370.561 25.6388 370.131 25.8188C369.711 26.0088 369.301 26.0788 369.131 26.1388C368.791 26.2788 368.391 26.5088 368.411 26.7288Z" fill="white"/>
<path d="M368.411 44.2293C368.431 44.0093 368.971 43.8993 369.391 44.0693C369.601 44.1493 370.041 44.4393 370.391 44.8293C370.751 45.2193 371.011 45.6793 371.171 45.8993C370.971 45.6293 370.561 45.3093 370.131 45.1293C369.711 44.9393 369.301 44.8693 369.131 44.7993C368.791 44.6593 368.391 44.4293 368.411 44.2093V44.2293Z" fill="white"/>
<path d="M374.881 26.7288C374.861 26.9488 374.321 27.0588 373.901 26.8888C373.691 26.8088 373.261 26.5088 372.911 26.1188C372.551 25.7388 372.291 25.2788 372.131 25.0488C372.321 25.3188 372.741 25.6388 373.171 25.8188C373.591 26.0088 374.001 26.0788 374.171 26.1388C374.511 26.2788 374.911 26.5088 374.891 26.7288H374.881Z" fill="white"/>
<path d="M61.5605 542.611C61.5605 543.061 61.9105 543.411 62.3305 543.411C62.7505 543.411 63.1005 543.051 63.1005 542.611C63.1005 542.171 62.7505 541.811 62.3305 541.811C61.9105 541.811 61.5605 542.171 61.5605 542.611Z" fill="white"/>
<path d="M58.8809 542.61C58.8809 543.24 59.3709 543.74 59.9709 543.74C60.5709 543.74 61.0609 543.24 61.0609 542.61C61.0609 541.98 60.5709 541.48 59.9709 541.48C59.3709 541.48 58.8809 541.99 58.8809 542.61Z" fill="white"/>
<path d="M6.28125 542.611C6.28125 543.061 6.63125 543.411 7.05125 543.411C7.47125 543.411 7.82125 543.051 7.82125 542.611C7.82125 542.171 7.48125 541.811 7.05125 541.811C6.62125 541.811 6.28125 542.171 6.28125 542.611Z" fill="white"/>
<path d="M8.36133 542.61C8.36133 543.24 8.85133 543.74 9.45133 543.74C10.0513 543.74 10.5413 543.24 10.5413 542.61C10.5413 541.98 10.0513 541.48 9.45133 541.48C8.85133 541.48 8.36133 541.99 8.36133 542.61Z" fill="white"/>
<path d="M34.7106 549.43C34.9606 548.91 35.2306 548.39 35.5406 547.87C36.0306 546.99 36.5906 546.09 37.1406 545.13C38.0606 544.56 38.9306 543.98 39.7906 543.47C40.2906 543.16 40.7906 542.87 41.2906 542.62C40.7906 542.36 40.2906 542.08 39.7906 541.77C38.9406 541.26 38.0606 540.68 37.1406 540.11C36.5906 539.15 36.0306 538.25 35.5406 537.37C35.2406 536.85 34.9606 536.33 34.7106 535.82C34.4706 536.34 34.1906 536.85 33.8906 537.37C33.4006 538.25 32.8306 539.15 32.2906 540.11C31.3706 540.68 30.4906 541.26 29.6406 541.77C29.1406 542.08 28.6406 542.37 28.1406 542.62C28.6406 542.88 29.1406 543.16 29.6406 543.47C30.4906 543.98 31.3606 544.56 32.2906 545.13C32.8406 546.09 33.4006 546.99 33.8906 547.87C34.1906 548.39 34.4706 548.91 34.7106 549.43ZM36.0806 544.03C35.6306 544.9 35.1506 545.76 34.7106 546.62C34.2706 545.76 33.7906 544.9 33.3406 544.03C32.5006 543.56 31.6706 543.07 30.8406 542.61C31.6706 542.15 32.5006 541.66 33.3406 541.19C33.7906 540.32 34.2706 539.46 34.7106 538.59C35.1606 539.45 35.6306 540.31 36.0806 541.19C36.9206 541.66 37.7506 542.15 38.5906 542.61C37.7606 543.07 36.9306 543.56 36.0806 544.03Z" fill="white"/>
<path d="M12.0813 542.61C11.7713 542.91 11.5613 543.28 11.4813 543.64C11.3313 544.22 11.4413 544.74 11.6013 545.11C11.9713 545.86 12.4913 545.91 12.4513 545.93C12.4813 545.93 12.0013 545.74 11.8213 545.03C11.7413 544.69 11.7413 544.24 11.9313 543.81C12.1113 543.39 12.5113 543.04 13.0313 542.89C13.5513 542.73 14.1813 542.76 14.7613 543C15.3513 543.24 15.9213 543.67 16.4613 544.21C17.0113 544.75 17.5513 545.4 18.2113 546.04C18.8613 546.67 19.6813 547.32 20.7113 547.62C21.7113 547.91 22.8313 547.83 23.6813 547.2C24.4913 546.58 24.8913 545.65 24.8413 544.75C24.8113 544.3 24.6413 543.88 24.4013 543.56C24.1613 543.25 23.8713 543.03 23.5713 542.89C22.9813 542.62 22.3913 542.63 21.9413 542.79C21.0413 543.13 20.7313 543.77 20.5813 544.12C20.4313 544.49 20.4413 544.68 20.4413 544.68C20.4413 544.68 20.5313 544.52 20.7813 544.25C21.0213 544 21.4713 543.61 22.1113 543.56C22.4213 543.54 22.7713 543.62 23.0813 543.84C23.3813 544.06 23.5813 544.4 23.5513 544.79C23.5413 545.18 23.2713 545.68 22.8513 545.95C22.4513 546.21 21.8013 546.29 21.1213 546.09C19.7313 545.7 18.6313 544.29 17.3013 543.19C17.0513 542.98 16.7813 542.79 16.5113 542.61C16.7813 542.44 17.0513 542.24 17.3013 542.03C18.6313 540.93 19.7313 539.52 21.1213 539.13C21.8013 538.93 22.4513 539.01 22.8513 539.27C23.2713 539.54 23.5413 540.04 23.5513 540.43C23.5813 540.82 23.3813 541.15 23.0813 541.38C22.7813 541.6 22.4213 541.68 22.1113 541.66C21.4713 541.6 21.0213 541.22 20.7813 540.97C20.5313 540.71 20.4413 540.54 20.4413 540.54C20.4413 540.54 20.4413 540.73 20.5813 541.1C20.7313 541.45 21.0413 542.08 21.9413 542.43C22.3913 542.59 22.9813 542.6 23.5713 542.33C23.8613 542.19 24.1613 541.98 24.4013 541.66C24.6413 541.34 24.8113 540.92 24.8413 540.47C24.9013 539.57 24.4913 538.64 23.6813 538.02C22.8313 537.39 21.7113 537.31 20.7113 537.6C19.6913 537.89 18.8613 538.54 18.2113 539.17C17.5513 539.81 17.0113 540.47 16.4613 541C15.9113 541.54 15.3513 541.97 14.7613 542.21C14.1813 542.44 13.5513 542.47 13.0313 542.32C12.5113 542.17 12.1113 541.82 11.9313 541.4C11.7413 540.97 11.7413 540.52 11.8213 540.18C12.0013 539.47 12.4813 539.28 12.4513 539.28C12.4813 539.3 11.9613 539.34 11.6013 540.1C11.4413 540.47 11.3313 540.98 11.4813 541.57C11.5613 541.93 11.7713 542.3 12.0813 542.6V542.61Z" fill="white"/>
<path d="M57.3518 542.61C57.6618 542.31 57.8718 541.95 57.9518 541.58C58.0918 540.99 57.9918 540.48 57.8318 540.11C57.4618 539.36 56.9418 539.31 56.9718 539.29C56.9418 539.29 57.4218 539.48 57.6018 540.19C57.6818 540.53 57.6818 540.98 57.4918 541.41C57.3118 541.83 56.9118 542.18 56.3918 542.33C55.8718 542.48 55.2418 542.45 54.6618 542.22C54.0718 541.99 53.5118 541.55 52.9618 541.01C52.4118 540.48 51.8718 539.82 51.2118 539.18C50.5618 538.55 49.7418 537.9 48.7118 537.61C47.7118 537.32 46.5918 537.4 45.7418 538.03C44.9318 538.65 44.5318 539.58 44.5918 540.48C44.6118 540.93 44.7818 541.35 45.0218 541.67C45.2618 541.98 45.5518 542.2 45.8518 542.34C46.4318 542.61 47.0218 542.59 47.4718 542.44C48.3718 542.1 48.6818 541.46 48.8318 541.11C48.9818 540.74 48.9718 540.55 48.9718 540.55C48.9718 540.55 48.8818 540.71 48.6318 540.98C48.3918 541.23 47.9418 541.61 47.3018 541.67C46.9918 541.69 46.6418 541.61 46.3318 541.39C46.0318 541.17 45.8318 540.83 45.8618 540.44C45.8718 540.05 46.1418 539.55 46.5618 539.28C46.9618 539.02 47.6118 538.94 48.2918 539.14C49.6818 539.52 50.7818 540.94 52.1118 542.04C52.3618 542.25 52.6318 542.44 52.9018 542.62C52.6218 542.8 52.3618 542.99 52.1118 543.2C50.7818 544.3 49.6818 545.71 48.2918 546.1C47.6118 546.3 46.9618 546.22 46.5618 545.96C46.1418 545.69 45.8718 545.19 45.8618 544.8C45.8318 544.41 46.0318 544.07 46.3318 543.85C46.6318 543.63 46.9918 543.55 47.3018 543.57C47.9418 543.63 48.3918 544.01 48.6318 544.26C48.8718 544.52 48.9718 544.69 48.9718 544.69C48.9718 544.69 48.9718 544.5 48.8318 544.13C48.6818 543.78 48.3718 543.14 47.4718 542.8C47.0218 542.64 46.4318 542.62 45.8518 542.9C45.5518 543.04 45.2618 543.25 45.0218 543.57C44.7818 543.89 44.6118 544.31 44.5918 544.76C44.5318 545.66 44.9418 546.58 45.7418 547.21C46.5918 547.84 47.7018 547.92 48.7118 547.63C49.7318 547.33 50.5618 546.69 51.2118 546.05C51.8718 545.41 52.4118 544.76 52.9618 544.22C53.5118 543.68 54.0818 543.25 54.6618 543.01C55.2418 542.78 55.8718 542.75 56.3918 542.9C56.9118 543.05 57.3118 543.4 57.4918 543.82C57.6818 544.25 57.6818 544.7 57.6018 545.04C57.4218 545.75 56.9418 545.94 56.9718 545.94C56.9418 545.92 57.4618 545.88 57.8318 545.12C57.9918 544.75 58.1018 544.24 57.9518 543.65C57.8718 543.29 57.6518 542.92 57.3518 542.62V542.61Z" fill="white"/>
<path d="M24.9707 542.621C25.3207 542.821 25.6607 543.071 25.9507 543.351C26.7107 544.061 27.2407 544.891 27.5607 545.191C28.1907 545.791 29.2307 546.311 29.6207 545.931C30.0007 545.551 29.5807 544.431 28.8607 543.741C28.5607 543.461 27.8007 542.971 26.8707 542.611C27.7907 542.251 28.5607 541.771 28.8607 541.481C29.5807 540.791 29.9907 539.671 29.6207 539.291C29.2307 538.911 28.1907 539.421 27.5607 540.021C27.2407 540.321 26.7107 541.161 25.9507 541.871C25.6607 542.151 25.3207 542.411 24.9707 542.611V542.621Z" fill="white"/>
<path d="M44.4509 542.611C44.1009 542.411 43.7609 542.161 43.4809 541.881C42.7209 541.171 42.1909 540.341 41.8709 540.031C41.2409 539.431 40.2009 538.921 39.8109 539.301C39.4309 539.671 39.8509 540.791 40.5709 541.491C40.8709 541.771 41.6309 542.261 42.5609 542.621C41.6409 542.981 40.8709 543.471 40.5709 543.751C39.8509 544.441 39.4309 545.561 39.8109 545.941C40.2009 546.321 41.2409 545.811 41.8709 545.201C42.1909 544.901 42.7109 544.061 43.4809 543.361C43.7709 543.081 44.1109 542.831 44.4509 542.621V542.611Z" fill="white"/>
<path d="M37.4416 545.44C37.1416 546.05 36.7116 547.09 36.4316 547.49C36.7416 547.06 37.4516 546.4 37.9116 545.93C38.3616 545.46 39.0016 544.72 39.4216 544.4C39.0416 544.68 38.0316 545.13 37.4416 545.44Z" fill="white"/>
<path d="M31.982 545.44C31.392 545.13 30.382 544.68 30.002 544.4C30.422 544.72 31.062 545.46 31.512 545.93C31.962 546.4 32.682 547.06 32.992 547.49C32.712 547.09 32.282 546.05 31.982 545.44Z" fill="white"/>
<path d="M31.982 539.781C32.282 539.171 32.712 538.13 32.992 537.73C32.682 538.16 31.972 538.83 31.512 539.29C31.062 539.76 30.422 540.5 30.002 540.82C30.382 540.54 31.392 540.091 31.982 539.781Z" fill="white"/>
<path d="M37.4416 539.781C38.0316 540.091 39.0416 540.54 39.4216 540.82C39.0016 540.5 38.3616 539.76 37.9116 539.29C37.4516 538.82 36.7416 538.16 36.4316 537.73C36.7116 538.13 37.1416 539.171 37.4416 539.781Z" fill="white"/>
<path d="M43.1606 539.26C42.9506 539.28 42.8506 539.84 43.0106 540.28C43.0806 540.5 43.3706 540.95 43.7506 541.31C44.1206 541.68 44.5606 541.96 44.7906 542.12C44.5306 541.92 44.2306 541.48 44.0506 541.04C43.8606 540.6 43.8006 540.18 43.7306 540C43.6006 539.65 43.3706 539.24 43.1606 539.25V539.26Z" fill="white"/>
<path d="M26.2609 545.96C26.4709 545.94 26.5709 545.38 26.4109 544.94C26.3409 544.72 26.0509 544.27 25.6709 543.91C25.3009 543.54 24.8609 543.27 24.6309 543.1C24.8909 543.3 25.2009 543.74 25.3709 544.18C25.5609 544.61 25.6209 545.04 25.6809 545.22C25.8109 545.57 26.0409 545.99 26.2509 545.97L26.2609 545.96Z" fill="white"/>
<path d="M43.1606 545.96C42.9506 545.94 42.8506 545.38 43.0106 544.94C43.0806 544.72 43.3706 544.27 43.7506 543.91C44.1206 543.54 44.5606 543.27 44.7906 543.1C44.5306 543.3 44.2306 543.74 44.0506 544.18C43.8606 544.61 43.8006 545.04 43.7306 545.22C43.6006 545.57 43.3706 545.99 43.1606 545.97V545.96Z" fill="white"/>
<path d="M26.2609 539.26C26.4709 539.28 26.5709 539.84 26.4109 540.28C26.3409 540.5 26.0509 540.95 25.6709 541.31C25.3009 541.68 24.8609 541.96 24.6309 542.12C24.8909 541.92 25.2009 541.48 25.3709 541.04C25.5609 540.6 25.6209 540.18 25.6809 540C25.8109 539.65 26.0409 539.24 26.2509 539.25L26.2609 539.26Z" fill="white"/>
<path d="M7.05125 486.12C7.48125 486.12 7.82125 485.76 7.82125 485.32C7.82125 484.88 7.48125 484.52 7.05125 484.52C6.62125 484.52 6.28125 484.88 6.28125 485.32C6.28125 485.76 6.63125 486.12 7.05125 486.12Z" fill="white"/>
<path d="M7.05094 488.899C7.65094 488.899 8.14094 488.389 8.14094 487.769C8.14094 487.149 7.65094 486.639 7.05094 486.639C6.45094 486.639 5.96094 487.139 5.96094 487.769C5.96094 488.399 6.45094 488.899 7.05094 488.899Z" fill="white"/>
<path d="M7.05125 543.401C7.48125 543.401 7.82125 543.041 7.82125 542.601C7.82125 542.161 7.48125 541.801 7.05125 541.801C6.62125 541.801 6.28125 542.161 6.28125 542.601C6.28125 543.041 6.63125 543.401 7.05125 543.401Z" fill="white"/>
<path d="M7.05094 541.25C7.65094 541.25 8.14094 540.75 8.14094 540.12C8.14094 539.49 7.65094 538.99 7.05094 538.99C6.45094 538.99 5.96094 539.5 5.96094 540.12C5.96094 540.74 6.45094 541.25 7.05094 541.25Z" fill="white"/>
<path d="M13.6209 513.951C13.1209 513.691 12.6209 513.411 12.1209 513.091C11.2709 512.581 10.4009 512.001 9.47094 511.431C8.92094 510.471 8.36094 509.571 7.86094 508.691C7.56094 508.171 7.28094 507.661 7.04094 507.141C6.79094 507.661 6.52094 508.181 6.21094 508.691C5.72094 509.571 5.16094 510.481 4.61094 511.431C3.68094 512.001 2.81094 512.581 1.96094 513.091C1.46094 513.401 0.960938 513.691 0.460938 513.951C0.960938 514.201 1.46094 514.491 1.96094 514.801C2.81094 515.311 3.68094 515.891 4.61094 516.461C5.16094 517.421 5.72094 518.321 6.21094 519.201C6.51094 519.721 6.79094 520.241 7.04094 520.761C7.29094 520.241 7.56094 519.721 7.86094 519.201C8.35094 518.321 8.92094 517.421 9.47094 516.461C10.3909 515.891 11.2709 515.311 12.1209 514.801C12.6209 514.491 13.1209 514.201 13.6209 513.951ZM8.42094 512.531C9.26094 513.001 10.0909 513.491 10.9309 513.951C10.1009 514.411 9.27094 514.901 8.42094 515.371C7.97094 516.241 7.49094 517.111 7.05094 517.971C6.61094 517.111 6.13094 516.251 5.68094 515.371C4.84094 514.901 4.01094 514.411 3.17094 513.951C4.00094 513.491 4.83094 513.001 5.68094 512.531C6.13094 511.661 6.61094 510.801 7.05094 509.931C7.49094 510.791 7.97094 511.651 8.42094 512.531Z" fill="white"/>
<path d="M7.05114 537.4C7.34114 537.72 7.69114 537.94 8.04114 538.02C8.60114 538.17 9.10114 538.07 9.45114 537.9C10.1811 537.52 10.2211 536.98 10.2411 537.01C10.2411 536.98 10.0511 537.48 9.37114 537.66C9.04114 537.74 8.61114 537.74 8.19114 537.54C7.78114 537.35 7.45114 536.94 7.31114 536.4C7.16114 535.86 7.19114 535.21 7.41114 534.61C7.64114 534 8.06114 533.41 8.58114 532.85C9.10114 532.28 9.73114 531.72 10.3511 531.04C10.9611 530.37 11.5911 529.51 11.8711 528.45C12.1511 527.41 12.0711 526.25 11.4611 525.37C10.8611 524.54 9.97114 524.11 9.10114 524.17C8.67114 524.2 8.26114 524.37 7.95114 524.62C7.65114 524.87 7.44114 525.17 7.31114 525.48C7.05114 526.09 7.06114 526.7 7.21114 527.17C7.54114 528.1 8.16114 528.42 8.49114 528.58C8.85114 528.73 9.03114 528.72 9.03114 528.72C9.03114 528.72 8.87114 528.63 8.62114 528.37C8.38114 528.12 8.01114 527.66 7.95114 526.99C7.93114 526.67 8.01114 526.3 8.22114 525.99C8.43114 525.68 8.75114 525.47 9.13114 525.5C9.51114 525.52 9.99114 525.79 10.2511 526.23C10.5011 526.64 10.5811 527.32 10.3911 528.02C10.0211 529.46 8.65114 530.6 7.60114 531.98C7.40114 532.24 7.21114 532.51 7.04114 532.8C6.87114 532.51 6.68114 532.24 6.48114 531.98C5.42114 530.61 4.05114 529.46 3.68114 528.02C3.49114 527.31 3.56114 526.64 3.82114 526.23C4.08114 525.8 4.57114 525.52 4.94114 525.5C5.32114 525.47 5.64114 525.67 5.85114 525.99C6.06114 526.3 6.14114 526.67 6.12114 526.99C6.06114 527.66 5.69114 528.12 5.45114 528.37C5.20114 528.63 5.04114 528.72 5.04114 528.72C5.04114 528.72 5.22114 528.72 5.58114 528.58C5.92114 528.42 6.53114 528.1 6.86114 527.17C7.01114 526.7 7.03114 526.09 6.77114 525.48C6.64114 525.18 6.43114 524.87 6.13114 524.62C5.82114 524.37 5.41114 524.19 4.98114 524.17C4.11114 524.11 3.22114 524.54 2.62114 525.37C2.01114 526.25 1.93114 527.4 2.21114 528.45C2.49114 529.51 3.12114 530.36 3.73114 531.04C4.35114 531.72 4.98114 532.28 5.50114 532.85C6.02114 533.42 6.44114 534 6.67114 534.61C6.89114 535.21 6.92114 535.86 6.77114 536.4C6.62114 536.94 6.29114 537.36 5.88114 537.54C5.47114 537.74 5.03114 537.74 4.70114 537.66C4.02114 537.47 3.84114 536.98 3.83114 537.01C3.85114 536.98 3.89114 537.51 4.62114 537.9C4.97114 538.07 5.47114 538.17 6.04114 538.02C6.39114 537.94 6.74114 537.71 7.03114 537.4H7.05114Z" fill="white"/>
<path d="M7.05067 490.49C6.76067 490.17 6.41068 489.95 6.06068 489.86C5.50068 489.71 5.00068 489.82 4.64068 489.99C3.91068 490.37 3.87067 490.91 3.85067 490.88C3.85067 490.91 4.04067 490.41 4.72067 490.23C5.05067 490.15 5.49067 490.15 5.90067 490.35C6.31067 490.53 6.64068 490.95 6.79068 491.49C6.94068 492.03 6.91067 492.69 6.69067 493.28C6.46067 493.89 6.04068 494.48 5.52068 495.05C5.00068 495.62 4.37068 496.18 3.75067 496.86C3.14067 497.53 2.51068 498.38 2.23068 499.45C1.95068 500.49 2.03068 501.65 2.64068 502.52C3.24068 503.35 4.13067 503.78 5.00067 503.72C5.43067 503.69 5.84067 503.52 6.15067 503.27C6.45068 503.02 6.66068 502.72 6.79068 502.41C7.05068 501.8 7.04067 501.19 6.88067 500.73C6.55067 499.8 5.94068 499.48 5.60068 499.32C5.24067 499.17 5.06068 499.18 5.06068 499.18C5.06068 499.18 5.22067 499.27 5.47067 499.53C5.71068 499.78 6.08068 500.24 6.14068 500.91C6.16068 501.23 6.08068 501.6 5.87068 501.91C5.65068 502.23 5.33067 502.43 4.96067 502.4C4.59067 502.39 4.10067 502.1 3.84067 501.68C3.59067 501.27 3.51067 500.59 3.70068 499.89C4.07068 498.45 5.44067 497.31 6.50067 495.94C6.70067 495.68 6.89068 495.4 7.06068 495.12C7.23068 495.4 7.42068 495.68 7.62068 495.94C8.68068 497.31 10.0507 498.46 10.4107 499.89C10.6007 500.6 10.5307 501.27 10.2707 501.68C10.0107 502.11 9.53068 502.39 9.15068 502.4C8.77068 502.43 8.45067 502.23 8.24067 501.91C8.03067 501.6 7.95068 501.23 7.97067 500.91C8.03067 500.25 8.40068 499.78 8.64068 499.53C8.89068 499.27 9.05067 499.18 9.05067 499.18C9.05067 499.18 8.87068 499.18 8.51067 499.32C8.17067 499.48 7.56067 499.8 7.23067 500.73C7.08067 501.2 7.06068 501.81 7.33068 502.41C7.46068 502.72 7.67067 503.02 7.97067 503.27C8.27068 503.52 8.68067 503.7 9.12067 503.72C9.99067 503.78 10.8807 503.36 11.4807 502.52C12.0807 501.64 12.1707 500.49 11.8907 499.45C11.6107 498.39 10.9807 497.54 10.3707 496.86C9.75068 496.18 9.12068 495.62 8.60068 495.05C8.08068 494.48 7.66068 493.89 7.43068 493.28C7.20068 492.68 7.18068 492.02 7.33068 491.49C7.47067 490.95 7.81067 490.53 8.21067 490.35C8.62067 490.15 9.06068 490.15 9.39068 490.23C10.0707 490.42 10.2607 490.91 10.2607 490.88C10.2407 490.91 10.2007 490.37 9.47067 489.99C9.12068 489.82 8.62068 489.71 8.06068 489.86C7.71068 489.95 7.36067 490.17 7.07067 490.49H7.05067Z" fill="white"/>
<path d="M7.05096 524.04C7.24096 523.68 7.49096 523.33 7.76096 523.03C8.44096 522.24 9.25096 521.7 9.54096 521.37C10.121 520.72 10.621 519.64 10.251 519.24C9.89096 518.85 8.80096 519.28 8.14096 520.03C7.87096 520.34 7.40096 521.13 7.05096 522.09C6.71096 521.13 6.23096 520.34 5.96096 520.03C5.29096 519.29 4.21096 518.85 3.85096 519.24C3.48096 519.64 3.97096 520.72 4.56096 521.37C4.85096 521.7 5.66096 522.24 6.34096 523.03C6.61096 523.33 6.85096 523.68 7.05096 524.04Z" fill="white"/>
<path d="M7.04183 503.85C6.85183 504.21 6.61183 504.56 6.33183 504.86C5.64183 505.65 4.84183 506.19 4.55183 506.53C3.97183 507.18 3.47183 508.26 3.84183 508.66C4.20183 509.05 5.28183 508.62 5.95183 507.88C6.22183 507.57 6.70183 506.78 7.04183 505.82C7.38183 506.78 7.85183 507.57 8.13183 507.88C8.80183 508.62 9.88183 509.06 10.2418 508.66C10.6118 508.26 10.1118 507.18 9.53183 506.53C9.24183 506.2 8.43183 505.65 7.75183 504.86C7.48183 504.56 7.24183 504.21 7.04183 503.85Z" fill="white"/>
<path d="M9.77172 511.12C10.3617 511.43 11.3717 511.88 11.7517 512.16C11.3317 511.84 10.6917 511.1 10.2417 510.63C9.79172 510.16 9.07172 509.5 8.76172 509.07C9.03172 509.47 9.47172 510.51 9.76172 511.12H9.77172Z" fill="white"/>
<path d="M9.77148 516.78C9.47148 517.39 9.04148 518.43 8.77148 518.83C9.08148 518.4 9.79148 517.73 10.2515 517.27C10.7015 516.8 11.3415 516.06 11.7615 515.74C11.3815 516.03 10.3715 516.47 9.78148 516.78H9.77148Z" fill="white"/>
<path d="M4.3218 516.78C3.7318 516.47 2.7218 516.02 2.3418 515.74C2.7618 516.06 3.4018 516.8 3.8518 517.27C4.3018 517.74 5.0118 518.4 5.3218 518.83C5.0518 518.43 4.6118 517.39 4.3218 516.78Z" fill="white"/>
<path d="M4.3218 511.12C4.6218 510.51 5.0518 509.47 5.3218 509.07C5.0118 509.5 4.3018 510.16 3.8518 510.63C3.4018 511.1 2.7618 511.84 2.3418 512.16C2.7218 511.88 3.7318 511.42 4.3218 511.12Z" fill="white"/>
<path d="M3.8115 505.19C3.8315 505.41 4.3715 505.52 4.7915 505.35C5.0015 505.27 5.4315 504.97 5.7815 504.58C6.1415 504.2 6.4015 503.74 6.5615 503.51C6.3615 503.78 5.9515 504.09 5.5215 504.28C5.1015 504.48 4.6915 504.54 4.5215 504.61C4.1815 504.75 3.7815 504.98 3.8015 505.2L3.8115 505.19Z" fill="white"/>
<path d="M10.2813 522.7C10.2613 522.48 9.72125 522.37 9.30125 522.54C9.09125 522.62 8.66125 522.92 8.31125 523.31C7.95125 523.7 7.69125 524.15 7.53125 524.39C7.72125 524.12 8.14125 523.8 8.57125 523.62C8.99125 523.43 9.40125 523.36 9.57125 523.29C9.91125 523.15 10.3112 522.92 10.2912 522.7H10.2813Z" fill="white"/>
<path d="M10.2813 505.19C10.2613 505.41 9.72125 505.52 9.30125 505.35C9.09125 505.27 8.66125 504.97 8.31125 504.58C7.95125 504.2 7.69125 503.74 7.53125 503.51C7.72125 503.78 8.14125 504.09 8.57125 504.28C8.99125 504.48 9.40125 504.54 9.57125 504.61C9.91125 504.75 10.3112 504.98 10.2912 505.2L10.2813 505.19Z" fill="white"/>
<path d="M3.8115 522.7C3.8315 522.48 4.3715 522.37 4.7915 522.54C5.0015 522.62 5.4315 522.92 5.7815 523.31C6.1415 523.7 6.4015 524.15 6.5615 524.39C6.3615 524.12 5.9515 523.8 5.5215 523.62C5.1015 523.43 4.6915 523.36 4.5215 523.29C4.1815 523.15 3.7815 522.92 3.8015 522.7H3.8115Z" fill="white"/>
<path d="M316.339 540.902C316.339 541.352 315.989 541.702 315.559 541.702C315.129 541.702 314.789 541.342 314.789 540.902C314.789 540.462 315.139 540.102 315.559 540.102C315.979 540.102 316.339 540.462 316.339 540.902Z" fill="white"/>
<path d="M319.03 540.901C319.03 541.531 318.54 542.031 317.94 542.031C317.34 542.031 316.85 541.531 316.85 540.901C316.85 540.271 317.34 539.771 317.94 539.771C318.54 539.771 319.03 540.281 319.03 540.901Z" fill="white"/>
<path d="M371.63 540.902C371.63 541.352 371.28 541.702 370.86 541.702C370.44 541.702 370.09 541.342 370.09 540.902C370.09 540.462 370.44 540.102 370.86 540.102C371.28 540.102 371.63 540.462 371.63 540.902Z" fill="white"/>
<path d="M369.549 540.901C369.549 541.531 369.059 542.031 368.459 542.031C367.859 542.031 367.369 541.531 367.369 540.901C367.369 540.271 367.859 539.771 368.459 539.771C369.059 539.771 369.549 540.281 369.549 540.901Z" fill="white"/>
<path d="M344.019 546.161C344.509 545.281 345.069 544.381 345.619 543.421C346.539 542.851 347.419 542.271 348.269 541.761C348.769 541.451 349.269 541.161 349.769 540.911C349.269 540.651 348.769 540.371 348.269 540.061C347.419 539.551 346.549 538.971 345.619 538.401C345.069 537.441 344.509 536.541 344.019 535.661C343.719 535.141 343.439 534.621 343.189 534.111C342.939 534.631 342.669 535.141 342.359 535.661C341.869 536.541 341.299 537.441 340.759 538.401C339.839 538.971 338.959 539.551 338.109 540.061C337.609 540.371 337.109 540.661 336.609 540.911C337.109 541.171 337.609 541.451 338.109 541.761C338.959 542.271 339.829 542.851 340.759 543.421C341.309 544.381 341.869 545.281 342.359 546.161C342.659 546.681 342.939 547.201 343.189 547.721C343.439 547.201 343.709 546.681 344.019 546.161ZM339.319 540.901C340.149 540.441 340.979 539.951 341.829 539.481C342.279 538.611 342.759 537.751 343.199 536.881C343.639 537.741 344.119 538.601 344.569 539.481C345.409 539.951 346.239 540.441 347.079 540.901C346.249 541.361 345.419 541.851 344.569 542.321C344.119 543.191 343.639 544.051 343.199 544.911C342.759 544.051 342.279 543.191 341.829 542.321C340.989 541.851 340.159 541.361 339.319 540.901Z" fill="white"/>
<path d="M365.83 540.901C366.14 541.201 366.35 541.571 366.43 541.931C366.58 542.511 366.47 543.031 366.31 543.401C365.94 544.151 365.42 544.201 365.46 544.221C365.43 544.221 365.91 544.031 366.09 543.321C366.17 542.981 366.17 542.531 365.98 542.101C365.8 541.681 365.4 541.331 364.88 541.181C364.36 541.021 363.73 541.051 363.15 541.291C362.56 541.531 361.99 541.961 361.45 542.501C360.9 543.041 360.36 543.691 359.7 544.331C359.05 544.961 358.23 545.611 357.2 545.911C356.2 546.201 355.08 546.121 354.23 545.491C353.43 544.871 353.02 543.941 353.07 543.041C353.1 542.591 353.27 542.171 353.51 541.851C353.75 541.541 354.04 541.321 354.34 541.181C354.93 540.911 355.52 540.921 355.97 541.081C356.87 541.421 357.18 542.061 357.33 542.411C357.48 542.781 357.47 542.971 357.47 542.971C357.47 542.971 357.38 542.811 357.13 542.541C356.89 542.291 356.44 541.901 355.8 541.851C355.5 541.831 355.14 541.911 354.84 542.131C354.53 542.351 354.34 542.691 354.37 543.081C354.38 543.471 354.66 543.971 355.07 544.241C355.47 544.501 356.12 544.581 356.8 544.381C358.19 543.991 359.29 542.581 360.62 541.481C360.87 541.271 361.14 541.081 361.41 540.901C361.13 540.731 360.87 540.531 360.62 540.321C359.29 539.221 358.19 537.811 356.8 537.421C356.12 537.221 355.47 537.301 355.07 537.561C354.65 537.831 354.38 538.331 354.37 538.721C354.34 539.111 354.54 539.441 354.84 539.671C355.14 539.891 355.5 539.971 355.8 539.951C356.44 539.891 356.89 539.511 357.13 539.261C357.38 539.001 357.47 538.831 357.47 538.831C357.47 538.831 357.47 539.021 357.33 539.391C357.18 539.741 356.87 540.371 355.97 540.721C355.52 540.881 354.93 540.891 354.34 540.621C354.05 540.481 353.75 540.271 353.51 539.951C353.27 539.631 353.1 539.211 353.07 538.761C353.01 537.861 353.42 536.931 354.23 536.311C355.08 535.681 356.19 535.601 357.2 535.891C358.22 536.181 359.05 536.831 359.7 537.461C360.36 538.101 360.9 538.761 361.45 539.291C362 539.831 362.56 540.261 363.15 540.501C363.73 540.731 364.36 540.761 364.88 540.611C365.4 540.461 365.8 540.111 365.98 539.691C366.17 539.261 366.17 538.811 366.09 538.471C365.91 537.761 365.43 537.571 365.46 537.571C365.43 537.591 365.95 537.631 366.31 538.391C366.47 538.761 366.58 539.271 366.43 539.861C366.35 540.221 366.14 540.591 365.83 540.891V540.901Z" fill="white"/>
<path d="M320.56 540.901C320.25 540.601 320.04 540.241 319.96 539.871C319.81 539.281 319.92 538.771 320.08 538.401C320.45 537.651 320.97 537.601 320.94 537.581C320.97 537.581 320.49 537.771 320.31 538.481C320.23 538.821 320.23 539.271 320.42 539.701C320.6 540.121 321 540.471 321.52 540.621C322.04 540.771 322.67 540.741 323.25 540.511C323.84 540.281 324.41 539.841 324.95 539.301C325.5 538.771 326.04 538.111 326.7 537.471C327.35 536.841 328.17 536.191 329.2 535.901C330.2 535.611 331.32 535.691 332.17 536.321C332.98 536.941 333.38 537.871 333.33 538.771C333.31 539.221 333.14 539.641 332.89 539.961C332.65 540.271 332.36 540.491 332.06 540.631C331.47 540.901 330.88 540.881 330.43 540.731C329.53 540.391 329.22 539.751 329.07 539.401C328.93 539.031 328.93 538.841 328.93 538.841C328.93 538.841 329.02 539.001 329.27 539.271C329.51 539.521 329.96 539.901 330.6 539.961C330.91 539.981 331.26 539.901 331.57 539.681C331.88 539.461 332.08 539.121 332.04 538.731C332.03 538.341 331.75 537.841 331.34 537.571C330.94 537.311 330.29 537.231 329.61 537.431C328.22 537.811 327.12 539.231 325.79 540.331C325.54 540.541 325.28 540.731 325 540.911C325.28 541.091 325.54 541.281 325.79 541.491C327.12 542.591 328.22 544.001 329.61 544.391C330.29 544.591 330.94 544.511 331.34 544.251C331.75 543.981 332.03 543.481 332.04 543.091C332.07 542.701 331.87 542.361 331.57 542.141C331.27 541.921 330.91 541.841 330.6 541.861C329.96 541.921 329.51 542.301 329.27 542.551C329.02 542.811 328.93 542.981 328.93 542.981C328.93 542.981 328.93 542.791 329.07 542.421C329.22 542.071 329.53 541.431 330.43 541.091C330.88 540.931 331.47 540.911 332.06 541.191C332.36 541.331 332.65 541.541 332.89 541.861C333.13 542.181 333.3 542.601 333.33 543.051C333.39 543.951 332.98 544.871 332.17 545.501C331.33 546.131 330.21 546.211 329.2 545.921C328.17 545.621 327.36 544.981 326.7 544.341C326.04 543.701 325.5 543.051 324.95 542.511C324.4 541.971 323.83 541.541 323.25 541.301C322.67 541.071 322.04 541.041 321.52 541.191C321 541.341 320.6 541.691 320.42 542.111C320.23 542.541 320.23 542.991 320.31 543.331C320.49 544.041 320.97 544.231 320.94 544.231C320.97 544.211 320.45 544.171 320.08 543.411C319.92 543.041 319.81 542.531 319.96 541.941C320.04 541.581 320.26 541.211 320.56 540.911V540.901Z" fill="white"/>
<path d="M352.939 540.902C352.589 541.102 352.249 541.352 351.969 541.632C351.209 542.342 350.679 543.172 350.359 543.472C349.729 544.072 348.689 544.592 348.299 544.212C347.919 543.832 348.339 542.712 349.059 542.022C349.359 541.742 350.119 541.252 351.049 540.892C350.129 540.532 349.359 540.052 349.059 539.762C348.339 539.072 347.929 537.952 348.299 537.572C348.689 537.192 349.729 537.702 350.359 538.302C350.679 538.602 351.199 539.442 351.969 540.152C352.249 540.432 352.589 540.692 352.939 540.892V540.902Z" fill="white"/>
<path d="M333.459 540.902C333.809 540.702 334.149 540.452 334.439 540.172C335.199 539.462 335.719 538.632 336.049 538.322C336.679 537.722 337.719 537.212 338.109 537.592C338.489 537.962 338.069 539.082 337.359 539.782C337.069 540.062 336.299 540.552 335.369 540.912C336.289 541.272 337.059 541.762 337.359 542.042C338.079 542.732 338.489 543.852 338.109 544.232C337.729 544.612 336.679 544.102 336.049 543.492C335.729 543.192 335.199 542.352 334.439 541.652C334.149 541.372 333.809 541.122 333.459 540.912V540.902Z" fill="white"/>
<path d="M340.47 543.731C340.77 544.341 341.2 545.381 341.47 545.781C341.16 545.351 340.45 544.691 340 544.221C339.55 543.751 338.91 543.011 338.49 542.691C338.87 542.971 339.88 543.421 340.47 543.731Z" fill="white"/>
<path d="M345.93 543.731C346.52 543.421 347.53 542.971 347.91 542.691C347.49 543.011 346.85 543.751 346.4 544.221C345.94 544.691 345.23 545.351 344.92 545.781C345.19 545.381 345.63 544.341 345.92 543.731H345.93Z" fill="white"/>
<path d="M345.93 538.071C345.63 537.461 345.2 536.421 344.93 536.021C345.24 536.451 345.95 537.121 346.41 537.581C346.86 538.051 347.5 538.791 347.92 539.111C347.54 538.831 346.53 538.381 345.94 538.071H345.93Z" fill="white"/>
<path d="M340.47 538.071C339.88 538.381 338.88 538.831 338.49 539.111C338.91 538.791 339.55 538.051 340 537.581C340.45 537.111 341.17 536.451 341.47 536.021C341.2 536.421 340.76 537.461 340.47 538.071Z" fill="white"/>
<path d="M334.749 537.551C334.959 537.571 335.069 538.131 334.899 538.571C334.829 538.791 334.539 539.241 334.159 539.601C333.789 539.971 333.349 540.251 333.119 540.411C333.379 540.211 333.679 539.771 333.859 539.331C334.049 538.891 334.109 538.471 334.169 538.291C334.299 537.941 334.529 537.531 334.739 537.541L334.749 537.551Z" fill="white"/>
<path d="M351.639 544.251C351.429 544.231 351.329 543.671 351.489 543.231C351.559 543.011 351.859 542.561 352.229 542.201C352.599 541.831 353.039 541.561 353.269 541.391C353.009 541.591 352.699 542.031 352.529 542.471C352.339 542.901 352.279 543.331 352.219 543.511C352.089 543.861 351.859 544.281 351.649 544.261L351.639 544.251Z" fill="white"/>
<path d="M334.749 544.251C334.959 544.231 335.069 543.671 334.899 543.231C334.829 543.011 334.539 542.561 334.159 542.201C333.789 541.831 333.349 541.561 333.119 541.391C333.379 541.591 333.679 542.031 333.859 542.471C334.049 542.901 334.109 543.331 334.169 543.511C334.299 543.861 334.529 544.281 334.739 544.261L334.749 544.251Z" fill="white"/>
<path d="M351.639 537.551C351.429 537.571 351.329 538.131 351.489 538.571C351.559 538.791 351.859 539.241 352.229 539.601C352.599 539.971 353.039 540.251 353.269 540.411C353.009 540.211 352.699 539.771 352.529 539.331C352.339 538.891 352.279 538.471 352.219 538.291C352.089 537.941 351.859 537.531 351.649 537.541L351.639 537.551Z" fill="white"/>
<path d="M370.86 484.411C370.43 484.411 370.09 484.051 370.09 483.611C370.09 483.171 370.44 482.811 370.86 482.811C371.28 482.811 371.63 483.171 371.63 483.611C371.63 484.051 371.28 484.411 370.86 484.411Z" fill="white"/>
<path d="M370.86 487.19C370.26 487.19 369.77 486.68 369.77 486.06C369.77 485.44 370.26 484.93 370.86 484.93C371.46 484.93 371.95 485.43 371.95 486.06C371.95 486.69 371.46 487.19 370.86 487.19Z" fill="white"/>
<path d="M370.86 541.692C370.43 541.692 370.09 541.332 370.09 540.892C370.09 540.452 370.44 540.092 370.86 540.092C371.28 540.092 371.63 540.452 371.63 540.892C371.63 541.332 371.28 541.692 370.86 541.692Z" fill="white"/>
<path d="M370.86 539.541C370.26 539.541 369.77 539.041 369.77 538.411C369.77 537.781 370.26 537.281 370.86 537.281C371.46 537.281 371.95 537.791 371.95 538.411C371.95 539.031 371.46 539.541 370.86 539.541Z" fill="white"/>
<path d="M365.789 513.092C366.639 513.602 367.509 514.182 368.429 514.752C368.979 515.712 369.539 516.612 370.029 517.492C370.329 518.012 370.609 518.532 370.849 519.052C371.099 518.532 371.379 518.012 371.679 517.492C372.169 516.612 372.739 515.712 373.279 514.752C374.199 514.182 375.079 513.602 375.929 513.092C376.429 512.782 376.929 512.492 377.429 512.242C376.929 511.982 376.429 511.702 375.929 511.382C375.079 510.872 374.209 510.292 373.279 509.722C372.729 508.762 372.169 507.862 371.679 506.982C371.379 506.462 371.099 505.952 370.849 505.432C370.599 505.952 370.329 506.472 370.029 506.982C369.539 507.862 368.969 508.772 368.429 509.722C367.509 510.292 366.639 510.872 365.789 511.382C365.289 511.692 364.789 511.982 364.289 512.242C364.789 512.492 365.289 512.782 365.789 513.092ZM370.859 508.222C371.299 509.082 371.779 509.942 372.229 510.822C373.069 511.292 373.899 511.782 374.729 512.242C373.899 512.702 373.069 513.192 372.229 513.662C371.779 514.532 371.299 515.402 370.859 516.262C370.419 515.402 369.939 514.542 369.489 513.662C368.649 513.192 367.819 512.702 366.979 512.242C367.809 511.782 368.639 511.292 369.489 510.822C369.939 509.952 370.419 509.092 370.859 508.222Z" fill="white"/>
<path d="M370.859 535.691C370.569 536.011 370.219 536.231 369.869 536.311C369.309 536.461 368.809 536.361 368.459 536.191C367.729 535.811 367.689 535.271 367.669 535.301C367.669 535.271 367.849 535.771 368.539 535.951C368.869 536.031 369.309 536.031 369.719 535.831C370.129 535.641 370.459 535.231 370.609 534.691C370.759 534.151 370.729 533.501 370.499 532.901C370.269 532.291 369.859 531.701 369.339 531.141C368.819 530.571 368.189 530.011 367.569 529.331C366.959 528.661 366.339 527.801 366.049 526.741C365.769 525.701 365.849 524.541 366.459 523.661C367.059 522.831 367.949 522.401 368.819 522.461C369.249 522.491 369.659 522.661 369.969 522.911C370.269 523.161 370.479 523.461 370.619 523.771C370.879 524.381 370.859 524.991 370.709 525.461C370.379 526.391 369.769 526.711 369.429 526.871C369.069 527.021 368.889 527.011 368.889 527.011C368.889 527.011 369.049 526.921 369.299 526.661C369.539 526.411 369.909 525.951 369.969 525.281C369.999 524.961 369.919 524.591 369.699 524.281C369.489 523.971 369.159 523.761 368.789 523.791C368.409 523.811 367.929 524.081 367.669 524.521C367.419 524.931 367.339 525.611 367.529 526.311C367.899 527.751 369.269 528.891 370.329 530.271C370.529 530.531 370.719 530.801 370.889 531.091C371.059 530.801 371.249 530.531 371.449 530.271C372.509 528.901 373.869 527.751 374.239 526.311C374.429 525.601 374.359 524.931 374.099 524.521C373.839 524.091 373.349 523.811 372.979 523.791C372.599 523.761 372.279 523.961 372.069 524.281C371.859 524.591 371.779 524.961 371.799 525.281C371.859 525.951 372.229 526.411 372.469 526.661C372.719 526.921 372.879 527.011 372.879 527.011C372.879 527.011 372.699 527.011 372.339 526.871C371.999 526.711 371.389 526.391 371.059 525.461C370.909 524.991 370.889 524.381 371.149 523.771C371.279 523.471 371.489 523.161 371.789 522.911C372.099 522.661 372.499 522.481 372.939 522.461C373.809 522.401 374.699 522.831 375.299 523.661C375.909 524.541 375.989 525.691 375.709 526.741C375.429 527.801 374.799 528.651 374.189 529.331C373.569 530.011 372.939 530.571 372.419 531.141C371.899 531.711 371.479 532.291 371.249 532.901C371.019 533.501 370.999 534.151 371.139 534.691C371.289 535.231 371.619 535.651 372.029 535.831C372.439 536.031 372.879 536.031 373.209 535.951C373.889 535.761 374.069 535.271 374.079 535.301C374.069 535.271 374.019 535.801 373.289 536.191C372.939 536.361 372.439 536.461 371.869 536.311C371.519 536.231 371.169 536.001 370.879 535.691H370.859Z" fill="white"/>
<path d="M370.86 488.781C371.15 488.461 371.5 488.241 371.85 488.151C372.41 488.001 372.91 488.111 373.27 488.281C374 488.661 374.04 489.201 374.06 489.171C374.06 489.201 373.87 488.701 373.19 488.521C372.86 488.441 372.42 488.441 372.01 488.641C371.6 488.821 371.269 489.241 371.119 489.781C370.969 490.321 371 490.981 371.23 491.571C371.46 492.181 371.88 492.771 372.4 493.341C372.92 493.911 373.55 494.471 374.17 495.151C374.78 495.821 375.4 496.671 375.69 497.741C375.97 498.781 375.89 499.941 375.28 500.811C374.68 501.641 373.79 502.071 372.92 502.011C372.49 501.981 372.08 501.811 371.77 501.561C371.47 501.311 371.26 501.011 371.13 500.701C370.87 500.091 370.88 499.481 371.04 499.021C371.37 498.091 371.99 497.771 372.32 497.611C372.68 497.461 372.86 497.471 372.86 497.471C372.86 497.471 372.7 497.561 372.45 497.821C372.21 498.071 371.84 498.531 371.78 499.201C371.76 499.521 371.84 499.891 372.05 500.201C372.27 500.521 372.59 500.721 372.96 500.691C373.33 500.681 373.82 500.391 374.08 499.971C374.33 499.561 374.41 498.881 374.22 498.181C373.85 496.741 372.48 495.601 371.43 494.231C371.23 493.971 371.039 493.691 370.869 493.411C370.699 493.691 370.51 493.971 370.31 494.231C369.25 495.601 367.89 496.751 367.51 498.181C367.32 498.891 367.39 499.561 367.65 499.971C367.91 500.401 368.39 500.681 368.77 500.691C369.15 500.721 369.47 500.521 369.68 500.201C369.89 499.891 369.97 499.521 369.95 499.201C369.9 498.541 369.52 498.071 369.28 497.821C369.03 497.561 368.869 497.471 368.869 497.471C368.869 497.471 369.05 497.471 369.41 497.611C369.75 497.771 370.36 498.091 370.69 499.021C370.84 499.491 370.86 500.101 370.6 500.701C370.47 501.011 370.26 501.311 369.95 501.561C369.65 501.811 369.24 501.991 368.8 502.011C367.93 502.071 367.04 501.651 366.44 500.811C365.83 499.931 365.75 498.781 366.03 497.741C366.31 496.681 366.94 495.831 367.55 495.151C368.17 494.471 368.8 493.911 369.32 493.341C369.84 492.771 370.26 492.181 370.48 491.571C370.71 490.971 370.729 490.311 370.589 489.781C370.439 489.241 370.11 488.821 369.7 488.641C369.29 488.441 368.85 488.441 368.52 488.521C367.84 488.711 367.66 489.201 367.65 489.171C367.66 489.201 367.71 488.661 368.44 488.281C368.79 488.111 369.29 488.001 369.85 488.151C370.2 488.241 370.549 488.461 370.839 488.781H370.86Z" fill="white"/>
<path d="M370.858 522.331C370.658 521.971 370.418 521.621 370.148 521.321C369.468 520.531 368.658 519.991 368.368 519.661C367.788 519.011 367.288 517.931 367.658 517.531C368.018 517.141 369.098 517.571 369.768 518.321C370.038 518.631 370.508 519.421 370.858 520.381C371.198 519.421 371.678 518.631 371.948 518.321C372.618 517.581 373.698 517.141 374.058 517.531C374.428 517.931 373.928 519.011 373.348 519.661C373.058 519.991 372.248 520.531 371.568 521.321C371.298 521.621 371.058 521.971 370.858 522.331Z" fill="white"/>
<path d="M370.87 502.141C371.06 502.501 371.31 502.851 371.58 503.151C372.26 503.941 373.07 504.481 373.36 504.821C373.94 505.471 374.43 506.551 374.07 506.951C373.71 507.341 372.63 506.911 371.96 506.171C371.69 505.861 371.22 505.071 370.87 504.111C370.53 505.071 370.05 505.861 369.78 506.171C369.11 506.911 368.03 507.351 367.67 506.951C367.3 506.551 367.8 505.471 368.38 504.821C368.67 504.491 369.48 503.941 370.16 503.151C370.43 502.851 370.67 502.501 370.88 502.141H370.87Z" fill="white"/>
<path d="M368.138 509.411C367.548 509.721 366.538 510.171 366.158 510.451C366.578 510.131 367.218 509.391 367.668 508.921C368.118 508.451 368.838 507.791 369.148 507.361C368.868 507.761 368.438 508.801 368.148 509.411H368.138Z" fill="white"/>
<path d="M368.138 515.061C368.438 515.671 368.868 516.711 369.138 517.111C368.828 516.681 368.118 516.011 367.658 515.551C367.208 515.081 366.568 514.341 366.148 514.021C366.528 514.311 367.538 514.751 368.128 515.061H368.138Z" fill="white"/>
<path d="M373.59 515.061C374.18 514.751 375.18 514.301 375.57 514.021C375.15 514.341 374.51 515.081 374.06 515.551C373.61 516.021 372.89 516.681 372.59 517.111C372.87 516.711 373.3 515.671 373.6 515.061H373.59Z" fill="white"/>
<path d="M373.588 509.411C373.288 508.801 372.858 507.761 372.578 507.361C372.888 507.791 373.598 508.451 374.048 508.921C374.498 509.391 375.138 510.131 375.558 510.451C375.168 510.171 374.168 509.711 373.578 509.411H373.588Z" fill="white"/>
<path d="M374.1 503.481C374.08 503.701 373.54 503.811 373.12 503.641C372.91 503.561 372.48 503.261 372.13 502.871C371.77 502.491 371.51 502.031 371.35 501.801C371.54 502.071 371.96 502.381 372.39 502.571C372.81 502.771 373.22 502.831 373.39 502.901C373.73 503.041 374.13 503.271 374.11 503.491L374.1 503.481Z" fill="white"/>
<path d="M367.63 520.991C367.65 520.771 368.19 520.661 368.61 520.831C368.82 520.911 369.26 521.211 369.61 521.601C369.97 521.991 370.23 522.441 370.39 522.681C370.19 522.411 369.78 522.091 369.35 521.911C368.93 521.721 368.52 521.651 368.35 521.581C368.01 521.441 367.61 521.211 367.63 520.991Z" fill="white"/>
<path d="M367.63 503.481C367.65 503.701 368.19 503.811 368.61 503.641C368.82 503.561 369.26 503.261 369.61 502.871C369.97 502.491 370.23 502.031 370.39 501.801C370.19 502.071 369.78 502.381 369.35 502.571C368.93 502.771 368.52 502.831 368.35 502.901C368.01 503.041 367.61 503.271 367.63 503.491V503.481Z" fill="white"/>
<path d="M374.1 520.991C374.08 520.771 373.54 520.661 373.12 520.831C372.91 520.911 372.48 521.211 372.13 521.601C371.77 521.991 371.51 522.441 371.35 522.681C371.54 522.411 371.96 522.091 372.39 521.911C372.81 521.721 373.22 521.651 373.39 521.581C373.73 521.441 374.13 521.211 374.11 520.991H374.1Z" fill="white"/>
</svg>
