<svg width="212" height="188" viewBox="0 0 212 188" fill="none" xmlns="http://www.w3.org/2000/svg">
<path d="M151.109 75.8799C148.349 75.1799 145.599 74.2198 142.809 73.3698V68.5999C150.049 70.9699 158.289 70.3798 165.289 67.3098C165.169 66.1398 164.989 64.9698 164.799 63.7999C158.119 67.2899 150.639 67.7998 142.809 66.7298V61.8199C144.749 61.9399 146.589 62.0598 148.489 61.9398C153.739 61.4299 158.589 59.5499 162.999 56.5999C162.649 55.4499 162.269 54.3098 161.849 53.1898C159.179 55.1498 156.339 56.9298 153.289 57.8998V50.9698C155.349 49.6998 157.269 48.1899 159.039 46.4599C158.499 45.3899 157.909 44.3499 157.299 43.3199C155.749 44.9599 154.109 46.5298 152.329 47.8398H142.299C142.179 47.3698 142.039 46.9099 141.899 46.4599C142.489 46.1999 143.089 45.9198 143.679 45.6398C147.549 43.8798 150.809 40.9298 153.239 37.2798C152.509 36.3398 151.759 35.3898 150.969 34.4998C148.669 38.7998 145.159 41.9598 141.129 44.3098C140.359 42.4898 139.369 40.8198 138.179 39.2798C141.459 36.6298 144.109 33.1198 145.749 29.1998C144.829 28.3598 143.869 27.5599 142.869 26.7699C141.369 30.6999 139.209 34.2399 136.329 37.1599C135.859 36.6899 135.369 36.2299 134.869 35.7999C133.679 34.7899 132.409 33.9298 131.089 33.1998C133.669 30.0398 135.779 26.5999 136.689 22.4599C135.709 21.8699 134.719 21.3099 133.709 20.7699C133.379 25.0299 131.569 28.8599 129.109 32.2399C127.139 31.3999 125.049 30.8299 122.819 30.5499C122.869 30.4599 122.939 30.3798 122.989 30.2898C125.469 26.3998 126.429 21.9098 126.649 17.5898C125.479 17.1498 124.299 16.7498 123.109 16.3898C123.249 21.0998 122.589 26.0098 120.089 30.2898C120.089 30.2898 120.069 30.3198 120.059 30.3398H119.359C117.439 30.3398 115.609 30.5299 113.849 30.8799C116.549 25.6599 117.089 20.0498 115.449 14.6198C114.349 14.4498 113.239 14.2898 112.119 14.1698C113.429 18.6198 113.269 23.5298 112.209 27.8098C111.739 29.2098 111.109 30.5298 110.429 31.8598C108.199 32.6798 106.139 33.8299 104.239 35.3199C104.639 34.0499 105.089 32.7698 105.579 31.5298C107.409 25.6598 106.329 19.4798 104.339 13.8398C103.259 13.8598 102.199 13.9098 101.129 13.9998C104.369 21.4598 104.459 30.0999 101.029 37.3499C101.029 37.6999 101.029 38.0498 100.999 38.4198C99.1992 40.4998 97.8592 42.8898 96.9392 45.5398C96.3792 41.1598 96.6992 36.5098 97.3092 31.9698C98.4292 25.9798 97.1892 19.6598 93.2592 15.1398C92.2692 15.3498 91.2692 15.5898 90.2992 15.8398C94.9892 22.6198 95.9692 30.9998 94.8192 39.0098C94.2792 42.0498 94.5192 45.0199 95.3292 47.8499H91.6692C90.8292 45.8099 90.2592 43.6898 90.2592 41.5098C90.2592 33.0798 88.4792 24.6398 83.2992 18.1798C82.1792 18.6298 81.0892 19.1098 80.0192 19.6098C84.1692 23.9598 87.3592 29.5099 87.3592 35.7099C87.5492 39.9899 88.4892 44.0698 90.0992 47.8598H89.0392V50.2198C88.8792 50.0299 88.7092 49.8398 88.5292 49.6398C87.5392 48.5598 86.4492 47.6499 85.2892 46.8799C84.7492 45.3099 84.3692 43.6698 84.0692 41.9198C83.2492 39.0198 82.8292 36.1199 81.5892 33.6299C80.7692 32.3899 80.3492 31.1498 79.5092 29.8898C77.5692 27.3098 75.8792 24.9799 73.6692 23.0999C72.6892 23.7299 71.7192 24.3698 70.7792 25.0598C73.9892 27.4498 76.6192 30.6098 78.6792 34.0499C80.9092 37.5599 81.1692 41.5398 82.4992 45.4698C80.9092 44.8398 79.1992 44.4599 77.3692 44.2999C77.1092 43.6499 76.8592 42.9898 76.5992 42.3298C74.4192 36.8498 69.6592 32.9899 64.8792 29.8799C63.9892 30.6999 63.1392 31.5598 62.2992 32.4298C67.6492 34.8398 71.4492 39.2398 74.5392 44.2498C72.4492 44.3398 70.5292 44.7198 68.7492 45.3998C65.9292 41.8698 61.9292 39.2398 57.4892 38.0798C56.7792 39.0398 56.0792 40.0198 55.3992 41.0098C59.3092 41.9698 62.7592 44.1398 66.1192 46.6698C64.5892 47.5998 63.2292 48.7798 61.9992 50.2298C61.8392 50.4198 61.6992 50.6299 61.5492 50.8199C58.5892 49.0199 55.1692 47.9199 51.6592 47.7099C51.1392 48.7899 50.6492 49.8899 50.1992 50.9899C53.4992 51.1299 56.6692 52.1399 59.7892 53.4899C58.7792 55.3199 58.0792 57.3298 57.6592 59.4998C56.5392 59.1498 55.3892 58.8199 54.2392 58.4899C52.0592 58.1799 49.8792 58.3298 47.6992 58.4398C47.3992 59.5598 47.1392 60.6898 46.8992 61.8298C50.4192 61.3598 53.9092 61.6598 57.2392 62.5098C57.2092 63.1398 57.1692 63.7498 57.1692 64.3998C57.1692 65.9398 57.2892 67.3199 57.5192 68.5699C53.6792 67.7299 49.5992 68.2898 45.8392 69.6898C45.7692 70.7198 45.7192 71.7298 45.6992 72.7798C49.6192 71.2098 53.8792 70.8098 58.2192 71.2798C59.3692 74.6298 61.3092 76.7999 63.2592 78.2099C57.2792 77.4799 51.4392 77.7198 46.0492 80.4498C46.1692 81.5998 46.3292 82.7598 46.5192 83.8898C50.8392 81.4498 55.4992 80.5899 60.2792 80.6098C57.7492 82.5499 55.2892 84.3998 52.8692 86.0898L50.6592 87.6398L51.5692 89.0398C50.3992 89.6498 49.2692 90.3298 48.1992 91.0798C48.5492 92.2299 48.9092 93.3699 49.3292 94.4899C50.5692 93.3899 51.9092 92.4998 53.3192 91.7498L56.9592 97.4298C55.3392 98.5698 53.7192 99.8398 52.2292 101.18C52.7892 102.26 53.3592 103.33 53.9892 104.36C59.0792 98.5298 66.9992 95.6299 74.9192 94.1299C75.0392 94.1099 75.1592 94.0798 75.2992 94.0398L59.6392 106.82L60.3392 107.75C59.5692 108.62 58.8192 109.51 58.1292 110.46C58.8792 111.44 59.6492 112.38 60.4692 113.31C61.0992 112.37 61.7792 111.46 62.4892 110.59L66.8492 116.37C66.4092 117.07 65.9992 117.78 65.6092 118.54C66.4992 119.34 67.4092 120.11 68.3492 120.86C68.9992 119.34 69.7792 117.91 70.6692 116.53L95.5492 96.4498C94.2792 99.5398 92.5192 102.4 90.2492 104.9C86.5192 108.64 81.5692 111.12 78.6692 115.67C77.8492 116.91 77.4292 118.15 76.5892 119.41C75.6992 121.19 75.0392 123.18 74.5692 125.23C75.5792 125.84 76.6292 126.43 77.6692 126.99C78.5592 121.18 81.3092 115.55 85.6892 111.54C89.9992 108.4 93.1892 104.52 95.6092 99.8898V107.54C94.4092 109.29 93.0092 110.91 91.4792 112.36C87.0692 117.14 84.9392 123.57 84.8192 130.19C85.8792 130.57 86.9492 130.94 88.0292 131.27C93.6992 133.16 99.6092 134.13 105.639 134.13C111.669 134.13 118.019 133.1 123.879 131.07L124.419 130.88L121.649 122.66L121.109 122.85C119.769 123.32 118.409 123.71 117.049 124.05C116.739 122.97 116.489 121.85 116.319 120.66C115.899 115.28 117.139 110.3 116.739 104.91C116.009 100.2 114.329 95.4799 111.439 91.5999C112.219 91.3399 112.989 91.0398 113.739 90.6698C117.559 94.6498 120.519 99.8199 120.889 105.32C121.269 114.03 122.339 123.1 127.899 129.64C128.999 129.2 130.059 128.73 131.129 128.24C128.989 125.71 127.079 122.76 125.449 119.82C122.969 114.44 123.789 108.22 122.139 102.41L120.899 98.6698C120.079 97.4298 119.659 96.1898 118.819 94.9298C117.599 93.0798 116.359 91.4698 114.789 90.0798C115.489 89.6999 116.149 89.2598 116.779 88.7898C122.989 93.9598 126.609 101.05 128.569 109.5V113.41H129.549C131.049 118.02 133.819 122 137.749 124.57C138.689 123.98 139.619 123.35 140.519 122.7C137.139 120.27 134.519 117.09 132.549 113.43H140.149C141.909 115.46 143.859 117.2 146.239 118.06C147.149 117.22 148.039 116.37 148.889 115.48C146.729 114.38 144.669 113.02 142.799 111.43V102.96C144.349 104.51 145.959 105.75 147.789 106.98C149.029 107.4 150.269 108.22 151.519 109.06C152.079 109.43 152.809 109.81 153.559 110.02C154.329 109.01 155.039 107.98 155.739 106.93C150.719 105.67 146.429 102.83 142.799 98.9498V91.8098C144.159 93.2398 145.609 94.6398 147.389 95.8098C148.629 96.6298 149.869 97.0499 151.119 97.8898C153.739 98.8699 156.609 100.37 159.519 100.33C160.059 99.2299 160.569 98.0899 161.049 96.9599C156.519 96.6299 152.069 95.3699 148.219 92.9099C146.249 91.4998 144.519 89.9398 142.809 88.4198V82.6599C146.749 85.4199 150.359 88.1998 155.259 89.1698C157.889 89.4998 160.809 90.0999 163.539 89.6898C163.849 88.5398 164.129 87.3798 164.379 86.1998C157.769 86.9498 151.269 86.1799 145.739 82.1299C144.799 81.3998 143.819 80.7498 142.809 80.1599V75.6898C149.959 79.0398 157.909 81.3699 165.479 78.2198C165.549 77.1498 165.599 76.0898 165.619 75.0098C160.909 76.5998 156.169 77.3698 151.109 75.9198L151.129 75.8898L151.109 75.8799ZM66.7192 93.5499L73.3092 88.4498L76.5392 91.9899C73.3292 92.7799 69.9992 92.9898 66.7192 93.5398V93.5499ZM97.9692 92.8499V91.5398L96.9192 92.3799L92.2992 96.0999L68.7792 115.08L68.2192 114.35L64.0492 108.81L62.8492 107.22L71.7592 99.9599L80.4292 92.8898L80.0992 92.5199L78.9692 91.2798L75.7992 87.7898L74.3392 86.1798L73.5692 85.3398L72.4692 86.1998L69.9792 88.1398L60.4892 95.4899L59.1492 96.5199L58.9792 96.2598L55.4792 90.8098L53.8592 88.2999L54.2392 88.0199C54.4092 87.8998 54.5892 87.7798 54.7592 87.6498C57.7792 85.5198 60.8992 83.2299 64.1192 80.7999C65.0092 80.1398 65.8792 79.4599 66.7892 78.7699C68.2492 77.6299 69.7492 76.4799 71.2492 75.2999C71.8592 74.8098 72.4892 74.3199 73.0992 73.8298C74.2892 72.8899 75.4692 71.9398 76.6592 70.9698C76.9692 70.7099 77.3092 70.4498 77.6192 70.1798C77.8792 69.9698 78.1392 69.7598 78.3992 69.5499C79.3792 68.7598 80.1392 67.9298 80.7192 67.0398C81.0192 66.5998 81.2392 66.1298 81.4492 65.6798C81.8692 64.6798 82.0792 63.6398 82.0792 62.4998C82.0792 61.8498 82.0092 61.2398 81.8492 60.6698C81.8292 60.5698 81.7992 60.4798 81.7592 60.3698C81.4592 59.4098 80.9792 58.5398 80.2592 57.7198C79.1792 56.4599 77.8692 55.7999 76.3192 55.6898C76.1792 55.6898 76.0192 55.6698 75.8792 55.6698C75.5992 55.6698 75.3392 55.6698 75.0792 55.6998C73.2992 55.8698 71.8692 56.6398 70.7692 58.0598C70.6092 58.2498 70.4692 58.4398 70.3292 58.6498C69.9492 59.2298 69.6292 59.8698 69.3892 60.5398C69.0192 61.5898 68.8092 62.7398 68.8092 63.9798C68.8092 64.5398 68.8492 65.0598 68.8992 65.5499C69.0592 66.9599 69.4592 68.0998 70.1192 68.9398C70.7992 69.8298 71.7592 70.4198 73.0092 70.7198C73.0392 70.7198 71.6792 71.7898 70.0992 73.0298C69.5392 73.4698 68.9492 73.9198 68.3892 74.3598C66.7192 75.6698 65.2192 76.7999 65.2192 76.7999C63.0592 75.5399 61.5892 73.8498 60.6692 71.6698C60.3592 70.9398 60.1092 70.1698 59.9392 69.3298C59.6292 67.8798 59.4692 66.2398 59.4692 64.4198C59.4692 64.0198 59.4892 63.6199 59.5192 63.2198C59.5692 62.2099 59.6792 61.2298 59.8492 60.2898C60.2292 58.1898 60.8992 56.2599 61.8692 54.4899C62.3192 53.6699 62.8592 52.8998 63.4592 52.1498C63.5592 52.0098 63.6692 51.8698 63.7692 51.7298C64.9592 50.2998 66.3492 49.1798 67.9192 48.3398C68.6192 47.9598 69.3492 47.6398 70.1292 47.3998C71.7892 46.8598 73.5992 46.5798 75.5692 46.5798H75.8692C76.7192 46.5798 77.5592 46.6698 78.3592 46.7898C80.4392 47.0998 82.2992 47.7999 83.9392 48.8499C84.9692 49.5099 85.9292 50.2799 86.7792 51.2198C88.2592 52.8398 89.3392 54.7098 90.0592 56.7898C90.4992 58.0598 90.7692 59.4098 90.9092 60.8598C90.9392 61.2998 90.9792 61.7298 90.9992 62.1698V62.3998C90.4892 63.0298 90.0392 63.7098 89.6192 64.3898C89.5692 64.4798 89.5192 64.5598 89.4592 64.6698C89.0092 65.4698 88.5892 66.3098 88.2592 67.1798C88.1392 67.5098 88.0192 67.8399 87.8892 68.1898C87.6492 68.9398 87.4492 69.7298 87.2992 70.5098C87.2492 70.8098 87.1992 71.0899 87.1592 71.3799C87.0592 72.1499 86.9992 72.9499 86.9892 73.7399V74.0499C86.8292 74.2198 86.6792 74.4198 86.4992 74.6098C85.2392 75.9898 83.5692 77.5598 81.4992 79.3098L81.7092 79.5398L82.6492 80.5699L84.7792 82.9099L85.5492 83.7498L87.6092 85.9998L88.2892 86.7298L88.3292 86.7699L90.5992 84.8298C90.9992 85.3898 91.4392 85.9298 91.9092 86.4398C92.1692 86.7198 92.4292 86.9799 92.6892 87.2399C93.2492 87.7799 93.8192 88.2699 94.4292 88.7399C94.6592 88.9099 94.8792 89.0698 95.1292 89.2498C95.8292 89.7198 96.5392 90.1599 97.2892 90.5199C97.5692 90.6599 97.8692 90.7999 98.1592 90.9398C98.8592 91.2498 99.5892 91.5199 100.339 91.7399C100.689 91.8399 101.039 91.9299 101.389 92.0199C102.139 92.1898 102.909 92.3298 103.689 92.3998C104.019 92.4298 104.349 92.4499 104.679 92.4698C104.989 92.4698 105.309 92.4899 105.619 92.4899C106.139 92.4899 106.649 92.4598 107.169 92.4198C107.269 92.4198 107.399 92.4198 107.499 92.3998V111.24H97.9092V92.8499L97.9592 92.8298L97.9692 92.8499ZM71.4092 62.0098C73.6592 63.6498 76.0292 65.0798 78.5192 66.1498C78.0992 66.6898 77.5992 67.2198 76.9692 67.7198C76.4992 68.0998 76.0492 68.4698 75.5692 68.8598L73.8092 68.4899C72.8892 68.2999 71.1792 67.9498 71.1792 63.9498C71.1792 63.2698 71.2492 62.6198 71.4092 62.0098ZM78.5792 59.1998C79.4192 60.1598 79.7992 61.2099 79.7992 62.4698C79.7992 63.2698 79.6392 64.0199 79.3492 64.7399C76.8192 63.5399 74.4292 61.9499 72.1692 60.1299C72.3092 59.8999 72.4492 59.6798 72.6192 59.4798C73.4592 58.4298 74.4692 57.9599 75.9292 57.9599C77.0292 57.9599 77.8092 58.3298 78.5792 59.1998ZM88.5692 83.5598L87.4892 82.3698C87.8892 82.0598 88.2692 81.7398 88.6792 81.4298C88.8892 81.9198 89.1292 82.3898 89.3892 82.8598L88.5692 83.5598ZM86.8092 81.6198L84.9992 79.6098C85.8692 79.2098 86.7392 78.7498 87.5992 78.2498C87.7892 79.0198 88.0192 79.7698 88.2992 80.4998C87.8092 80.8798 87.3192 81.2499 86.8192 81.5999V81.6198H86.8092ZM93.6492 59.6698C93.5092 59.7898 93.3492 59.9099 93.2092 60.0499C93.1692 59.7899 93.1592 59.5398 93.1192 59.2798C93.2892 59.3998 93.4692 59.5399 93.6392 59.6599L93.6492 59.6698ZM120.969 124.11L123.009 130.15C122.119 130.45 121.229 130.71 120.339 130.95C119.219 131.26 118.089 131.54 116.939 131.79C114.639 132.28 112.279 132.61 109.929 132.79C108.739 132.88 107.559 132.93 106.359 132.95H105.679C103.379 132.95 101.089 132.81 98.8292 132.51C97.6592 132.37 96.4892 132.18 95.3392 131.95C92.9892 131.5 90.6492 130.88 88.3592 130.13L90.3992 124.09C91.9692 124.61 93.5692 125.05 95.1992 125.4C96.2092 125.63 97.2192 125.82 98.2292 125.98C100.439 126.33 102.689 126.5 104.929 126.54C106.009 126.54 107.089 126.54 108.169 126.49C110.329 126.39 112.489 126.12 114.639 125.72C115.579 125.55 116.509 125.35 117.429 125.11C118.619 124.81 119.799 124.46 120.969 124.08V124.11ZM104.769 125.19C104.769 125.19 104.769 125.33 104.789 125.4C102.629 125.36 100.479 125.17 98.3392 124.84C98.8592 120.95 100.379 117.26 101.969 113.56H106.849C105.589 117.33 104.479 121.16 104.759 125.19H104.779H104.769ZM89.4592 121.45C91.0492 117.64 93.3692 114.55 95.6692 111.27V113.56H99.4492C98.5792 115.06 97.7092 116.56 96.9192 118.15C96.1692 120.11 95.6492 122.17 95.3692 124.28C93.6392 123.9 91.9292 123.42 90.2592 122.83L89.7192 122.64L88.3892 126.57C88.6192 124.88 88.9792 123.16 89.4892 121.47L89.4492 121.45H89.4592ZM114.289 109.86C113.589 114.8 113.419 119.87 114.379 124.62C112.269 125.02 110.129 125.27 107.999 125.37C107.479 121.46 107.719 117.42 108.919 113.57H109.879V110.74C111.329 106.06 111.189 101.38 109.879 96.8199V92.0398C110.109 91.9898 110.329 91.9398 110.559 91.8698C113.859 97.2798 115.409 103.59 114.289 109.87V109.86ZM109.879 89.2498C109.129 89.4598 108.359 89.5998 107.559 89.6998C106.949 89.7698 106.319 89.8199 105.679 89.8199C100.329 89.8199 95.5792 87.1498 92.6892 83.0798C92.2392 82.4499 91.8392 81.7699 91.4692 81.0699C90.4392 79.0599 89.8292 76.7898 89.7592 74.3998V73.8598C89.7592 70.0198 91.1192 66.5098 93.3892 63.7498C94.0692 62.9098 94.8392 62.1598 95.6692 61.4798C96.3792 60.8898 97.1692 60.3599 97.9892 59.9099C100.269 58.6399 102.909 57.8998 105.699 57.8998C106.329 57.8998 106.959 57.9299 107.579 58.0199C109.219 58.2099 110.789 58.6698 112.239 59.3098C117.769 61.8098 121.639 67.3998 121.639 73.8598C121.639 81.2098 116.649 87.3899 109.899 89.2399H109.879V89.2498ZM127.949 80.2898L128.439 80.3799C128.529 80.3799 128.599 80.4698 128.599 80.5499V80.5999C126.819 80.2299 125.079 79.9698 123.299 79.9398C123.559 79.1898 123.769 78.3998 123.949 77.6198C124.329 77.5698 124.699 77.5298 125.079 77.4998C125.359 78.9298 126.489 80.0698 127.969 80.2898H127.949ZM128.589 85.2699C126.499 84.2399 124.269 83.4498 121.949 82.9298C122.279 82.3198 122.599 81.6898 122.869 81.0398C124.819 81.2698 126.719 81.5799 128.609 82.0699V85.2699H128.589ZM128.589 91.4899C125.889 89.1299 123.179 87.0899 120.029 85.7399C120.539 85.1299 121.009 84.4698 121.439 83.7798C123.999 84.4398 126.389 85.5599 128.589 86.9599V91.4798V91.4899ZM125.019 76.5199C124.709 76.5599 124.409 76.6099 124.099 76.6599C124.219 75.8599 124.289 75.0398 124.289 74.2198C125.529 73.7999 126.779 73.4998 128.039 73.3098L127.799 73.3598C126.249 73.6698 125.129 74.9799 125.009 76.5199H125.029H125.019ZM128.589 72.1599C127.159 72.4699 125.709 72.8798 124.279 73.3998C124.259 72.4398 124.159 71.4998 123.999 70.5898C125.479 69.7498 127.019 69.1098 128.589 68.6498V72.1599ZM123.849 69.8199C123.659 68.9299 123.399 68.0699 123.069 67.2399C124.829 65.8399 126.559 64.6599 128.599 63.8199V67.3998C126.959 68.0498 125.369 68.8798 123.859 69.8298L123.849 69.8199ZM128.589 62.3398C126.479 63.2998 124.469 64.5598 122.629 66.1998C122.319 65.5198 121.969 64.8599 121.579 64.2099C123.269 62.2899 124.949 60.6098 127.159 59.3398H128.569V62.3398H128.589ZM120.969 63.2699C120.519 62.6099 120.009 61.9799 119.489 61.3799C119.909 60.6599 120.359 59.9699 120.849 59.3199H124.839C123.429 60.4599 122.139 61.7498 120.969 63.2498V63.2699ZM118.689 60.5598C118.249 60.1198 117.779 59.7198 117.309 59.3398H119.449C119.189 59.7398 118.939 60.1398 118.699 60.5598H118.679H118.689ZM117.589 88.1998C118.179 87.7098 118.719 87.1898 119.249 86.6299C122.459 88.0999 125.199 90.4898 127.949 92.8998C128.179 93.1398 128.389 93.4098 128.599 93.6698V102.33C126.769 96.4998 122.879 91.3798 117.599 88.1998H117.589ZM140.499 78.9298V111.13H130.909V80.4998C130.869 79.2999 129.999 78.2999 128.819 78.1098L128.329 78.0199C127.949 77.9499 127.629 77.7199 127.459 77.4099C127.369 77.2399 127.299 77.0398 127.299 76.8298C127.299 76.6399 127.339 76.4598 127.399 76.3098C127.559 75.9598 127.849 75.6998 128.249 75.6098L128.899 75.4899C130.029 75.2599 130.849 74.2698 130.909 73.1198V57.0199H113.609C113.419 56.9299 113.209 56.8298 113.019 56.7598C112.099 56.3598 111.139 56.0399 110.139 55.7999C110.109 55.7999 110.069 55.7998 110.039 55.7798C109.269 55.5898 108.489 55.4699 107.699 55.3799C107.399 55.3499 107.089 55.3298 106.779 55.3098C106.409 55.2898 106.069 55.2798 105.699 55.2798C105.159 55.2798 104.619 55.3099 104.099 55.3499C103.729 55.3799 103.389 55.4198 103.019 55.4698C102.199 55.5898 101.419 55.7698 100.629 55.9798C100.299 56.0798 99.9492 56.1898 99.6192 56.2898C99.0592 56.4798 98.4992 56.7098 97.9792 56.9498V56.9198H91.3692V50.1998H98.1692C98.5892 47.5598 99.4292 45.1499 100.649 43.0199C101.349 41.7799 102.199 40.6498 103.159 39.5798C103.789 38.8998 104.449 38.2398 105.169 37.6198C106.289 36.6898 107.489 35.8898 108.739 35.2298C109.839 34.6498 110.969 34.1598 112.159 33.7798C114.129 33.1498 116.219 32.7999 118.449 32.7099H119.369C119.999 32.7099 120.629 32.7298 121.239 32.7798C123.509 32.9398 125.649 33.4298 127.639 34.1898C128.299 34.4499 128.949 34.7298 129.559 35.0598C130.919 35.7598 132.189 36.6099 133.399 37.6299C133.839 37.9999 134.249 38.3998 134.659 38.7798C135.269 39.3698 135.809 40.0198 136.329 40.6798C137.449 42.1298 138.369 43.7198 139.089 45.4498C139.349 46.0998 139.599 46.7599 139.789 47.4599C140.049 48.3499 140.299 49.2598 140.449 50.1998H150.999V56.9198H140.519V78.9398V78.9198L140.499 78.9298Z" fill="white"/>
<path d="M174.679 59.8396C174.469 59.8396 174.259 59.8396 174.049 59.8796C168.489 32.5496 146.929 10.9896 119.659 5.4196V5.2296C119.659 2.3996 117.359 0.0996094 114.529 0.0996094H96.8093C93.9893 0.0996094 91.6793 2.4096 91.6793 5.2296V5.4196C64.4093 10.9896 42.8493 32.5696 37.2893 59.8796C37.0793 59.8596 36.8693 59.8396 36.6593 59.8396C33.8393 59.8396 31.5293 62.1496 31.5293 64.9696V82.7096C31.5293 85.5396 33.8293 87.8396 36.6593 87.8396C36.8693 87.8396 37.0793 87.8396 37.2893 87.7996C42.8393 115.15 64.3893 136.75 91.6993 142.33V142.45C91.6993 145.28 93.9993 147.58 96.8293 147.58H114.549C117.369 147.58 119.679 145.27 119.679 142.45V142.33C146.989 136.74 168.519 115.14 174.089 87.7996C174.299 87.8196 174.509 87.8396 174.719 87.8396C177.539 87.8396 179.849 85.5296 179.849 82.7096V64.9696C179.849 62.1396 177.549 59.8396 174.719 59.8396H174.689H174.679ZM178.339 82.7196C178.339 84.7496 176.699 86.3896 174.679 86.3896H174.329C173.789 86.3396 173.279 86.1596 172.849 85.9196C171.749 85.2896 171.019 84.0996 171.019 82.7396V64.9996C171.019 63.6596 171.749 62.4696 172.849 61.8396C173.299 61.5796 173.789 61.3996 174.329 61.3496C174.449 61.3496 174.559 61.3296 174.679 61.3296C176.699 61.3296 178.339 62.9696 178.339 64.9996V82.7396V82.7196ZM114.539 1.5596C116.529 1.5596 118.149 3.1696 118.199 5.1396V5.2296C118.199 5.7396 118.099 6.22961 117.899 6.65961C117.339 7.96961 116.029 8.8996 114.529 8.8996H96.8093C95.2893 8.8996 93.9993 7.96961 93.4393 6.65961C93.2493 6.21961 93.1393 5.7296 93.1393 5.2296V5.1396C93.1893 3.1496 94.8093 1.5596 96.7993 1.5596H114.519H114.539ZM33.0193 64.9796C33.0193 62.9496 34.6593 61.3096 36.6793 61.3096H37.1693C37.5393 61.3596 37.8793 61.4696 38.2193 61.6096C38.3193 61.6596 38.4293 61.7096 38.5293 61.7696C39.6093 62.3996 40.3593 63.5896 40.3593 64.9296V82.6696C40.3593 83.3496 40.1693 83.9996 39.8393 84.5396C39.5293 85.0796 39.0693 85.5196 38.5293 85.8296C38.0793 86.0896 37.5893 86.2696 37.0493 86.2996H36.6993C35.7393 86.2996 34.8493 85.9196 34.2093 85.2996C33.4993 84.6396 33.0393 83.6796 33.0393 82.6296V64.8896L33.0193 64.9796ZM93.7993 144.54C93.4193 143.98 93.1893 143.34 93.1693 142.62V142.46C93.1693 141.97 93.2693 141.52 93.4293 141.08C93.4793 140.96 93.5293 140.85 93.5893 140.73C94.1993 139.58 95.4193 138.77 96.8193 138.77H114.539C115.569 138.77 116.509 139.21 117.169 139.89C117.499 140.22 117.759 140.62 117.939 141.06C118.109 141.48 118.199 141.95 118.199 142.44V142.6C118.149 143.67 117.659 144.63 116.869 145.27C116.239 145.79 115.419 146.11 114.529 146.11H96.8093C95.5493 146.11 94.4593 145.48 93.7893 144.52V144.54H93.7993ZM119.389 140.8C118.689 138.77 116.789 137.32 114.539 137.32H96.8193C94.5693 137.32 92.6493 138.79 91.9693 140.8C65.2593 135.32 44.1893 114.15 38.7993 87.3796C40.5793 86.5796 41.8193 84.7796 41.8193 82.6996V64.9596C41.8193 62.8796 40.5793 61.0996 38.8193 60.2996C44.2293 33.5496 65.3093 12.3996 92.0093 6.93961C92.7193 8.92961 94.6093 10.3596 96.8393 10.3596H114.559C116.789 10.3596 118.679 8.92961 119.389 6.93961C146.089 12.4096 167.169 33.5496 172.579 60.2996C170.819 61.0996 169.579 62.8996 169.579 64.9596V82.6996C169.579 84.7796 170.819 86.5596 172.599 87.3796C167.209 114.17 146.149 135.33 119.429 140.8H119.389Z" fill="white"/>
<path d="M131.379 50.1405C131.219 49.5805 131.009 49.0605 130.789 48.5505C130.249 47.3105 129.519 46.1905 128.629 45.2305C128.159 44.7205 127.649 44.2505 127.109 43.8305C127.059 43.7905 127.019 43.7605 126.969 43.7305C125.749 42.8205 124.409 42.1605 122.959 41.7405C122.089 41.5005 121.179 41.3405 120.219 41.2705C119.909 41.2505 119.609 41.2305 119.299 41.2305C116.979 41.2305 114.889 41.7505 113.019 42.7805C112.569 43.0205 112.129 43.3005 111.709 43.6205C111.589 43.7105 111.469 43.7905 111.339 43.8805C109.459 45.3605 108.099 47.3205 107.289 49.6805C107.239 49.8405 107.189 49.9805 107.129 50.1305H131.369L131.379 50.1405ZM110.809 47.8105C111.369 47.0105 112.029 46.3105 112.799 45.7005C114.329 44.5005 116.149 43.8005 118.189 43.6005C117.999 43.8405 117.809 44.0905 117.609 44.3505C116.839 45.5005 116.419 46.6405 115.729 47.7905H110.829L110.809 47.8105ZM117.749 47.8105C118.429 46.7605 119.209 45.7505 120.089 44.7705C120.419 44.4005 120.749 44.0405 121.079 43.6705C122.529 43.9005 123.869 44.4005 125.059 45.1905C124.099 45.9905 123.179 46.8705 122.299 47.7905H117.749V47.8105ZM125.399 47.8105C125.849 47.4105 126.309 47.0105 126.779 46.6405C127.129 47.0105 127.459 47.3905 127.739 47.8105H125.399Z" fill="white"/>
<path d="M113.98 64.3203H111.09V84.5803H113.98V64.3203Z" fill="white"/>
<path d="M105.94 66.5798C105.42 65.6698 104.81 65.1298 104.53 64.8898C104.43 64.7998 104.36 64.7498 104.36 64.7498C103.54 64.1698 102.55 63.8398 101.47 63.8398C100.13 63.8398 98.9102 64.3598 98.0002 65.2198C97.0202 66.1498 96.4002 67.4598 96.4002 68.9198C96.4002 70.3798 97.0102 71.6799 98.0002 72.5999C98.0902 72.6699 98.1602 72.7598 98.2402 72.8298C99.1102 73.5498 100.25 73.9798 101.47 73.9798C102.03 73.9798 102.57 73.8898 103.07 73.7198C103.02 73.7898 102.97 73.8798 102.91 73.9498C102.61 74.3298 102.28 74.6299 101.92 74.8799C101.68 75.0399 101.41 75.1598 101.14 75.2598C100.72 75.3998 100.27 75.4698 99.7802 75.4698C99.1902 75.4698 98.5902 75.3098 98.0002 74.9998C97.9702 74.9998 97.9502 74.9599 97.9102 74.9599L96.0602 72.7798L95.6902 73.1098L93.9102 74.6798L95.6902 76.7099L97.5902 78.8898L102.54 84.5699H106.06L100.55 78.1098C101.95 77.9898 103.17 77.4998 104.19 76.6398C104.54 76.3598 104.87 76.0299 105.17 75.6599C105.8 74.9099 106.27 74.0898 106.57 73.2298V73.1798C107.01 71.5598 107.04 70.1798 106.85 69.0398C106.68 68.0298 106.34 67.2098 105.96 66.5798H105.94ZM103.69 70.2699C103.52 70.5799 103.29 70.8598 103.01 71.0898C102.87 71.2098 102.71 71.2998 102.56 71.3898C102.4 71.4798 102.23 71.5499 102.05 71.5999C101.88 71.6499 101.68 71.6898 101.51 71.6998H101.23C100.17 71.6998 99.2402 71.1098 98.7702 70.2298C98.5602 69.8298 98.4402 69.3698 98.4402 68.8898C98.4402 68.0198 98.8402 67.2298 99.4702 66.7198C99.6802 66.5498 99.9102 66.4099 100.17 66.2999C100.34 66.2299 100.52 66.1798 100.69 66.1398C100.86 66.1098 101.06 66.0898 101.25 66.0898H101.53C101.81 66.1198 102.09 66.1899 102.33 66.2999C102.42 66.3399 102.5 66.3698 102.57 66.4198C103.44 66.8898 104.03 67.8199 104.03 68.8799C104.03 69.3699 103.91 69.8198 103.7 70.2198L103.68 70.2598L103.69 70.2699Z" fill="white"/>
<path d="M93.3484 126.649L92.6484 130.399L94.8984 130.819L95.0184 130.229L93.5184 129.949L93.7084 128.939L95.0384 129.179L95.0684 128.969L95.1384 128.599L95.0684 128.579L93.8084 128.349L93.9784 127.369L95.0584 127.559L95.4784 127.649L95.5784 127.039L95.0684 126.949L93.3284 126.639L93.3484 126.649Z" fill="white"/>
<path d="M98.2498 129.661C98.1598 129.501 98.0398 129.361 97.8998 129.261C97.7598 129.161 97.5698 129.051 97.3398 128.931C97.1698 128.841 97.0398 128.771 96.9398 128.721C96.8398 128.671 96.7698 128.581 96.7098 128.511C96.6598 128.421 96.6398 128.341 96.6598 128.211C96.6798 128.071 96.7298 127.971 96.8298 127.911C96.9298 127.861 97.0398 127.821 97.1798 127.841C97.3398 127.861 97.4598 127.931 97.5498 128.031C97.6398 128.131 97.6698 128.261 97.6698 128.401L98.1598 128.471L98.4898 128.521C98.4898 128.191 98.3998 127.911 98.1898 127.681C98.1898 127.661 98.1598 127.651 98.1398 127.651C97.9298 127.461 97.6498 127.321 97.2898 127.271C96.9098 127.221 96.5798 127.271 96.3098 127.431C96.0498 127.591 95.8898 127.831 95.8598 128.151C95.8298 128.391 95.8598 128.591 95.9298 128.741C96.0198 128.901 96.1198 129.041 96.2598 129.121C96.3998 129.221 96.5698 129.331 96.7998 129.431C96.9698 129.521 97.1098 129.591 97.1998 129.661C97.2998 129.711 97.3698 129.801 97.4298 129.891C97.4798 129.981 97.4998 130.081 97.4798 130.201C97.4598 130.341 97.4098 130.431 97.3098 130.511C97.2098 130.601 97.0798 130.611 96.9298 130.581C96.7598 130.561 96.6198 130.481 96.5298 130.371C96.4398 130.251 96.3898 130.111 96.3898 129.951L95.5898 129.851C95.5898 130.081 95.6198 130.291 95.7298 130.481C95.8298 130.671 95.9898 130.831 96.1798 130.951C96.3698 131.071 96.6198 131.161 96.8798 131.191C97.1598 131.221 97.3898 131.211 97.5898 131.141C97.7998 131.071 97.9598 130.971 98.0798 130.811C98.1998 130.651 98.2698 130.501 98.3098 130.301V130.111C98.3098 130.011 98.3098 129.901 98.2598 129.801C98.2598 129.771 98.2398 129.711 98.2298 129.681L98.2598 129.661H98.2498Z" fill="white"/>
<path d="M98.8789 128.139L99.9289 128.239L99.6189 131.449L100.389 131.519L100.689 128.309L101.749 128.409L101.799 127.819L98.9389 127.539L98.8889 128.129L98.8789 128.139Z" fill="white"/>
<path d="M105.24 128.889C105.1 128.589 104.87 128.369 104.58 128.189C104.28 128.019 103.93 127.929 103.52 127.909L102.16 127.859L102 131.679L103.36 131.729C103.78 131.749 104.14 131.679 104.44 131.539C104.74 131.399 104.98 131.169 105.15 130.889C105.32 130.609 105.41 130.279 105.43 129.889V129.859C105.43 129.529 105.38 129.229 105.26 128.949C105.26 128.929 105.26 128.899 105.24 128.879V128.889ZM104.28 130.779C104.05 130.989 103.72 131.079 103.3 131.059H102.78L102.88 128.559H103.4C103.82 128.589 104.13 128.719 104.34 128.939C104.55 129.169 104.65 129.479 104.64 129.869C104.64 130.249 104.5 130.549 104.26 130.759L104.28 130.779Z" fill="white"/>
<path d="M106.898 127.979L106.918 128.699L107.498 128.679L107.568 131.809L108.368 131.789L108.278 127.949L106.898 127.989V127.979Z" fill="white"/>
<path d="M111.289 128.14C111.059 127.83 110.659 127.67 110.099 127.72C109.819 127.74 109.579 127.81 109.389 127.93C109.199 128.05 109.059 128.23 108.969 128.42C108.879 128.63 108.849 128.86 108.869 129.1C108.899 129.5 109.029 129.82 109.249 130.03C109.479 130.24 109.769 130.33 110.139 130.31C110.369 130.31 110.559 130.22 110.719 130.12C110.879 130 110.979 129.86 111.029 129.68C111.079 130.15 111.049 130.5 110.959 130.73C110.859 130.96 110.679 131.08 110.439 131.1C110.109 131.12 109.899 130.94 109.809 130.58L109.179 130.63H109.109C109.139 130.86 109.209 131.05 109.339 131.22C109.359 131.25 109.389 131.27 109.409 131.29C109.509 131.43 109.639 131.53 109.809 131.6C109.999 131.69 110.229 131.72 110.509 131.7C110.999 131.67 111.349 131.47 111.539 131.09C111.729 130.71 111.799 130.2 111.749 129.52C111.719 128.93 111.579 128.45 111.329 128.14H111.289ZM110.749 129.5C110.629 129.62 110.469 129.69 110.279 129.69C110.089 129.69 109.909 129.66 109.789 129.55C109.669 129.45 109.599 129.27 109.579 129.06C109.579 128.85 109.609 128.69 109.719 128.57C109.819 128.45 109.979 128.38 110.169 128.36C110.399 128.36 110.569 128.39 110.689 128.52C110.809 128.64 110.879 128.8 110.899 129.01C110.919 129.22 110.869 129.38 110.729 129.5H110.749Z" fill="white"/>
<path d="M111.84 127.689L111.93 128.349L113.69 128.119L112.68 131.489L113.46 131.389L114.44 127.929L114.37 127.369L111.84 127.679V127.689Z" fill="white"/>
<path d="M114.87 128.419L115.39 128.319L115.6 128.289C115.58 128.099 115.6 127.959 115.69 127.839C115.78 127.719 115.9 127.649 116.06 127.609C116.22 127.569 116.34 127.609 116.44 127.659C116.54 127.729 116.61 127.829 116.65 127.989C116.72 128.339 116.49 128.569 116 128.649L115.84 128.679L115.96 129.289L116.12 129.259C116.38 129.209 116.61 129.219 116.77 129.289C116.93 129.359 117.01 129.479 117.05 129.669C117.08 129.829 117.05 129.949 116.98 130.069C116.91 130.169 116.77 130.259 116.61 130.279C116.44 130.319 116.28 130.279 116.16 130.209C116.16 130.209 116.13 130.209 116.11 130.189C115.99 130.099 115.88 129.959 115.83 129.769L115.1 129.909C115.2 130.329 115.41 130.609 115.69 130.769C115.92 130.889 116.2 130.939 116.49 130.929C116.58 130.929 116.66 130.929 116.75 130.899C117.15 130.829 117.43 130.669 117.6 130.429C117.77 130.189 117.84 129.909 117.77 129.569C117.68 129.119 117.35 128.849 116.81 128.799V128.769C117.02 128.699 117.18 128.559 117.26 128.389C117.36 128.219 117.38 128.009 117.35 127.759C117.32 127.569 117.23 127.409 117.11 127.269C116.99 127.129 116.83 127.039 116.62 126.969C116.41 126.899 116.18 126.919 115.94 126.969C115.56 127.039 115.26 127.199 115.07 127.439L115.05 127.459C114.86 127.699 114.79 128.039 114.84 128.419H114.86H114.87Z" fill="white"/>
<path d="M17.9191 176.569C18.0591 174.159 18.1191 172.199 18.0691 170.679C18.0291 169.159 17.8891 168.069 17.6591 167.419C17.3791 166.619 16.9191 165.919 16.2791 165.289C15.6391 164.659 15.3091 164.319 15.2791 164.239C15.2191 164.059 15.2191 163.909 15.2991 163.779C15.3691 163.649 15.5191 163.539 15.7391 163.439C16.6191 163.039 17.2491 162.769 17.6091 162.639C17.9791 162.509 18.2391 162.439 18.4091 162.439C18.8291 162.439 19.1991 162.569 19.5291 162.829C19.8491 163.089 20.0991 163.439 20.2591 163.889C20.3691 164.199 20.3691 165.839 20.2591 168.799C20.1591 171.739 20.0991 174.239 20.0591 176.309C20.0591 176.619 20.0391 177.039 20.0391 177.589C20.0091 180.319 19.5991 181.689 18.8091 181.689C18.0191 181.689 17.2391 180.879 16.4591 179.249C16.3591 179.049 16.2791 178.889 16.2291 178.779C15.4191 177.079 14.3491 175.389 13.0491 173.709C11.7391 172.029 10.3791 170.609 8.98909 169.459C8.18909 168.799 7.45908 168.259 6.79908 167.849C6.14908 167.429 5.49908 167.099 4.85908 166.839C4.02908 166.499 3.05909 166.279 1.94909 166.169C1.59909 166.139 1.34908 166.109 1.20908 166.069C0.959081 166.009 0.759084 165.909 0.619084 165.759C0.479084 165.609 0.359087 165.369 0.239087 165.039C0.169087 164.839 0.159083 164.669 0.219083 164.539C0.279083 164.409 0.439086 164.249 0.699086 164.069C1.38909 163.599 2.01909 163.269 2.58909 163.069C3.15909 162.879 3.77908 162.779 4.43908 162.779C6.57908 162.779 8.87908 164.039 11.3691 166.579C13.8591 169.109 16.0291 172.439 17.8891 176.569L17.9191 176.589V176.569ZM4.70908 168.069C5.44908 168.379 5.92908 168.619 6.13908 168.789C6.35908 168.959 6.50908 169.179 6.59908 169.429C6.70908 169.749 6.78908 170.589 6.82908 171.929C6.86908 173.269 6.84909 174.779 6.76909 176.459C6.67909 178.359 6.44908 179.709 6.06908 180.519C5.68908 181.329 5.10909 181.729 4.30909 181.729C3.83909 181.729 3.33909 181.589 2.80909 181.299C2.27909 181.009 1.66909 180.559 0.979085 179.949C0.959085 179.359 0.979082 178.859 0.999082 178.489C1.02908 178.109 1.09908 177.779 1.17908 177.499C1.22908 177.499 1.29909 177.499 1.37909 177.519C1.45909 177.519 1.51909 177.539 1.55909 177.539C2.87909 177.539 3.76908 176.879 4.22908 175.559C4.69908 174.239 4.84908 171.739 4.68908 168.059L4.70908 168.069Z" fill="white"/>
<path d="M29.6591 181.75C28.5691 181.75 27.4391 181.27 26.2991 180.31C25.1491 179.35 24.3291 178.19 23.8491 176.81C23.5191 175.88 23.4191 174.98 23.5391 174.12C23.6591 173.26 24.0091 172.44 24.5791 171.65C24.9991 171.07 25.4691 170.59 25.9791 170.22C26.4991 169.85 26.9291 169.67 27.2491 169.67C27.4191 169.67 27.5691 169.72 27.6991 169.81C27.8291 169.91 27.9191 170.04 27.9791 170.2C28.0391 170.38 27.9791 170.67 27.7791 171.04C27.6491 171.29 27.5591 171.49 27.4891 171.64C27.2491 172.28 27.1191 172.96 27.0991 173.67C27.0791 174.39 27.1991 175.06 27.4291 175.71C27.7091 176.5 28.0991 177.14 28.6091 177.66C29.1191 178.17 29.6191 178.42 30.1291 178.42C30.6391 178.42 31.1291 178.25 31.6891 177.92C32.2491 177.59 32.6091 177.42 32.7591 177.42C32.9091 177.42 33.0691 177.47 33.1991 177.57C33.3391 177.67 33.4391 177.8 33.4891 177.94C33.5691 178.17 33.5391 178.42 33.3891 178.72C33.2491 179.02 32.9291 179.42 32.4691 179.93C31.8791 180.58 31.3591 181.05 30.9191 181.33C30.4791 181.61 30.0491 181.76 29.6491 181.76L29.6691 181.74L29.6591 181.75ZM33.7091 170.2C33.9891 171 34.0191 171.75 33.8091 172.48C33.5891 173.2 33.1591 173.85 32.4891 174.39C32.0291 174.78 31.5191 175.09 30.9491 175.32C30.3891 175.56 29.9091 175.68 29.5091 175.68C29.3691 175.68 29.2091 175.62 29.0391 175.48C28.8691 175.34 28.7691 175.21 28.7091 175.05C28.6391 174.86 28.7791 174.62 29.1291 174.36C29.3191 174.22 29.4591 174.11 29.5491 174.03C29.8491 173.73 30.0391 173.39 30.1391 173.02C30.2391 172.64 30.2191 172.28 30.0991 171.93C29.9991 171.66 29.8191 171.38 29.5291 171.06C29.2391 170.75 29.0791 170.52 29.0191 170.38C28.8891 170.02 29.1091 169.73 29.6591 169.51C29.8191 169.45 29.9391 169.39 30.0091 169.36C30.2691 169.25 30.5991 169.05 30.9991 168.77C31.3991 168.49 31.7191 168.35 31.9691 168.35C32.2891 168.35 32.6091 168.52 32.9291 168.86C33.2391 169.2 33.4991 169.65 33.6991 170.2V170.18L33.7091 170.2Z" fill="white"/>
<path d="M40.7984 181.1C40.7984 181.53 40.7984 181.85 40.8184 182.06C40.8384 182.28 40.8784 182.45 40.9284 182.61C41.0284 182.88 41.2684 183.22 41.6484 183.62C42.0284 184.02 42.2484 184.29 42.2984 184.42C42.3884 184.68 42.3484 184.98 42.1784 185.34C41.9984 185.69 41.7084 186.09 41.2584 186.52C40.9584 186.81 40.6584 187.03 40.3684 187.18C40.0784 187.33 39.8084 187.41 39.5484 187.41C39.0584 187.41 38.5584 187.18 38.0584 186.7C37.5484 186.23 37.1784 185.65 36.9284 184.95C36.7084 184.33 36.6084 183.37 36.6284 182.06C36.6284 181.88 36.6284 181.74 36.6284 181.65L36.7484 173.91C36.7484 173.48 36.7484 173.1 36.7084 172.76C36.6784 172.42 36.6384 172.19 36.5884 172.05C36.5084 171.82 36.1884 171.53 35.6184 171.16C35.0484 170.79 34.7084 170.46 34.6084 170.16C34.4684 169.75 34.7584 169.47 35.4884 169.32C35.6284 169.3 35.7284 169.27 35.8084 169.26C36.1884 169.18 36.6984 169.02 37.3584 168.78C38.0184 168.54 38.5084 168.42 38.8084 168.42C39.2184 168.42 39.6184 168.56 40.0184 168.86C40.4184 169.16 40.6884 169.51 40.8384 169.92C40.8984 170.08 40.9384 170.34 40.9684 170.68C40.9984 171.02 41.0084 171.44 41.0084 171.95L40.7884 181.09L40.7984 181.1ZM48.6384 172.58C49.0584 173.75 49.1984 174.9 49.0884 176.01C48.9784 177.12 48.6084 178.1 47.9784 178.94C47.4584 179.64 46.7384 180.21 45.8084 180.66C44.8884 181.1 43.9584 181.33 43.0184 181.33C42.6984 181.33 42.4184 181.26 42.1984 181.13C41.9784 180.99 41.8184 180.8 41.7284 180.55C41.5984 180.18 41.8484 179.86 42.4784 179.58C42.9084 179.4 43.2384 179.22 43.4384 179.06C44.1484 178.49 44.6084 177.71 44.8184 176.73C45.0284 175.75 44.9484 174.74 44.5984 173.73C44.4184 173.22 44.2084 172.85 43.9884 172.6C43.7584 172.35 43.4384 172.15 43.0184 172.01C42.9484 171.99 42.8484 171.95 42.7284 171.91C42.1984 171.74 41.8884 171.51 41.7784 171.22C41.6484 170.86 41.9584 170.41 42.7184 169.86C42.8184 169.8 42.8884 169.74 42.9384 169.71C43.4484 169.32 43.8584 169.06 44.1584 168.92C44.4584 168.78 44.7284 168.71 44.9784 168.71C45.6484 168.71 46.3184 169.07 46.9984 169.8C47.6784 170.52 48.2284 171.46 48.6384 172.63L48.6184 172.61L48.6384 172.58Z" fill="white"/>
<path d="M59.1996 171.669C58.9396 171.279 58.6496 170.989 58.3696 170.829C58.0896 170.659 57.7396 170.569 57.3496 170.569C56.9596 170.569 56.5796 170.679 56.2696 170.899C55.9596 171.119 55.6796 171.459 55.4296 171.909C55.0296 172.649 54.7997 173.489 54.7197 174.409C54.6597 175.329 54.7696 176.199 55.0596 177.019C55.2296 177.499 55.4497 177.839 55.7197 178.049C55.9897 178.259 56.3597 178.359 56.8297 178.359C56.8897 178.359 57.0096 178.359 57.1696 178.339C57.3296 178.319 57.4696 178.319 57.5696 178.319C57.7296 178.319 57.8796 178.359 58.0096 178.449C58.1496 178.539 58.2297 178.649 58.2797 178.789C58.3297 178.929 58.3197 179.079 58.2497 179.229C58.1797 179.379 57.9796 179.619 57.6496 179.939L57.5896 179.999C56.5196 181.099 55.6797 181.659 55.0797 181.659C54.3597 181.659 53.6296 181.299 52.8796 180.569C52.1296 179.849 51.5596 178.939 51.1796 177.839C50.7896 176.729 50.6497 175.599 50.7797 174.469C50.9097 173.339 51.2797 172.319 51.8897 171.399C52.4497 170.569 53.1296 169.929 53.9496 169.479C54.7596 169.029 55.6197 168.799 56.5297 168.799C57.0797 168.799 57.5896 168.869 58.0696 169.029C58.5496 169.179 59.0096 169.419 59.4596 169.729L59.5596 169.099C59.5896 168.829 59.7396 168.639 59.9796 168.529C60.2296 168.419 60.6196 168.359 61.1397 168.359C61.7397 168.359 62.2297 168.439 62.6097 168.589C62.9897 168.739 63.2196 168.969 63.3196 169.259C63.3796 169.439 63.3796 170.149 63.2996 171.399C63.2296 172.589 63.1696 173.589 63.1496 174.399C63.1496 174.599 63.1296 174.879 63.0996 175.239C63.0396 175.959 63.0696 176.479 63.1696 176.779C63.2696 177.069 63.5196 177.419 63.9196 177.839C64.3096 178.259 64.5296 178.519 64.5696 178.639C64.6696 178.909 64.6296 179.209 64.4496 179.559C64.2696 179.909 63.9696 180.299 63.5296 180.739C63.2296 181.029 62.9396 181.249 62.6496 181.409C62.3596 181.559 62.0896 181.639 61.8396 181.639C61.3396 181.639 60.8396 181.399 60.3396 180.919C59.8296 180.439 59.4496 179.839 59.1896 179.109C59.0596 178.739 58.9696 178.329 58.9396 177.879C58.8996 177.429 58.9096 176.759 58.9596 175.879L59.2197 171.649L59.1996 171.669Z" fill="white"/>
<path d="M78.1686 174.62C78.1486 175.05 78.1486 175.44 78.1686 175.79C78.1886 176.14 78.2386 176.41 78.3086 176.59C78.4886 177.1 78.8086 177.56 79.2786 178C79.7486 178.43 79.9886 178.68 80.0086 178.72C80.0586 178.85 80.0286 179.11 79.9186 179.5C79.8186 179.89 79.6486 180.3 79.4286 180.75C79.1286 181.34 78.7486 181.82 78.2686 182.18C77.7886 182.54 77.3086 182.73 76.8286 182.73C76.2286 182.73 75.6486 182.5 75.0986 182.02C74.5486 181.55 74.1386 180.93 73.8786 180.17C73.5886 179.34 73.4986 177.77 73.6286 175.48C73.6486 175.1 73.6586 174.81 73.6786 174.6L73.9086 170.31C73.9386 169.6 73.9286 168.95 73.8886 168.36C73.8486 167.77 73.7786 167.32 73.6686 167.03C73.5286 166.63 73.1586 166.23 72.5786 165.84C71.9886 165.45 71.6386 165.08 71.5086 164.72C71.4086 164.42 71.4086 164.19 71.5086 164.02C71.6186 163.85 71.8286 163.77 72.1386 163.77C72.2786 163.77 72.6286 163.83 73.1886 163.95C73.7486 164.06 74.2186 164.12 74.5886 164.12C74.9586 164.12 75.3586 164.06 75.8586 163.95C76.3586 163.84 76.7086 163.77 76.9086 163.77C77.2886 163.77 77.6186 163.85 77.9086 164.02C78.1986 164.19 78.3886 164.41 78.4886 164.67C78.5886 164.96 78.6286 165.39 78.5886 165.94C78.5886 166.05 78.5886 166.14 78.5886 166.2L78.1686 174.65V174.63V174.62ZM85.0786 173.2C84.7886 172.96 84.5186 172.7 84.2586 172.43C83.9986 172.16 83.7586 171.85 83.5186 171.53C84.2686 170.91 84.7586 170.38 84.9586 169.92C85.1686 169.46 85.1686 168.96 84.9786 168.42C84.7786 167.85 84.4286 167.37 83.9586 167C83.4886 166.63 82.9786 166.45 82.4486 166.45C82.0186 166.45 81.6186 166.56 81.2486 166.79C80.8786 167.02 80.6486 167.13 80.5686 167.13C80.3886 167.13 80.1986 167.06 79.9986 166.9C79.7986 166.75 79.6686 166.59 79.6086 166.42C79.4086 165.86 79.7086 165.27 80.5286 164.67C81.3386 164.07 82.3886 163.77 83.6486 163.77C84.9086 163.77 86.0286 164.12 87.0886 164.83C88.1586 165.54 88.8786 166.42 89.2486 167.47C89.6986 168.73 89.5586 169.86 88.8486 170.83C88.1286 171.81 86.8686 172.6 85.0586 173.21H85.0786V173.2ZM79.6586 173.54C79.6386 173.28 79.6386 173.03 79.6386 172.78C79.6386 172.52 79.6886 172.28 79.7386 172.03C80.6086 172.03 81.4486 172.21 82.2486 172.59C83.0586 172.97 84.0986 173.69 85.3986 174.77C85.7186 175.04 86.1586 175.41 86.6986 175.89C88.2286 177.23 89.3486 177.9 90.0686 177.9C90.5786 177.9 90.9886 177.67 91.2786 177.22C91.5786 176.77 91.7886 176.54 91.8886 176.54C92.2886 176.54 92.6986 176.72 93.1186 177.09C93.5386 177.46 93.8386 177.91 94.0286 178.43C94.4186 179.52 94.2986 180.5 93.6886 181.37C93.0786 182.25 92.2086 182.68 91.0686 182.68C89.9986 182.68 88.8886 182.23 87.7086 181.32C86.5386 180.41 85.2886 179.04 83.9686 177.2C83.1586 176.07 82.4386 175.25 81.8286 174.74C81.2086 174.23 80.4686 173.82 79.6286 173.53H79.6486L79.6586 173.54Z" fill="white"/>
<path d="M95.9783 175.17C95.9783 174.78 95.9782 174.41 95.9382 174.04C95.9082 173.69 95.8682 173.44 95.8182 173.29C95.7382 173.06 95.4083 172.77 94.8283 172.4C94.2483 172.03 93.9083 171.7 93.8083 171.4C93.6683 170.99 93.9482 170.72 94.6882 170.58C94.8382 170.55 94.9482 170.52 95.0182 170.5C95.4082 170.42 95.9283 170.27 96.5883 170.03C97.2583 169.79 97.7482 169.67 98.0482 169.67C98.4582 169.67 98.8583 169.81 99.2583 170.1C99.6483 170.39 99.9283 170.74 100.078 171.16C100.128 171.3 100.168 171.55 100.188 171.92C100.208 172.28 100.218 172.7 100.208 173.17L100.048 177.93C100.048 178.07 100.068 178.23 100.088 178.38C100.118 178.53 100.158 178.69 100.218 178.85C100.308 179.1 100.438 179.29 100.608 179.44C100.788 179.59 101.008 179.71 101.308 179.78C101.398 179.8 101.498 179.83 101.628 179.86C102.088 179.96 102.358 180.15 102.458 180.42C102.518 180.6 102.508 180.77 102.408 180.94C102.308 181.11 102.108 181.3 101.798 181.52C101.248 181.89 100.748 182.16 100.288 182.35C99.8283 182.54 99.3882 182.62 98.9882 182.62C98.3282 182.62 97.7183 182.43 97.1683 182.03C96.6083 181.64 96.2183 181.15 96.0083 180.56C95.8683 180.15 95.8083 179.5 95.8583 178.6C95.8783 178.45 95.8782 178.33 95.8782 178.25L95.9882 175.12L95.9683 175.14L95.9783 175.17ZM107.238 176.36V176.54C107.208 177.1 107.238 177.53 107.338 177.82C107.438 178.11 107.678 178.46 108.078 178.87C108.468 179.28 108.678 179.55 108.728 179.67C108.818 179.93 108.778 180.22 108.598 180.57C108.418 180.92 108.118 181.3 107.678 181.75C107.378 182.04 107.078 182.26 106.788 182.42C106.498 182.57 106.228 182.65 105.978 182.65C105.478 182.65 104.978 182.41 104.478 181.93C103.968 181.46 103.598 180.85 103.328 180.12C103.118 179.53 103.038 178.21 103.088 176.19C103.118 174.74 103.138 173.57 103.118 172.65C103.118 172.51 103.118 172.3 103.098 172.03C103.048 170.45 103.678 169.67 104.978 169.67C105.558 169.67 106.088 169.78 106.548 170.01C107.018 170.24 107.308 170.52 107.428 170.85C107.488 171.03 107.508 171.4 107.488 171.98V172.13L107.228 176.35L107.238 176.36Z" fill="white"/>
<path d="M117.628 179.48C117.708 179.71 117.528 180.05 117.108 180.49L117.028 180.58C116.928 180.68 116.808 180.81 116.638 180.97C115.558 182.09 114.778 182.65 114.278 182.65C113.658 182.65 112.948 182.22 112.118 181.35C111.298 180.48 110.688 179.51 110.308 178.42C109.858 177.16 109.718 175.89 109.868 174.62C110.018 173.36 110.438 172.28 111.138 171.4C111.588 170.85 112.138 170.44 112.788 170.15C113.438 169.86 114.158 169.72 114.948 169.72C115.608 169.72 116.148 169.81 116.598 169.99C117.038 170.17 117.308 170.4 117.418 170.7C117.568 171.13 117.208 171.36 116.338 171.41C115.868 171.43 115.538 171.48 115.358 171.54C114.618 171.81 114.108 172.51 113.828 173.65C113.548 174.78 113.608 175.93 114.008 177.08C114.198 177.63 114.498 178.09 114.888 178.42C115.278 178.76 115.688 178.93 116.128 178.93C116.148 178.93 116.228 178.93 116.368 178.91C116.508 178.89 116.628 178.89 116.738 178.89C116.958 178.89 117.148 178.94 117.298 179.04C117.448 179.14 117.558 179.29 117.628 179.49V179.48ZM122.528 176.35C122.528 176.65 122.528 176.94 122.578 177.24C122.608 177.54 122.658 177.76 122.718 177.92C122.818 178.19 123.038 178.52 123.388 178.91C123.738 179.3 123.938 179.55 123.978 179.65C124.078 179.92 124.038 180.22 123.868 180.58C123.698 180.93 123.398 181.33 122.968 181.75C122.668 182.03 122.378 182.25 122.078 182.41C121.778 182.57 121.498 182.64 121.248 182.64C120.748 182.64 120.248 182.4 119.748 181.92C119.238 181.44 118.858 180.84 118.598 180.11C118.378 179.51 118.298 178.66 118.358 177.59C118.358 177.28 118.378 177.04 118.378 176.88L118.438 169.27C118.438 168.85 118.438 168.47 118.398 168.13C118.368 167.79 118.328 167.54 118.268 167.39C118.188 167.16 117.858 166.86 117.278 166.49C116.698 166.12 116.358 165.79 116.258 165.49C116.118 165.1 116.398 164.83 117.098 164.69C117.258 164.67 117.388 164.64 117.478 164.63C117.868 164.54 118.398 164.38 119.048 164.13C119.708 163.88 120.188 163.76 120.498 163.76C120.908 163.76 121.308 163.91 121.708 164.21C122.108 164.51 122.378 164.87 122.528 165.29C122.588 165.44 122.618 165.68 122.638 165.97C122.658 166.28 122.658 166.71 122.638 167.27L122.508 176.33L122.528 176.35Z" fill="white"/>
<path d="M126.55 175.17C126.57 174.8 126.55 174.44 126.53 174.08C126.5 173.72 126.45 173.46 126.39 173.3C126.31 173.07 125.99 172.78 125.42 172.41C124.85 172.04 124.51 171.71 124.41 171.41C124.27 171 124.55 170.73 125.29 170.59C125.44 170.56 125.55 170.53 125.64 170.51C126.02 170.43 126.53 170.27 127.2 170.02C127.87 169.77 128.35 169.65 128.65 169.65C129.06 169.65 129.46 169.79 129.85 170.09C130.24 170.39 130.51 170.75 130.66 171.18C130.72 171.35 130.76 171.63 130.8 172.02C130.83 172.41 130.84 172.8 130.82 173.2L130.62 176.37C130.62 176.37 130.62 176.48 130.6 176.59C130.58 177.12 130.6 177.52 130.71 177.8C130.81 178.08 131.06 178.43 131.44 178.85C131.83 179.27 132.05 179.53 132.09 179.66C132.19 179.93 132.15 180.23 131.97 180.58C131.79 180.93 131.49 181.32 131.05 181.76C130.75 182.05 130.45 182.27 130.16 182.43C129.87 182.58 129.6 182.66 129.35 182.66C128.85 182.66 128.35 182.42 127.83 181.94C127.32 181.47 126.93 180.86 126.67 180.13C126.44 179.46 126.36 178.41 126.44 176.98V176.92L126.54 175.18L126.55 175.17ZM137.45 170.79C137.51 170.97 137.51 171.39 137.43 172.03C137.35 172.67 137.2 173.34 136.98 174.05C136.88 174.35 136.8 174.54 136.72 174.61C136.64 174.69 136.54 174.72 136.41 174.72C136.29 174.72 136.04 174.65 135.65 174.51C135.26 174.37 134.96 174.3 134.73 174.3C134.27 174.3 133.86 174.41 133.52 174.65C133.17 174.88 132.95 175 132.87 175C132.67 175 132.49 174.93 132.32 174.78C132.15 174.64 132.03 174.44 131.94 174.2C131.8 173.8 131.81 173.29 131.99 172.68C132.16 172.07 132.46 171.49 132.89 170.94C133.24 170.51 133.61 170.19 134.02 169.98C134.43 169.76 134.89 169.66 135.38 169.66C135.87 169.66 136.33 169.76 136.7 169.97C137.08 170.18 137.33 170.45 137.46 170.79H137.45Z" fill="white"/>
<path d="M147.459 172.679C147.199 172.289 146.909 171.999 146.629 171.839C146.349 171.669 145.999 171.579 145.609 171.579C145.219 171.579 144.839 171.689 144.529 171.909C144.219 172.129 143.939 172.469 143.689 172.919C143.289 173.659 143.059 174.499 142.979 175.419C142.919 176.339 143.029 177.209 143.319 178.029C143.489 178.509 143.709 178.849 143.979 179.059C144.249 179.269 144.619 179.369 145.089 179.369C145.149 179.369 145.269 179.369 145.429 179.349C145.599 179.349 145.739 179.329 145.829 179.329C145.989 179.329 146.139 179.369 146.269 179.459C146.409 179.549 146.489 179.659 146.539 179.799C146.589 179.939 146.579 180.089 146.509 180.239C146.439 180.389 146.239 180.629 145.909 180.949L145.849 181.009C144.779 182.109 143.939 182.669 143.339 182.669C142.629 182.669 141.889 182.309 141.139 181.579C140.389 180.859 139.819 179.949 139.439 178.849C139.049 177.739 138.909 176.609 139.039 175.479C139.169 174.349 139.539 173.329 140.149 172.409C140.709 171.579 141.389 170.939 142.209 170.489C143.019 170.039 143.879 169.809 144.789 169.809C145.339 169.809 145.849 169.879 146.329 170.039C146.809 170.189 147.269 170.429 147.719 170.739L147.819 170.109C147.849 169.839 147.999 169.649 148.249 169.539C148.499 169.429 148.879 169.369 149.409 169.369C150.009 169.369 150.509 169.449 150.879 169.599C151.249 169.749 151.489 169.979 151.589 170.269C151.649 170.449 151.649 171.159 151.569 172.409C151.499 173.599 151.439 174.599 151.419 175.409C151.419 175.609 151.399 175.889 151.369 176.249C151.309 176.969 151.339 177.489 151.439 177.789C151.539 178.079 151.789 178.429 152.189 178.849C152.579 179.269 152.799 179.529 152.839 179.649C152.939 179.919 152.899 180.219 152.719 180.569C152.539 180.919 152.239 181.309 151.789 181.749C151.489 182.039 151.199 182.259 150.909 182.419C150.619 182.569 150.349 182.649 150.099 182.649C149.599 182.649 149.099 182.409 148.599 181.929C148.089 181.449 147.719 180.849 147.459 180.119C147.329 179.749 147.239 179.339 147.209 178.889C147.169 178.439 147.179 177.769 147.229 176.889L147.489 172.659L147.459 172.679Z" fill="white"/>
<path d="M157.388 163.829C157.808 163.829 158.218 163.979 158.628 164.279C159.028 164.579 159.308 164.939 159.458 165.359C159.558 165.669 159.598 167.639 159.558 171.289C159.518 174.709 159.498 177.599 159.498 179.979V180.059C159.518 181.719 158.868 182.539 157.568 182.539C156.988 182.539 156.468 182.429 156.018 182.199C155.568 181.969 155.278 181.689 155.158 181.329C155.088 181.119 155.088 180.079 155.158 178.179C155.218 176.599 155.258 175.279 155.278 174.219C155.338 171.769 155.368 170.099 155.338 169.239C155.318 168.369 155.258 167.799 155.158 167.529C155.058 167.259 154.728 166.939 154.168 166.549C153.608 166.159 153.278 165.829 153.178 165.549C153.038 165.129 153.358 164.859 154.178 164.729C154.308 164.709 154.398 164.699 154.478 164.689C154.888 164.629 155.408 164.459 156.028 164.199C156.648 163.939 157.098 163.809 157.368 163.809L157.388 163.829ZM165.938 169.109C166.508 169.409 166.988 169.719 167.368 170.039C167.748 170.359 167.978 170.649 168.078 170.919C168.198 171.249 168.178 171.679 168.038 172.169C167.898 172.679 167.648 173.019 167.298 173.219C167.128 173.239 166.858 173.269 166.478 173.299C165.088 173.399 164.018 173.699 163.278 174.219C162.708 174.619 162.258 175.139 161.908 175.799C161.558 176.449 161.278 176.769 161.078 176.769C160.978 176.769 160.888 176.719 160.798 176.629C160.698 176.539 160.628 176.429 160.578 176.289C160.438 175.889 160.518 175.159 160.838 174.089C161.148 173.029 161.638 172.089 162.288 171.269C162.758 170.679 163.308 170.189 163.928 169.819C164.548 169.449 165.218 169.209 165.948 169.089L165.938 169.109ZM165.888 182.549C165.218 182.549 164.628 182.329 164.138 181.899C163.638 181.469 163.248 180.819 162.938 179.949C162.598 178.989 162.428 178.229 162.428 177.669C162.428 177.109 162.588 176.829 162.908 176.829C163.108 176.829 163.588 177.099 164.338 177.619C165.088 178.139 165.698 178.409 166.188 178.409C166.498 178.409 166.868 178.239 167.308 177.909C167.738 177.579 168.078 177.409 168.318 177.409C168.498 177.409 168.648 177.459 168.768 177.549C168.888 177.649 168.988 177.789 169.048 177.979C169.148 178.259 169.178 178.599 169.138 178.989C169.098 179.379 168.988 179.779 168.798 180.179C168.448 180.949 168.018 181.539 167.518 181.929C167.018 182.329 166.478 182.529 165.868 182.529V182.549H165.888Z" fill="white"/>
<path d="M173.78 182.52C172.98 182.52 172.19 182.29 171.41 181.84C170.63 181.39 170.14 180.88 169.93 180.28C169.72 179.69 169.79 179.04 170.16 178.35C170.53 177.66 170.98 177.32 171.52 177.32C171.8 177.32 172.05 177.41 172.26 177.59C172.47 177.77 172.64 178.02 172.75 178.35C172.77 178.4 172.8 178.5 172.85 178.66C172.9 178.82 172.94 178.95 172.98 179.05C173.2 179.67 173.55 180.22 174.05 180.74C174.55 181.25 174.81 181.54 174.83 181.61C174.94 181.92 174.92 182.16 174.76 182.3C174.6 182.44 174.27 182.52 173.79 182.52H173.78ZM177.08 182.52C176.78 182.52 176.53 182.46 176.33 182.34C176.13 182.23 175.98 182.06 175.9 181.83C175.84 181.68 175.9 181.35 176.1 180.83C176.28 180.32 176.28 179.8 176.1 179.27C175.91 178.73 174.94 177.61 173.19 175.91L172.86 175.6L172.76 175.5C171.44 174.22 170.68 173.27 170.46 172.65C170.16 171.79 170.22 171.07 170.66 170.51C171.09 169.95 171.81 169.67 172.79 169.67C173.23 169.67 173.59 169.73 173.86 169.84C174.13 169.95 174.3 170.11 174.38 170.33C174.41 170.43 174.38 170.64 174.3 170.99C174.21 171.34 174.23 171.67 174.34 171.99C174.52 172.5 175.22 173.35 176.43 174.53L176.49 174.58C177.75 175.82 178.59 176.73 179.01 177.29C179.44 177.86 179.75 178.43 179.95 179C180.29 179.97 180.17 180.8 179.59 181.48C179 182.16 178.17 182.51 177.1 182.51H177.08V182.52ZM180.19 171.34C180.45 172.06 180.41 172.71 180.11 173.29C179.8 173.88 179.35 174.17 178.76 174.17C178.22 174.17 177.72 173.74 177.27 172.88C177.13 172.61 177.01 172.39 176.92 172.24C176.69 171.85 176.38 171.46 176 171.08C175.62 170.7 175.41 170.46 175.38 170.36C175.32 170.18 175.32 170.01 175.4 169.88C175.48 169.75 175.62 169.68 175.82 169.68C175.94 169.68 176.14 169.72 176.44 169.79C176.74 169.86 176.96 169.9 177.12 169.9C177.3 169.9 177.52 169.86 177.79 169.79C178.05 169.71 178.25 169.68 178.38 169.68C178.76 169.68 179.11 169.83 179.43 170.13C179.75 170.43 180.01 170.83 180.19 171.34Z" fill="white"/>
<path d="M187.299 167.29L187.099 177.56C187.099 178.08 187.119 178.8 187.169 179.7C187.219 180.61 187.229 181.23 187.199 181.56C187.149 181.95 187.019 182.21 186.799 182.33C186.579 182.45 186.059 182.51 185.249 182.51C184.439 182.51 183.899 182.44 183.519 182.29C183.129 182.15 182.879 181.9 182.759 181.57C182.669 181.33 182.679 180.81 182.759 180.02C182.849 179.22 182.899 178.57 182.899 178.07L183.039 169.27C183.039 168.84 183.019 168.44 182.999 168.09C182.979 167.74 182.939 167.5 182.899 167.39C182.819 167.16 182.489 166.86 181.909 166.49C181.329 166.12 180.989 165.79 180.889 165.49C180.749 165.1 181.029 164.83 181.729 164.69C181.889 164.67 182.019 164.64 182.109 164.63C182.489 164.54 183.029 164.38 183.679 164.13C184.339 163.88 184.818 163.76 185.118 163.76C185.528 163.76 185.929 163.91 186.329 164.21C186.729 164.51 186.999 164.87 187.149 165.29C187.199 165.43 187.229 165.64 187.249 165.94C187.269 166.24 187.279 166.68 187.269 167.27L187.299 167.29ZM191.349 182.66C190.909 182.66 190.339 182.3 189.649 181.58L189.569 181.5L189.509 181.44C188.839 180.75 188.449 180.25 188.349 179.95C188.279 179.75 188.279 179.57 188.349 179.44C188.409 179.3 188.529 179.24 188.699 179.24C188.899 179.24 189.299 179.34 189.889 179.54C190.479 179.74 190.878 179.85 191.088 179.85C191.638 179.85 191.958 179.34 192.058 178.32C192.158 177.3 191.969 176.12 191.489 174.76C191.269 174.12 190.979 173.63 190.649 173.3C190.319 172.97 189.849 172.71 189.269 172.5C189.189 172.48 189.069 172.44 188.909 172.39C188.339 172.21 188.019 172 187.929 171.75C187.869 171.58 187.869 171.43 187.949 171.31C188.019 171.19 188.259 171.01 188.659 170.78C189.269 170.4 189.789 170.13 190.229 169.96C190.669 169.79 191.069 169.7 191.429 169.7C192.189 169.7 192.888 170 193.558 170.6C194.228 171.2 194.739 172.02 195.099 173.03C195.509 174.19 195.639 175.35 195.499 176.53C195.359 177.71 194.949 178.85 194.269 179.96C193.759 180.78 193.229 181.44 192.699 181.93C192.159 182.42 191.709 182.67 191.349 182.67V182.66Z" fill="white"/>
<path d="M205.799 172.679C205.539 172.289 205.249 171.999 204.969 171.839C204.679 171.669 204.339 171.579 203.949 171.579C203.559 171.579 203.179 171.689 202.869 171.909C202.559 172.139 202.279 172.469 202.029 172.919C201.629 173.659 201.399 174.499 201.319 175.419C201.249 176.339 201.369 177.209 201.659 178.029C201.829 178.509 202.049 178.849 202.319 179.059C202.589 179.269 202.959 179.369 203.429 179.369C203.489 179.369 203.609 179.369 203.769 179.349C203.929 179.329 204.069 179.329 204.169 179.329C204.329 179.329 204.479 179.369 204.609 179.459C204.749 179.549 204.829 179.659 204.879 179.799C204.929 179.939 204.919 180.089 204.849 180.239C204.779 180.389 204.579 180.629 204.249 180.949L204.189 181.009C203.119 182.109 202.279 182.669 201.679 182.669C200.969 182.669 200.229 182.309 199.479 181.579C198.729 180.859 198.159 179.949 197.779 178.849C197.389 177.739 197.249 176.609 197.379 175.479C197.509 174.349 197.879 173.329 198.489 172.409C199.049 171.579 199.729 170.939 200.549 170.489C201.359 170.039 202.219 169.809 203.129 169.809C203.679 169.809 204.189 169.879 204.669 170.039C205.149 170.189 205.609 170.429 206.059 170.739L206.159 170.109C206.189 169.839 206.339 169.649 206.589 169.539C206.839 169.429 207.219 169.369 207.749 169.369C208.349 169.369 208.849 169.449 209.219 169.599C209.599 169.749 209.829 169.979 209.929 170.269C209.989 170.449 209.989 171.159 209.909 172.409C209.839 173.599 209.779 174.599 209.759 175.409C209.759 175.609 209.739 175.889 209.709 176.249C209.649 176.969 209.679 177.489 209.779 177.789C209.879 178.079 210.129 178.429 210.529 178.849C210.919 179.269 211.139 179.529 211.179 179.649C211.279 179.919 211.239 180.219 211.059 180.569C210.879 180.919 210.579 181.309 210.129 181.749C209.829 182.039 209.539 182.259 209.249 182.419C208.959 182.569 208.689 182.649 208.439 182.649C207.939 182.649 207.439 182.409 206.939 181.929C206.429 181.449 206.049 180.849 205.799 180.119C205.669 179.749 205.579 179.339 205.549 178.889C205.509 178.439 205.519 177.769 205.569 176.889L205.829 172.659L205.799 172.679Z" fill="white"/>
</svg>
